<svg width="100" height="33" viewBox="0 0 100 33" fill="none" xmlns="http://www.w3.org/2000/svg">
<path fill-rule="evenodd" clip-rule="evenodd" d="M30.5161 17.3538C30.5161 15.2206 32.2405 13.5381 34.4002 13.5381C35.8497 13.5381 36.9656 14.1617 37.705 15.3223L36.1687 16.1785C35.7483 15.5837 35.154 15.2206 34.4002 15.2206C33.2261 15.2206 32.2551 16.2074 32.2551 17.3538C32.2551 18.4995 33.2261 19.4865 34.4002 19.4865C35.154 19.4865 35.7483 19.1527 36.1687 18.5432L37.6904 19.3849C36.9511 20.5455 35.8497 21.1836 34.4002 21.1836C32.2405 21.1836 30.5161 19.4574 30.5161 17.3538Z" fill="#737373"/>
<path fill-rule="evenodd" clip-rule="evenodd" d="M38.6017 11.0078H40.4133V14.2054C40.9063 13.7848 41.6016 13.5383 42.4135 13.5383C44.6309 13.5383 45.457 14.9452 45.457 17.1364V21.1839H43.6454V17.6006C43.6454 16.0336 43.4136 15.2209 42.0368 15.2209C41.0222 15.2209 40.4133 15.8597 40.4133 16.9183V21.1839H38.6017V11.0078Z" fill="#737373"/>
<path fill-rule="evenodd" clip-rule="evenodd" d="M52.4135 17.3538C52.4135 16.2074 51.4425 15.2206 50.2683 15.2206C49.0942 15.2206 48.1232 16.2074 48.1232 17.3538C48.1232 18.4995 49.0942 19.4865 50.2683 19.4865C51.4425 19.4865 52.4135 18.4995 52.4135 17.3538ZM46.3838 17.3538C46.3838 15.2206 48.1087 13.5381 50.2683 13.5381C51.0217 13.5381 51.7755 13.7553 52.4135 14.2051V13.6106H54.2251V21.1836H52.4135V20.5309C51.8187 20.9371 51.0072 21.1836 50.2683 21.1836C48.1087 21.1836 46.3838 19.4574 46.3838 17.3538Z" fill="#737373"/>
<path fill-rule="evenodd" clip-rule="evenodd" d="M55.4411 21.1839H57.2677V13.6109H55.4411V21.1839ZM55.4411 12.8357H57.2677V11.0078H55.4411V12.8357Z" fill="#737373"/>
<path fill-rule="evenodd" clip-rule="evenodd" d="M58.4839 13.6106H60.296V14.2051C60.7885 13.7846 61.4842 13.5381 62.2957 13.5381C64.5136 13.5381 65.3397 14.945 65.3397 17.1361V21.1836H63.528V17.6003C63.528 16.0334 63.2958 15.2206 61.9191 15.2206C60.9049 15.2206 60.296 15.8594 60.296 16.9181V21.1836H58.4839V13.6106Z" fill="#737373"/>
<path fill-rule="evenodd" clip-rule="evenodd" d="M67.0648 16.1056H66.3255V14.4224H67.0648V14.1033C67.0648 11.7386 68.3115 10.9262 70.9634 11.0131L70.8334 12.7834C69.1085 12.7834 68.891 13.102 68.891 14.1033V14.4224H70.5576V16.1056H68.891V21.1833H67.0648V16.1056Z" fill="#737373"/>
<path fill-rule="evenodd" clip-rule="evenodd" d="M71.759 17.4985V13.6104H73.5706V17.0341C73.5706 18.601 73.8024 19.4134 75.1792 19.4134C76.1938 19.4134 76.8027 18.7752 76.8027 17.7163V13.6104H78.6143V21.1835H76.8027V20.4291C76.3097 20.85 75.6141 21.0964 74.8025 21.0964C72.5847 21.0964 71.759 19.689 71.759 17.4985Z" fill="#737373"/>
<path fill-rule="evenodd" clip-rule="evenodd" d="M79.8316 13.6106H81.6436V14.2051C82.1362 13.7846 82.8319 13.5381 83.6438 13.5381C85.8611 13.5381 86.6872 14.945 86.6872 17.1361V21.1836H84.8753V17.6003C84.8753 16.0334 84.6435 15.2206 83.2666 15.2206C82.2521 15.2206 81.6436 15.8594 81.6436 16.9181V21.1836H79.8316V13.6106Z" fill="#737373"/>
<path fill-rule="evenodd" clip-rule="evenodd" d="M93.6428 17.3544C93.6428 16.208 92.6718 15.2212 91.4977 15.2212C90.324 15.2212 89.3525 16.208 89.3525 17.3544C89.3525 18.5002 90.324 19.4871 91.4977 19.4871C92.6718 19.4871 93.6428 18.5002 93.6428 17.3544ZM87.6136 17.3544C87.6136 15.2212 89.3384 13.5387 91.4977 13.5387C92.2515 13.5387 93.0049 13.7559 93.6428 14.2057V11.0078H95.4549V21.1842H93.6428V20.5315C93.0485 20.9377 92.2369 21.1842 91.4977 21.1842C89.3384 21.1842 87.6136 19.4581 87.6136 17.3544Z" fill="#737373"/>
<path fill-rule="evenodd" clip-rule="evenodd" d="M21.044 13.8112C21.044 12.5087 19.9857 11.4501 18.6863 11.4501C17.4073 11.4501 16.3659 12.4747 16.3319 13.7475H16.3322V16.1716H18.7357V17.5254H16.3322V19.8873H16.3364C16.3364 19.9154 16.3329 19.9426 16.3322 19.9705V20.1325H16.3241C16.1971 22.0657 14.5906 23.6012 12.6273 23.6012C10.5808 23.6012 8.91756 21.9349 8.91756 19.8873C8.91756 17.849 10.5659 16.1901 12.5995 16.1748V16.1716H13.6148V17.5254H12.6273V17.5262C11.3262 17.5262 10.2689 18.5854 10.2689 19.8873C10.2689 21.1889 11.3262 22.2475 12.6273 22.2475C13.8996 22.2475 14.9362 21.2337 14.9808 19.9712V13.8112H14.9759C14.9759 11.7635 16.6399 10.0964 18.6863 10.0964C20.731 10.0964 22.3955 11.7635 22.3955 13.8112H21.044ZM15.6559 5.72559C9.52969 5.72559 4.54544 10.7155 4.54544 16.8483C4.54544 22.9812 9.52969 27.9711 15.6559 27.9711C21.7834 27.9711 26.7676 22.9812 26.7676 16.8483C26.7676 10.7155 21.7834 5.72559 15.6559 5.72559Z" fill="#737373"/>
</svg>
