<svg width="100" height="33" viewBox="0 0 100 33" fill="none" xmlns="http://www.w3.org/2000/svg">
<path d="M26.5156 10.6711L24.8442 14.1238C24.4749 13.8793 24.0074 13.7758 23.4465 13.7758C21.7581 13.7758 20.9382 15.2312 20.9382 16.8186V23.006H17.6102V10.5383H20.9382V12.0866H20.9756C21.9935 10.852 23.2849 10.3574 24.8142 10.3574C25.3956 10.3579 25.972 10.4641 26.5156 10.6711ZM40.5641 17.5651C40.5641 19.8304 39.7605 21.6672 38.4536 23.0077H27.9467C26.6422 21.6672 25.8362 19.8296 25.8362 17.5651C25.8394 13.2796 28.9743 10.1431 33.2001 10.1309C37.4268 10.1431 40.5641 13.2796 40.5641 17.5651ZM38.2815 17.7843C38.2815 15.1448 36.236 12.6586 33.2026 12.6586C30.1692 12.6586 28.1236 15.1448 28.1236 17.7843C28.1236 18.6122 28.3485 19.643 28.6813 20.2436L33.2026 16.1969L37.7239 20.2436C38.0567 19.643 38.2815 18.6122 38.2815 17.7843ZM16.434 21.0332C15.3641 22.28 13.4387 23.2807 10.9378 23.2807C7.25499 23.2807 4.54545 20.673 4.54545 16.8365C4.54545 13.0001 7.24525 10.3753 11.0993 10.3753C13.0751 10.3753 15.1279 11.1902 16.3836 12.7711L14.1319 14.7146C13.7782 14.2906 13.3349 13.9509 12.8343 13.7201C12.3337 13.4892 11.7882 13.373 11.2373 13.3798C9.2494 13.3798 7.92872 14.792 7.92872 16.8129C7.92872 18.8607 9.28511 20.2697 11.2609 20.2697C11.803 20.2783 12.3407 20.1707 12.838 19.954C13.3354 19.7373 13.7809 19.4165 14.1449 19.0131L16.434 21.0332ZM51.2156 19.37C51.2156 21.58 49.6522 23.2505 46.3939 23.2505C44.4052 23.2505 42.7152 22.6116 41.3612 21.4154L42.9798 19.1044C43.9912 20.0725 45.0611 20.5663 46.4175 20.5663C47.3915 20.5663 47.9459 20.1434 47.9459 19.5322C47.9459 18.9577 47.2966 18.67 45.6837 18.1469C43.6308 17.4713 41.8539 16.4984 41.8539 14.0888C41.8539 11.8315 43.7923 10.3452 46.3306 10.3452C48.0604 10.3452 49.4639 10.8178 50.8811 11.9163L49.2674 14.3617C48.312 13.4531 47.2146 13.0408 46.2957 13.0408C45.7502 13.0408 45.0781 13.3285 45.0781 13.9771C45.0781 14.5003 45.7275 14.8621 46.9451 15.3249C49.6392 16.324 51.2156 16.9099 51.2156 19.37ZM66.963 10.6198V23.0875H63.6349V10.6198H66.963ZM81.574 10.6198V23.006H78.4895V21.6207H78.3272C77.4643 22.7388 76.2012 23.354 74.5859 23.354C71.1223 23.354 68.597 20.7814 68.597 16.8993C68.5946 13.084 71.1336 10.3753 74.4853 10.3753C75.9618 10.3753 77.2451 10.9294 78.1729 12.01H78.1648V10.6198H81.574ZM78.3775 16.8806C78.3775 14.8833 77.0479 13.3904 75.2426 13.3904C73.4568 13.3904 72.0493 14.7447 72.0493 16.8806C72.0493 18.9047 73.3651 20.29 75.2296 20.29C76.9602 20.29 78.3775 18.9316 78.3775 16.8806ZM95.4545 15.6501V23.0875H92.0453V16.4552C92.0745 14.0692 91.2336 13.3325 89.7035 13.3325C88.024 13.3325 86.8965 14.519 86.8503 16.742V23.0875H83.5222V10.6198H86.8503V12.1681H86.8909C87.3876 11.5882 88.0046 11.1244 88.6987 10.8091C89.3928 10.4938 90.1471 10.3346 90.9089 10.3427C93.5876 10.3427 95.4545 11.7932 95.4545 15.6501ZM61.8491 19.37C61.8491 21.58 60.2825 23.2505 57.0243 23.2505C55.0347 23.2505 53.3455 22.6116 51.9916 21.4154L53.611 19.1044C54.6248 20.0725 55.6914 20.5663 57.0478 20.5663C58.017 20.5663 58.5763 20.1434 58.5763 19.5322C58.5763 18.9577 57.9269 18.67 56.314 18.1469C54.2611 17.4713 52.4835 16.4984 52.4835 14.0888C52.4835 11.8315 54.4227 10.3452 56.9601 10.3452C58.6899 10.3452 60.0942 10.8178 61.5107 11.9163L59.8953 14.3609C58.9391 13.4523 57.8425 13.04 56.9228 13.04C56.3781 13.04 55.7052 13.3277 55.7052 13.9763C55.7052 14.4995 56.3546 14.8613 57.5722 15.3241C60.2687 16.324 61.8491 16.9099 61.8491 19.37Z" fill="#737373"/>
</svg>
