<svg width="100" height="33" viewBox="0 0 100 33" fill="none" xmlns="http://www.w3.org/2000/svg">
<path fill-rule="evenodd" clip-rule="evenodd" d="M27.9614 23.0715C26.837 23.0715 26.0452 22.7365 25.586 22.0666C25.1269 21.3966 24.8973 20.4713 24.8973 19.2907V15.2709C24.8973 14.0246 25.1222 13.0783 25.572 12.4317C26.0218 11.7852 26.8182 11.4619 27.9614 11.4619C28.9827 11.4619 29.7159 11.7383 30.161 12.2912C30.6061 12.844 30.8286 13.6592 30.8286 14.7368V15.6363H29.3247V14.8352C29.3247 14.3104 29.3013 13.9075 29.2545 13.6264C29.2076 13.3453 29.0881 13.1204 28.896 12.9518C28.704 12.7831 28.3971 12.6988 27.9754 12.6988C27.5444 12.6988 27.2235 12.7901 27.0126 12.9728C26.8018 13.1556 26.6636 13.4086 26.598 13.7318C26.5324 14.0551 26.4996 14.4885 26.4996 15.0319V19.5437C26.4996 20.1246 26.5465 20.5791 26.6402 20.907C26.7339 21.235 26.8862 21.4692 27.097 21.6098C27.3078 21.7503 27.6006 21.8206 27.9754 21.8206C28.3783 21.8206 28.6782 21.7316 28.875 21.5536C29.0717 21.3755 29.1959 21.1319 29.2474 20.8227C29.299 20.5135 29.3247 20.0918 29.3247 19.5577V18.7144H30.8286V19.5577C30.8286 20.6915 30.6155 21.5606 30.1891 22.165C29.7628 22.7693 29.0202 23.0715 27.9614 23.0715ZM34.0894 18.9252L31.6298 11.5603H33.1056L34.8484 17.0559L36.5632 11.5603H38.053L35.6074 18.9252V22.945H34.0894V18.9252ZM39.1072 11.5603H41.7214C42.7521 11.5603 43.5158 11.7922 44.0124 12.256C44.509 12.7199 44.7573 13.439 44.7573 14.4135C44.7573 15.8659 44.2139 16.667 43.1269 16.8169C43.8016 16.9762 44.2935 17.2925 44.6027 17.7657C44.912 18.2389 45.0666 18.8831 45.0666 19.6983C45.0666 20.7196 44.8253 21.5161 44.3427 22.0877C43.8602 22.6592 43.1269 22.945 42.1431 22.945H39.1072V11.5603ZM41.6371 16.311C42.293 16.311 42.7475 16.1681 43.0004 15.8823C43.2534 15.5965 43.3799 15.1069 43.3799 14.4135C43.3799 13.9075 43.3026 13.5351 43.148 13.2961C42.9934 13.0572 42.7615 12.9049 42.4523 12.8393C42.1431 12.7737 41.6839 12.7409 41.0749 12.7409H40.6954V16.311H41.6371ZM41.7636 21.8065C42.2321 21.8065 42.5952 21.7339 42.8529 21.5887C43.1105 21.4435 43.2909 21.2209 43.394 20.9211C43.4971 20.6212 43.5486 20.2136 43.5486 19.6983C43.5486 18.9674 43.3987 18.4216 43.0988 18.0608C42.799 17.7001 42.3117 17.5197 41.6371 17.5197H40.6954V21.8065H41.7636ZM46.4721 11.5603H50.8854V12.7409H48.0603V16.5077H50.3513V17.6322H48.0603V21.8065H50.9135V22.945H46.4721V11.5603ZM52.1926 11.5603H54.4835C55.6361 11.5603 56.4817 11.7969 57.0205 12.2701C57.5593 12.7433 57.8287 13.514 57.8287 14.5822C57.8287 16.0439 57.3602 16.9294 56.4232 17.2386L58.0395 22.945H56.5075L55.0176 17.604H53.7808V22.945H52.1926V11.5603ZM54.3852 16.4656C55.0692 16.4656 55.5588 16.3297 55.8539 16.058C56.1491 15.7862 56.2967 15.2943 56.2967 14.5822C56.2967 14.1137 56.2451 13.7459 56.1421 13.4788C56.039 13.2118 55.8563 13.015 55.5939 12.8885C55.3315 12.762 54.9614 12.6988 54.4835 12.6988H53.7808V16.4656H54.3852Z" fill="#737373"/>
<path fill-rule="evenodd" clip-rule="evenodd" d="M62.3972 23.0715C61.2727 23.0715 60.481 22.7365 60.0218 22.0666C59.5627 21.3966 59.3331 20.4713 59.3331 19.2907V15.2709C59.3331 14.0246 59.558 13.0783 60.0078 12.4317C60.4575 11.7852 61.254 11.4619 62.3972 11.4619C63.4185 11.4619 64.1517 11.7383 64.5968 12.2912C65.0419 12.844 65.2644 13.6592 65.2644 14.7368V15.6363H63.7605V14.8352C63.7605 14.3104 63.7371 13.9075 63.6902 13.6264C63.6434 13.3453 63.5239 13.1204 63.3318 12.9518C63.1397 12.7831 62.8329 12.6988 62.4112 12.6988C61.9802 12.6988 61.6593 12.7901 61.4484 12.9728C61.2376 13.1556 61.0994 13.4086 61.0338 13.7318C60.9682 14.0551 60.9354 14.4885 60.9354 15.0319V19.5437C60.9354 20.1246 60.9823 20.5791 61.076 20.907C61.1697 21.235 61.3219 21.4692 61.5328 21.6098C61.7436 21.7503 62.0364 21.8206 62.4112 21.8206C62.8141 21.8206 63.114 21.7316 63.3108 21.5536C63.5075 21.3755 63.6317 21.1319 63.6832 20.8227C63.7348 20.5135 63.7605 20.0918 63.7605 19.5577V18.7144H65.2644V19.5577C65.2644 20.6915 65.0513 21.5606 64.6249 22.165C64.1986 22.7693 63.456 23.0715 62.3972 23.0715ZM66.7824 11.5603H69.0734C70.2259 11.5603 71.0716 11.7969 71.6104 12.2701C72.1491 12.7433 72.4185 13.514 72.4185 14.5822C72.4185 16.0439 71.95 16.9294 71.013 17.2386L72.6294 22.945H71.0973L69.6075 17.604H68.3706V22.945H66.7824V11.5603ZM68.975 16.4656C69.659 16.4656 70.1486 16.3297 70.4438 16.058C70.7389 15.7862 70.8865 15.2943 70.8865 14.5822C70.8865 14.1137 70.835 13.7459 70.7319 13.4788C70.6288 13.2118 70.4461 13.015 70.1837 12.8885C69.9214 12.762 69.5513 12.6988 69.0734 12.6988H68.3706V16.4656H68.975ZM74.077 11.5603H78.4904V12.7409H75.6653V16.5077H77.9563V17.6322H75.6653V21.8065H78.5185V22.945H74.077V11.5603ZM79.7975 11.5603H82.2712C83.4987 11.5603 84.3678 11.8414 84.8785 12.4036C85.3891 12.9658 85.6445 13.8419 85.6445 15.0319V19.2204C85.6445 20.476 85.3938 21.4107 84.8925 22.0244C84.3912 22.6382 83.5596 22.945 82.3977 22.945H79.7975V11.5603ZM82.2853 21.8065C82.8381 21.8065 83.2387 21.6988 83.487 21.4833C83.7353 21.2678 83.8899 20.9749 83.9508 20.6048C84.0117 20.2347 84.0422 19.6748 84.0422 18.9252V15.2287C84.0422 14.5822 84.0024 14.0879 83.9227 13.7459C83.8431 13.4039 83.6767 13.1509 83.4237 12.9869C83.1708 12.8229 82.7772 12.7409 82.2431 12.7409H81.3857V21.8065H82.2853ZM87.2889 11.5603H88.8491V22.945H87.2889V11.5603ZM91.8569 12.7409H89.7908V11.5603L95.455 11.5603V12.7409L93.4451 12.7409V22.945H91.8569V12.7409Z" fill="#737373"/>
<path fill-rule="evenodd" clip-rule="evenodd" d="M15.0868 25.6336V27.8643H12.9786V25.7345C8.27422 25.4095 4.54544 21.4457 4.54544 16.6201C4.54544 11.7946 8.27422 7.83082 12.9786 7.50579V5.37598H15.0868V7.60664C16.9915 7.92429 18.6975 8.84331 20.0062 10.1631L18.2168 11.9679C17.3699 11.1137 16.2919 10.4925 15.0868 10.2091V11.91C17.1177 12.5211 18.6006 14.4014 18.6006 16.6202C18.6006 18.8389 17.1177 20.7192 15.0868 21.3303V23.0312C16.2919 22.7477 17.3699 22.1266 18.2168 21.2724L20.0062 23.0771C18.6975 24.397 16.9915 25.316 15.0868 25.6336ZM12.9786 10.0677C9.67193 10.3861 7.07725 13.2033 7.07725 16.6201C7.07725 20.037 9.67193 22.8542 12.9786 23.1726V21.4929C11.8882 21.3426 10.9104 20.8367 10.1675 20.097L11.9878 18.2847C12.2607 18.5564 12.5997 18.7622 12.9786 18.8758V14.3645C12.5997 14.4781 12.2607 14.6839 11.9878 14.9556L10.1675 13.1433C10.9104 12.4036 11.8882 11.8977 12.9786 11.7474V10.0677ZM15.0868 18.4972C15.6566 18.0668 16.0252 17.3855 16.0252 16.6202C16.0252 15.8548 15.6566 15.1735 15.0868 14.7431V18.4972Z" fill="#737373"/>
</svg>
