<svg width="100" height="33" viewBox="0 0 100 33" fill="none" xmlns="http://www.w3.org/2000/svg">
<path d="M95.1147 16.5451C94.9716 16.4511 94.8146 16.4041 94.6437 16.4041C94.4579 16.4041 94.2923 16.4884 94.147 16.6572C94.0039 16.826 93.9324 17.0321 93.9324 17.2756V19.2302H93.1313V15.7985H93.9324V16.1125C94.1567 15.8604 94.4546 15.7344 94.8263 15.7344C95.0998 15.7344 95.3091 15.776 95.4544 15.8593L95.1147 16.5451Z" fill="#737373"/>
<path d="M92.42 17.7595H89.9687C89.9837 18.0329 90.0776 18.2455 90.2507 18.3971C90.4237 18.5488 90.6565 18.6246 90.9492 18.6246C91.3145 18.6246 91.5922 18.5296 91.7823 18.3394L92.0931 18.9515C91.8112 19.18 91.3903 19.2943 90.8306 19.2943C90.3073 19.2943 89.8929 19.1416 89.5874 18.8361C89.2841 18.5285 89.1324 18.1002 89.1324 17.5512C89.1324 17.0107 89.299 16.5728 89.6323 16.2374C89.9676 15.9021 90.3692 15.7344 90.8371 15.7344C91.3348 15.7344 91.7342 15.8828 92.0354 16.1798C92.3367 16.4767 92.4873 16.8548 92.4873 17.3141C92.4873 17.4123 92.4648 17.5608 92.42 17.7595ZM89.9975 17.1571H91.683C91.6274 16.6551 91.3497 16.4041 90.8499 16.4041C90.3927 16.4041 90.1086 16.6551 89.9975 17.1571Z" fill="#737373"/>
<path d="M87.5824 19.2947H87.2908L86.3488 17.1863L85.4099 19.2947H85.1151L83.8206 15.7988H84.6633L85.3523 17.8464L86.1918 15.7988H86.4802L87.3485 17.8592L88.0919 15.7988H88.8801L87.5824 19.2947Z" fill="#737373"/>
<path d="M80.2703 17.5063C80.2703 16.983 80.4209 16.5568 80.7221 16.2278C81.0254 15.8989 81.4249 15.7344 81.9205 15.7344C82.4417 15.7344 82.8465 15.8925 83.1349 16.2086C83.4233 16.5248 83.5675 16.9573 83.5675 17.5063C83.5675 18.0532 83.4201 18.4879 83.1253 18.8105C82.8326 19.133 82.431 19.2943 81.9205 19.2943C81.3992 19.2943 80.9934 19.132 80.7028 18.8073C80.4145 18.4804 80.2703 18.0468 80.2703 17.5063ZM81.1034 17.5063C81.1034 18.2625 81.3757 18.6406 81.9205 18.6406C82.1704 18.6406 82.368 18.5424 82.5133 18.3459C82.6607 18.1493 82.7343 17.8695 82.7343 17.5063C82.7343 16.7608 82.4631 16.388 81.9205 16.388C81.6705 16.388 81.4719 16.4863 81.3245 16.6828C81.1771 16.8794 81.1034 17.1539 81.1034 17.5063Z" fill="#737373"/>
<path d="M78.4347 15.2763V19.2304H77.6016V15.2763H76.1084V14.5361H79.9952V15.2763H78.4347Z" fill="#737373"/>
<path d="M72.699 14.5204L73.5001 14.3281V18.1861C73.5001 18.609 73.6261 18.8611 73.8782 18.9423C73.7543 19.1772 73.5428 19.2947 73.2438 19.2947C72.8806 19.2947 72.699 19.0427 72.699 18.5385V14.5204Z" fill="#737373"/>
<path d="M68.6196 17.5063C68.6196 16.983 68.7702 16.5568 69.0714 16.2278C69.3747 15.8989 69.7742 15.7344 70.2698 15.7344C70.791 15.7344 71.1958 15.8925 71.4842 16.2086C71.7726 16.5248 71.9168 16.9573 71.9168 17.5063C71.9168 18.0532 71.7694 18.4879 71.4746 18.8105C71.1819 19.133 70.7803 19.2943 70.2698 19.2943C69.7485 19.2943 69.3427 19.132 69.0521 18.8073C68.7638 18.4804 68.6196 18.0468 68.6196 17.5063ZM69.4527 17.5063C69.4527 18.2625 69.725 18.6406 70.2698 18.6406C70.5197 18.6406 70.7173 18.5424 70.8626 18.3459C71.0099 18.1493 71.0836 17.8695 71.0836 17.5063C71.0836 16.7608 70.8124 16.388 70.2698 16.388C70.0198 16.388 69.8212 16.4863 69.6738 16.6828C69.5264 16.8794 69.4527 17.1539 69.4527 17.5063Z" fill="#737373"/>
<path d="M68.0194 16.5451C67.8763 16.4511 67.7193 16.4041 67.5484 16.4041C67.3626 16.4041 67.197 16.4884 67.0518 16.6572C66.9086 16.826 66.8371 17.0321 66.8371 17.2756V19.2302H66.036V15.7985H66.8371V16.1125C67.0614 15.8604 67.3594 15.7344 67.7311 15.7344C68.0045 15.7344 68.2138 15.776 68.3591 15.8593L68.0194 16.5451Z" fill="#737373"/>
<path d="M63.5568 16.443H63.1595V15.799H63.5568V15.1005L64.3579 14.8057V15.799H65.2999V16.443H64.3579V17.9458C64.3579 18.1915 64.3963 18.3656 64.4732 18.4681C64.5501 18.5685 64.6847 18.6187 64.877 18.6187C65.0692 18.6187 65.2487 18.5664 65.4153 18.4617V19.1987C65.2294 19.2628 64.9646 19.2948 64.6206 19.2948C64.2788 19.2948 64.0161 19.1987 63.8324 19.0065C63.6487 18.8121 63.5568 18.5365 63.5568 18.1798V16.443Z" fill="#737373"/>
<path d="M61.7657 19.2302V17.2468C61.7657 16.9541 61.7091 16.7405 61.5958 16.6059C61.4848 16.4714 61.3021 16.4041 61.0479 16.4041C60.9304 16.4041 60.8044 16.4372 60.6698 16.5034C60.5374 16.5696 60.4338 16.6519 60.359 16.7501V19.2302H59.5579V15.7985H60.1347L60.2821 16.1189C60.5 15.8625 60.8215 15.7344 61.2466 15.7344C61.6546 15.7344 61.9761 15.8572 62.2111 16.1029C62.4482 16.3464 62.5667 16.6871 62.5667 17.125V19.2302H61.7657Z" fill="#737373"/>
<path d="M55.6157 17.5063C55.6157 16.983 55.7663 16.5568 56.0675 16.2278C56.3709 15.8989 56.7703 15.7344 57.2659 15.7344C57.7871 15.7344 58.192 15.8925 58.4803 16.2086C58.7687 16.5248 58.9129 16.9573 58.9129 17.5063C58.9129 18.0532 58.7655 18.4879 58.4707 18.8105C58.1781 19.133 57.7765 19.2943 57.2659 19.2943C56.7447 19.2943 56.3388 19.132 56.0483 18.8073C55.7599 18.4804 55.6157 18.0468 55.6157 17.5063ZM56.4488 17.5063C56.4488 18.2625 56.7212 18.6406 57.2659 18.6406C57.5159 18.6406 57.7134 18.5424 57.8587 18.3459C58.0061 18.1493 58.0798 17.8695 58.0798 17.5063C58.0798 16.7608 57.8085 16.388 57.2659 16.388C57.016 16.388 56.8173 16.4863 56.6699 16.6828C56.5225 16.8794 56.4488 17.1539 56.4488 17.5063Z" fill="#737373"/>
<path d="M55.0875 14.7861L54.7446 15.475C54.5588 15.2892 54.2597 15.1962 53.8474 15.1962C53.4565 15.1962 53.1361 15.3607 52.8862 15.6897C52.6362 16.0165 52.5113 16.431 52.5113 16.933C52.5113 17.435 52.6266 17.8334 52.8573 18.1281C53.0902 18.4229 53.3999 18.5703 53.7866 18.5703C54.2288 18.5703 54.5748 18.4123 54.8247 18.0961L55.2125 18.769C54.8728 19.13 54.3751 19.3105 53.7193 19.3105C53.0635 19.3105 52.554 19.0948 52.1908 18.6633C51.8277 18.2317 51.6461 17.6432 51.6461 16.8977C51.6461 16.2034 51.8469 15.6235 52.2485 15.1578C52.6523 14.69 53.1681 14.4561 53.7962 14.4561C54.3345 14.4561 54.7649 14.5661 55.0875 14.7861Z" fill="#737373"/>
<path d="M48.1722 19.2307V17.1158C48.1722 16.9044 48.106 16.7345 47.9736 16.6064C47.8411 16.4782 47.6681 16.4141 47.4545 16.4141C47.322 16.4141 47.1885 16.4504 47.0539 16.523C46.9193 16.5935 46.8232 16.6747 46.7655 16.7666V19.2307H45.9517V14.5204L46.7655 14.3281V16.0168C46.9728 15.8288 47.2579 15.7348 47.6211 15.7348C48.0505 15.7348 48.3837 15.8544 48.6208 16.0937C48.8579 16.3308 48.9765 16.6715 48.9765 17.1158V19.2307H48.1722Z" fill="#737373"/>
<path d="M45.2861 16.0708L44.9433 16.67C44.7553 16.4927 44.5032 16.4041 44.1871 16.4041C43.8837 16.4041 43.6434 16.5055 43.4661 16.7085C43.2909 16.9093 43.2033 17.188 43.2033 17.5448C43.2033 18.2647 43.5462 18.6246 44.2319 18.6246C44.5288 18.6246 44.7905 18.5264 45.017 18.3298L45.3118 18.9611C45.0789 19.1063 44.8749 19.1982 44.6997 19.2366C44.5267 19.2751 44.3216 19.2943 44.0845 19.2943C43.5547 19.2943 43.1361 19.1405 42.8284 18.8329C42.523 18.5232 42.3702 18.0938 42.3702 17.5448C42.3702 17.0043 42.5379 16.5675 42.8733 16.2342C43.2087 15.901 43.6658 15.7344 44.2447 15.7344C44.6442 15.7344 44.9913 15.8465 45.2861 16.0708Z" fill="#737373"/>
<path d="M41.8822 17.7595H39.431C39.4459 18.0329 39.5399 18.2455 39.713 18.3971C39.886 18.5488 40.1188 18.6246 40.4115 18.6246C40.7768 18.6246 41.0545 18.5296 41.2446 18.3394L41.5554 18.9515C41.2734 19.18 40.8526 19.2943 40.2929 19.2943C39.7696 19.2943 39.3551 19.1416 39.0497 18.8361C38.7463 18.5285 38.5947 18.1002 38.5947 17.5512C38.5947 17.0107 38.7613 16.5728 39.0945 16.2374C39.4299 15.9021 39.8315 15.7344 40.2993 15.7344C40.7971 15.7344 41.1965 15.8828 41.4977 16.1798C41.7989 16.4767 41.9495 16.8548 41.9495 17.3141C41.9495 17.4123 41.9271 17.5608 41.8822 17.7595ZM39.4598 17.1571H41.1453C41.0897 16.6551 40.812 16.4041 40.3122 16.4041C39.855 16.4041 39.5709 16.6551 39.4598 17.1571Z" fill="#737373"/>
<path d="M36.7591 15.2763V19.2304H35.926V15.2763H34.4328V14.5361H38.3196V15.2763H36.7591Z" fill="#737373"/>
<path d="M33.1324 19.2302V17.2468C33.1324 16.9541 33.0758 16.7405 32.9625 16.6059C32.8515 16.4714 32.6688 16.4041 32.4146 16.4041C32.2971 16.4041 32.1711 16.4372 32.0365 16.5034C31.9041 16.5696 31.8005 16.6519 31.7257 16.7501V19.2302H30.9246V15.7985H31.5014L31.6488 16.1189C31.8667 15.8625 32.1882 15.7344 32.6133 15.7344C33.0213 15.7344 33.3428 15.8572 33.5778 16.1029C33.8149 16.3464 33.9334 16.6871 33.9334 17.125V19.2302H33.1324Z" fill="#737373"/>
<path d="M29.5907 14.4688C29.7189 14.4688 29.8279 14.5147 29.9176 14.6065C30.0094 14.6963 30.0554 14.8052 30.0554 14.9334C30.0554 15.0615 30.0094 15.1716 29.9176 15.2634C29.8279 15.3531 29.7189 15.398 29.5907 15.398C29.4626 15.398 29.3526 15.3531 29.2607 15.2634C29.171 15.1716 29.1261 15.0615 29.1261 14.9334C29.1261 14.8052 29.171 14.6963 29.2607 14.6065C29.3526 14.5147 29.4626 14.4688 29.5907 14.4688ZM29.1774 19.2303V16.4554H28.7384V15.7985H29.9881V19.2303H29.1774Z" fill="#737373"/>
<path d="M26.012 15.2763V16.3754H27.6622V17.0835H26.012V19.2304H25.1789V14.5361H28.271V15.2763H26.012Z" fill="#737373"/>
<path d="M9.91619 14.3569C9.82739 14.3125 9.87179 14.2681 9.82739 14.2237C9.64978 13.8685 9.73859 13.8685 10.0938 13.8241C10.1826 13.8241 10.3158 13.8241 10.4046 13.8241C10.2714 13.6021 10.1826 13.4245 10.0938 13.2025C10.005 12.9805 9.87179 12.8029 9.78299 12.5809C9.73859 12.4477 9.73859 12.4033 9.87179 12.3589C10.0938 12.2701 10.3602 12.2257 10.5822 12.2257C11.2926 12.1813 12.0031 12.1813 12.7579 12.2257C13.3351 12.2257 13.9123 12.2701 14.4451 12.3589C14.5783 12.3589 14.7115 12.4033 14.8003 12.4477C14.8447 12.4477 14.8447 12.4921 14.8891 12.4921C14.8891 12.5365 14.9335 12.5365 14.9335 12.5809C14.9335 12.8029 14.8891 12.9805 14.8003 13.2025C14.6671 13.6021 14.4451 13.9573 14.2231 14.2681C14.1343 14.4013 14.0011 14.5346 13.8679 14.6678C13.8235 14.6678 13.8235 14.7122 13.7791 14.7122C13.7347 14.7122 13.7347 14.7122 13.6903 14.7122C13.0687 14.6234 12.4915 14.4901 11.8698 14.3569C11.3814 14.2681 10.893 14.1349 10.4046 14.1349C10.3158 14.1349 10.1826 14.1349 10.0938 14.1793H10.0494C10.0494 14.1793 10.005 14.1793 10.005 14.2237L9.96059 14.2681C9.91619 14.3125 9.91619 14.3125 9.91619 14.3569ZM11.8698 12.4921C11.6922 12.4921 11.5146 12.4477 11.337 12.4921C11.2482 12.4921 11.2038 12.5365 11.2038 12.6697C11.2038 12.7585 11.2038 12.8029 11.2038 12.8473C11.2038 12.8917 11.2482 12.9361 11.2926 12.9361C11.337 12.9361 11.5146 12.9805 11.6478 13.0249C12.1363 13.1581 12.5803 13.2913 13.0243 13.4689C13.0687 13.4689 13.1131 13.5133 13.1131 13.4245C13.1575 13.2025 13.2019 12.9805 13.2019 12.8029C13.2019 12.5809 13.1575 12.5365 12.9355 12.5365H11.8698V12.4921ZM13.6459 12.5365C13.6015 12.5365 13.5127 12.4921 13.5127 12.5809C13.4683 12.8917 13.3351 13.2025 13.2463 13.5133C13.2463 13.5577 13.2463 13.6021 13.2907 13.6021C13.5571 13.6909 13.8235 13.7797 14.1343 13.7797C14.1787 13.7797 14.2231 13.7797 14.2231 13.7353C14.3563 13.4689 14.5339 13.2025 14.5783 12.8473C14.6227 12.6697 14.5783 12.5809 14.4007 12.5809C14.2675 12.5809 13.9123 12.5809 13.6459 12.5365ZM11.2482 13.2469C11.2926 13.5133 11.4258 13.7353 11.5146 13.9573C11.5146 14.0017 11.559 14.0017 11.559 14.0017C11.9142 14.0905 12.2695 14.2237 12.6691 14.3125C12.7135 14.3125 12.7579 14.3125 12.8023 14.2237C12.8911 14.0461 12.9355 13.8685 13.0243 13.6909C13.0687 13.6021 13.0243 13.6021 12.9355 13.5577C12.5803 13.4689 12.2251 13.3801 11.8698 13.2913C11.6922 13.2913 11.4702 13.2913 11.2482 13.2469ZM14.1787 13.8685C13.8679 13.8685 13.6015 13.7797 13.3351 13.7353C13.2463 13.7353 13.2463 13.7353 13.2019 13.7797C13.1575 13.9573 13.0687 14.1349 13.0243 14.3125C12.9799 14.4013 13.0243 14.4013 13.0687 14.4457L13.6015 14.5346C13.6459 14.5346 13.6903 14.5346 13.7347 14.5346C13.7791 14.5346 13.7791 14.4901 13.8235 14.4457C13.9123 14.2681 14.0455 14.0905 14.1787 13.8685ZM10.6266 13.2025C10.5378 13.2025 10.449 13.2025 10.3602 13.2025C10.2714 13.2025 10.227 13.2469 10.3158 13.3357C10.3602 13.4245 10.449 13.5577 10.5378 13.6909C10.6266 13.7797 10.6266 13.8241 10.7598 13.8685C10.9818 13.8685 11.1594 13.9129 11.337 14.0017C11.3814 14.0017 11.4258 14.0017 11.3814 13.9573L11.115 13.2913C11.115 13.2469 11.0706 13.2025 11.0262 13.2025C10.893 13.2469 10.7598 13.2025 10.6266 13.2025ZM10.9374 12.4477C10.671 12.4477 10.449 12.4477 10.227 12.4921C10.0938 12.5365 10.0494 12.6253 10.0494 12.8029C10.0938 13.0249 10.1826 12.8029 10.227 12.8473H10.2714C10.4934 12.8029 10.7154 12.8473 10.9374 12.8917C10.9818 12.7141 10.8486 12.5809 10.9374 12.4477Z" fill="#737373"/>
<path d="M11.0715 21.2835C11.0715 20.9727 11.0715 20.9727 11.3379 21.0171C11.9152 21.0615 12.4924 21.2391 13.0696 21.4167C13.2472 21.4611 13.4692 21.5499 13.6468 21.5943C13.6912 21.5943 13.7356 21.5943 13.7356 21.6831C13.7356 21.7275 13.6912 21.7275 13.6468 21.7275L12.9364 21.6831L11.9152 21.5943C11.6932 21.5943 11.4711 21.5499 11.2935 21.5499C11.0715 21.5499 11.0715 21.5499 11.0715 21.3279V21.2835Z" fill="#737373"/>
<path d="M11.0715 20.529V20.4402C11.0715 20.3514 11.1159 20.307 11.2047 20.3514C12.004 20.4402 12.8032 20.6622 13.558 20.9286L13.6912 20.973C13.7356 20.973 13.78 20.973 13.78 21.0618V21.1062C13.78 21.1062 13.78 21.1062 13.7356 21.1506C13.7356 21.1506 13.7356 21.1506 13.6912 21.1506H13.6468C13.5136 21.1506 13.336 21.1062 13.2028 21.0618C12.9364 21.0174 12.67 20.973 12.4036 20.9286L11.6487 20.751C11.5155 20.751 11.3823 20.751 11.2935 20.751C11.0715 20.751 11.0715 20.751 11.0715 20.529Z" fill="#737373"/>
<path d="M11.2935 19.7744C11.6487 19.8188 12.0928 19.9076 12.4924 19.9964C12.892 20.0852 13.2472 20.2184 13.6468 20.3516C13.6912 20.3516 13.7356 20.3516 13.78 20.396C13.78 20.4404 13.7356 20.4848 13.6912 20.4848C13.0696 20.396 12.4924 20.3072 11.8708 20.174C11.6487 20.1296 11.4267 20.0852 11.2047 20.1296C11.1159 20.1296 11.0715 20.1296 11.0715 20.0408C11.0715 19.9964 11.0715 19.9964 11.0715 19.952C11.0715 19.7744 11.0715 19.7744 11.2935 19.7744Z" fill="#737373"/>
<path d="M11.2922 19.1973C11.6918 19.1973 12.047 19.2861 12.4022 19.3749C12.7574 19.4637 13.2458 19.6413 13.6454 19.7301C13.6898 19.7301 13.6898 19.7301 13.7342 19.7745C13.7786 19.7745 13.823 19.7745 13.7786 19.8633C13.7786 19.8633 13.7786 19.8633 13.7786 19.9077C13.7786 19.9077 13.7786 19.9077 13.7342 19.9077C13.7342 19.9077 13.7342 19.9077 13.6898 19.9077H13.6454C13.2902 19.8189 12.935 19.8189 12.5798 19.7301C12.2246 19.6857 11.825 19.5969 11.4254 19.5525C11.3366 19.5525 11.2478 19.5525 11.159 19.5525C11.0702 19.5525 11.0258 19.5525 11.0258 19.4637C11.0258 19.4193 11.0258 19.4193 11.0258 19.3749C11.0702 19.1973 11.0702 19.1973 11.2922 19.1973Z" fill="#737373"/>
<path d="M11.2926 18.6199C11.5147 18.6199 11.7367 18.6644 11.9587 18.7088C12.3139 18.7976 12.6247 18.8864 12.9799 18.9752L13.6903 19.1972C13.7347 19.1972 13.7791 19.1972 13.7791 19.286V19.3304C13.7791 19.3304 13.7791 19.3304 13.7347 19.3748C13.7347 19.3748 13.7347 19.3748 13.6903 19.3748H13.6459L13.0687 19.286C12.5359 19.1972 12.0031 19.1084 11.4703 19.0196C11.3815 19.0196 11.2482 19.0196 11.1594 19.0196C11.0706 19.0196 11.0262 19.0196 11.0706 18.9308C11.0706 18.8864 11.0706 18.842 11.0706 18.7976C11.115 18.6643 11.1594 18.5755 11.2926 18.6199Z" fill="#737373"/>
<path d="M12.4023 15.4674C12.3579 15.5562 12.2691 15.645 12.2247 15.6894C12.1802 15.7782 12.1802 15.7338 12.1358 15.7338C11.9582 15.7338 11.7362 15.6894 11.5586 15.645C11.2034 15.5562 10.8038 15.5118 10.4486 15.7338C10.4486 15.6006 10.4486 15.4674 10.4042 15.3786C10.3598 15.2454 10.4042 15.2454 10.493 15.2454C10.6262 15.201 10.7594 15.1566 10.8926 15.201C11.381 15.2454 11.8694 15.3342 12.3579 15.4674H12.4023Z" fill="#737373"/>
<path d="M13.6023 18.7967C13.3359 18.7523 13.0695 18.7079 12.7587 18.6635C12.2702 18.6191 11.7818 18.4415 11.2934 18.4415C11.2046 18.4415 11.2046 18.3971 11.249 18.3527C11.2934 18.2639 11.2934 18.2195 11.3378 18.1307C11.3378 18.0419 11.4266 18.0863 11.471 18.0863C11.7374 18.1307 11.9594 18.1751 12.2258 18.2195C12.7143 18.3527 13.2027 18.4859 13.6911 18.6635C13.7355 18.6635 13.8243 18.6635 13.7799 18.7523C13.7355 18.7967 13.6911 18.7967 13.6023 18.7967Z" fill="#737373"/>
<path d="M10.5379 14.4902C10.982 14.4902 11.426 14.6234 11.8256 14.7566C12.0476 14.801 12.2696 14.8898 12.4916 14.9786C12.536 14.9786 12.5804 14.9786 12.5804 15.023C12.5804 15.1119 12.536 15.1563 12.4472 15.1119C12.3584 15.1119 12.2252 15.0675 12.1364 15.0675C11.87 14.9786 11.6036 14.9786 11.3372 14.9342C11.1152 14.8898 10.8932 14.8898 10.6711 14.8898C10.5379 14.8898 10.4491 14.8898 10.3159 14.8898H10.2715L10.2271 14.9342C10.1383 15.023 10.0939 14.9786 10.0939 14.8898C10.0051 14.6234 10.0495 14.4902 10.3603 14.4902H10.5379Z" fill="#737373"/>
<path d="M11.6469 17.5098C12.0465 17.5542 12.4462 17.643 12.8014 17.7762C13.0678 17.865 13.3786 17.9538 13.645 18.0426C13.6894 18.0426 13.7782 18.0426 13.7782 18.1314C13.7782 18.2202 13.6894 18.1758 13.645 18.1758C13.3786 18.1314 13.0678 18.087 12.757 18.0426C12.313 17.9982 11.9133 17.865 11.5137 17.8206C11.4693 17.8206 11.4249 17.8206 11.4249 17.7762C11.4693 17.6874 11.4693 17.5986 11.5137 17.5098C11.5137 17.5098 11.6025 17.5098 11.6469 17.5098Z" fill="#737373"/>
<path d="M10.4485 16.3103C10.4485 16.1771 10.4485 16.0883 10.4041 15.955C10.3597 15.8662 10.4485 15.8218 10.5373 15.7774C10.7593 15.733 10.9813 15.733 11.2033 15.7774C11.4253 15.8218 11.6917 15.8662 11.9581 15.9106C12.0469 15.9106 12.0469 15.955 12.0025 15.9994C11.8693 16.2215 11.8693 16.2215 11.5585 16.1771C11.2477 16.1327 10.9813 16.0883 10.6705 16.1771C10.5817 16.2215 10.5373 16.2659 10.4485 16.3103Z" fill="#737373"/>
<path d="M11.8699 16.9766C12.1363 17.0654 12.4027 17.0654 12.6691 17.1542C12.9355 17.243 13.2907 17.3318 13.6459 17.465L13.7347 17.5094C13.7791 17.5094 13.8235 17.5094 13.8235 17.5982C13.7791 17.687 13.7347 17.6426 13.6903 17.6426L13.0687 17.5538C12.7135 17.5094 12.3583 17.4206 12.0031 17.3762C11.9587 17.3762 11.9143 17.3762 11.8255 17.3318C11.7811 17.3318 11.6923 17.3318 11.6923 17.243C11.6923 17.1542 11.7811 16.9766 11.8699 16.9766Z" fill="#737373"/>
<path d="M13.6458 17.066L12.8022 16.9328C12.4914 16.8883 12.225 16.8439 11.9141 16.7995C11.8253 16.7995 11.8253 16.7551 11.8697 16.7107C11.9141 16.6663 11.9141 16.5775 11.9585 16.5331C12.0029 16.4887 12.0473 16.4443 12.1361 16.4443C12.669 16.5775 13.2018 16.7107 13.6902 16.8883C13.7346 16.9328 13.779 16.9328 13.779 16.9772C13.779 17.066 13.7346 17.066 13.6458 17.066Z" fill="#737373"/>
<path d="M10.8926 16.3105C11.159 16.3105 11.4254 16.3549 11.6918 16.3993C11.7806 16.3993 11.7806 16.4438 11.7362 16.4882C11.603 16.7102 11.603 16.7102 11.2922 16.7102C11.0258 16.6658 10.7594 16.7102 10.5374 16.799C10.493 16.8434 10.4486 16.8434 10.4486 16.7546C10.4486 16.6658 10.4486 16.577 10.4042 16.5326C10.3598 16.4438 10.4042 16.3549 10.493 16.3549C10.6262 16.3105 10.7594 16.3105 10.8926 16.3105Z" fill="#737373"/>
<path d="M10.4485 17.4654C10.4485 17.3322 10.4485 17.199 10.4041 17.1102C10.3597 16.977 10.4485 16.977 10.5373 16.977C10.6705 16.9326 10.7593 16.9326 10.8925 16.9326C11.0701 16.9326 11.2477 16.977 11.4253 16.977C11.5141 16.977 11.5141 17.0214 11.4697 17.1102C11.4253 17.1546 11.4253 17.2434 11.3809 17.3322C11.3365 17.421 11.3365 17.3766 11.2921 17.3766C10.9813 17.2878 10.7149 17.2878 10.4485 17.4654Z" fill="#737373"/>
<path d="M12.1372 16.2216C12.226 15.9552 12.4036 15.9108 12.6256 15.9996C12.9808 16.1328 13.336 16.2216 13.6913 16.3548C13.7357 16.3548 13.7801 16.3992 13.7357 16.4436C13.7357 16.488 13.6913 16.488 13.6469 16.488L13.114 16.3992L12.3148 16.266C12.2704 16.266 12.226 16.266 12.1372 16.2216Z" fill="#737373"/>
<path d="M10.4486 17.998C10.4042 17.8648 10.4486 17.7316 10.4042 17.6428C10.3598 17.5096 10.4042 17.5096 10.493 17.5096C10.7594 17.4208 10.9814 17.4652 11.2478 17.4652C11.2034 17.6872 11.1146 17.8204 10.8482 17.776C10.715 17.8648 10.5818 17.9536 10.4486 17.998Z" fill="#737373"/>
<path d="M13.7782 15.8225C13.7782 15.9113 13.7338 15.9113 13.6894 15.9113L12.535 15.7337C12.4906 15.7337 12.4906 15.7337 12.4906 15.6893C12.535 15.6449 12.5794 15.5561 12.6238 15.4673C12.6238 15.4673 12.6682 15.4673 12.6682 15.4229H12.7126L13.7338 15.7337C13.7338 15.7781 13.7782 15.7781 13.7782 15.8225Z" fill="#737373"/>
<path d="M10.4477 18.5748C10.4477 18.4416 10.4477 18.3084 10.4033 18.2196V18.1752V18.1308C10.4033 18.1308 10.4033 18.0864 10.4477 18.0864H10.4921C10.6697 18.042 10.8029 18.042 10.9805 18.042C11.0249 18.042 11.0249 18.0864 11.0249 18.1308L10.9361 18.3972C10.9361 18.3972 10.9361 18.4416 10.8917 18.4416H10.8473C10.7141 18.486 10.5809 18.5304 10.4477 18.5748Z" fill="#737373"/>
<path d="M10.8033 21.2831C10.8033 21.5939 10.8033 21.5939 10.4925 21.5495C10.4481 21.5495 10.4037 21.5495 10.4037 21.4607C10.4037 21.3719 10.4037 21.2831 10.3593 21.1943V21.1499V21.1055C10.3593 21.1055 10.3593 21.0611 10.4037 21.0611C10.4481 21.0611 10.4481 21.0611 10.4481 21.0611C10.7589 20.9723 10.8033 21.0167 10.8033 21.2831Z" fill="#737373"/>
<path d="M10.4477 19.152C10.4477 19.0632 10.4477 18.9299 10.4033 18.7967C10.4033 18.7523 10.4033 18.7523 10.4033 18.7079C10.4033 18.6635 10.4477 18.6635 10.4477 18.6635C10.5809 18.6191 10.7141 18.6191 10.8473 18.6191C10.8917 18.6191 10.8917 18.6191 10.8917 18.6635C10.8917 18.6635 10.8917 18.7079 10.8917 18.6635C10.8473 18.9744 10.7141 19.1076 10.4477 19.152Z" fill="#737373"/>
<path d="M10.4477 20.3067C10.4477 20.1735 10.4477 20.0403 10.4033 19.9515C10.3589 19.8627 10.4033 19.8627 10.4477 19.8183C10.5365 19.7739 10.6253 19.7295 10.7586 19.7295C10.803 19.7295 10.803 19.7739 10.803 19.8183V20.1291C10.803 20.1735 10.803 20.1735 10.7586 20.2179L10.4477 20.3067Z" fill="#737373"/>
<path d="M10.803 20.5286V20.6618C10.803 20.7062 10.803 20.7062 10.7586 20.7506C10.6697 20.7506 10.5809 20.795 10.4921 20.8394C10.4477 20.8838 10.4477 20.8394 10.4477 20.795C10.4477 20.7506 10.4477 20.6174 10.4033 20.5286C10.3589 20.4397 10.4033 20.4397 10.4477 20.3953C10.4921 20.3953 10.5365 20.3509 10.5365 20.3509C10.8474 20.3065 10.803 20.2621 10.803 20.5286Z" fill="#737373"/>
<path d="M10.4477 19.7296C10.4477 19.5964 10.4477 19.5076 10.4033 19.4188V19.3744V19.33C10.4033 19.33 10.4033 19.2856 10.4477 19.2856H10.4921H10.5809C10.6697 19.2856 10.8029 19.1968 10.8473 19.2856C10.8917 19.4188 10.8917 19.5076 10.8473 19.6408C10.8473 19.7296 10.6697 19.6852 10.6253 19.774C10.5365 19.7296 10.4921 19.7296 10.4477 19.7296Z" fill="#737373"/>
<path d="M13.4673 15.3338L12.8901 15.245C12.8457 15.245 12.8457 15.2006 12.8901 15.2006C12.8901 15.1562 12.9345 15.0674 13.0233 15.0674C13.2009 15.0674 13.3341 15.1562 13.5117 15.2006C13.5561 15.2006 13.5561 15.245 13.5117 15.245C13.5117 15.3338 13.4673 15.3338 13.4673 15.3338Z" fill="#737373"/>
<path d="M12.3601 9.82774V7.96289L4.54547 12.4918L6.18832 13.4242L12.3601 9.82774Z" fill="#737373"/>
<path d="M6.18832 20.6172L4.54547 21.5496L12.3601 26.0785V24.1693L6.18832 20.6172Z" fill="#737373"/>
<path d="M18.5764 20.6172L12.3602 24.1693V26.0785L20.1749 21.5496L18.5764 20.6172Z" fill="#737373"/>
<path d="M18.5764 13.4242L20.1749 12.4918L12.3602 7.96289V9.82774L18.5764 13.4242Z" fill="#737373"/>
<path d="M6.14392 20.6176V13.4246H6.18832L4.54547 12.4922V21.55L6.18832 20.6176H6.14392Z" fill="#737373"/>
<path d="M18.5765 20.6176L20.1749 21.55V12.4922L18.5765 13.4246V20.6176Z" fill="#737373"/>
</svg>
