<svg width="100" height="33" viewBox="0 0 100 33" fill="none" xmlns="http://www.w3.org/2000/svg">
<path d="M78.1575 14.5098C78.0991 14.8981 77.9239 16.102 77.8383 16.7001C79.8891 16.1407 81.8884 15.4079 83.8146 14.5098H78.1575Z" fill="#737373"/>
<path d="M49.3812 19.306L51.3552 17.4574C52.2521 17.713 53.1618 17.9217 54.0805 18.0826C53.7807 16.2962 53.5199 14.7311 53.477 14.502H50.3896C50.2105 14.8903 46.6832 22.8168 46.2666 23.7255H48.7427C48.879 23.4148 49.7083 21.4342 49.7083 21.4342H52.2896C52.2896 21.4342 52.5465 23.376 52.5972 23.7294H55.0616C55.0032 23.4304 54.7735 22.0439 54.4971 20.4283C56.2413 20.5216 58.0011 20.541 59.6091 20.5177C59.6937 20.6499 59.7383 20.8036 59.7376 20.9604C59.7412 21.016 59.7412 21.0718 59.7376 21.1274C59.7223 21.2276 59.6868 21.3236 59.6333 21.4097C59.5797 21.4958 59.5093 21.5702 59.4261 21.6284C59.0666 21.816 58.6491 21.8604 58.2581 21.7527C57.4794 21.6129 56.8448 21.0187 56.3387 20.5216C56.0194 21.0381 55.3497 22.1177 55.1395 22.4634C55.9604 23.2631 57.0087 23.7906 58.1413 23.9741C59.1694 24.1455 60.224 23.91 61.0808 23.3178C61.4244 23.0616 61.7128 22.7392 61.9288 22.3695C62.1449 21.9999 62.2841 21.5907 62.3383 21.1662C62.3815 20.9241 62.3985 20.678 62.3889 20.4322C64.1293 20.3584 65.5776 20.2497 66.5042 20.1643C66.6383 20.247 66.7505 20.3609 66.8311 20.4961C66.9118 20.6313 66.9586 20.7839 66.9675 20.941C66.9731 20.9965 66.9731 21.0525 66.9675 21.108C66.9522 21.2082 66.9168 21.3042 66.8632 21.3903C66.8097 21.4764 66.7392 21.5508 66.656 21.609C66.3024 21.7927 65.8924 21.8371 65.5075 21.7332C64.7288 21.5934 64.0903 20.9992 63.5842 20.5021C63.2649 21.0187 62.6031 22.0983 62.385 22.4439C63.207 23.2444 64.2567 23.772 65.3907 23.9547C66.4062 24.1246 67.4483 23.8964 68.299 23.3178C68.6426 23.0616 68.9311 22.7392 69.1471 22.3695C69.3632 21.9999 69.5024 21.5907 69.5566 21.1662C69.6412 20.7189 69.6239 20.2584 69.506 19.8186L70.6428 19.6439C70.3586 21.5857 70.1055 23.3877 70.0549 23.7255H76.0273C76.0818 23.3372 76.2337 22.2498 76.3038 21.7332H72.6946L72.9399 20.0322H76.2181C76.2687 19.6788 76.3855 18.8671 76.4634 18.3428C76.9111 18.203 77.133 18.1176 77.133 18.1176C77.133 18.1176 78.2465 17.7875 79.6793 17.2554C79.4729 18.6963 78.8422 23.1119 78.7527 23.7255H81.3379C81.4118 23.1818 82.3307 16.7972 82.3307 16.7972H84.2034C84.2618 16.4088 84.4408 15.135 84.5226 14.5602C74.6763 19.6672 59.8466 20.6109 49.3851 19.306" fill="#737373"/>
<path d="M95.4541 2.71875C93.9668 8.85486 88.6368 12.1987 85.4988 13.9812L85.3664 13.7987C86.659 12.754 91.0624 9.52673 92.4756 4.1285L95.4541 2.71875Z" fill="#737373"/>
<path d="M20.555 14.502H18.0127C17.9309 15.0806 16.7902 22.9877 16.6851 23.7255H19.243C19.3286 23.1624 20.4616 15.2437 20.5706 14.502" fill="#737373"/>
<path d="M37.5425 23.7256H43.511C43.5694 23.3372 43.7251 22.2498 43.7991 21.7333H40.1783L40.4275 20.0322H43.7095C43.764 19.6439 43.9042 18.6769 43.9782 18.1759H40.6961L40.9336 16.4982H44.4376C44.4999 16.0865 44.6517 15.0185 44.7257 14.5059H38.8506C38.7689 15.0612 37.632 22.9877 37.523 23.7256" fill="#737373"/>
<path d="M12.7877 14.502C12.6203 14.9253 10.4906 19.7876 10.4906 19.7876L9.76644 14.502H6.67901C6.53885 14.9796 4.78684 22.9061 4.54546 23.7255H6.83864C7.30973 21.8731 8.17795 17.5584 8.23635 17.2671L9.05395 23.7255H10.8799C11.0473 23.3372 13.6403 17.2671 13.6403 17.2671L13.251 23.7255H15.5558C15.5558 23.0731 15.9763 15.1505 15.9763 14.502H12.7877Z" fill="#737373"/>
<path d="M30.7367 23.7256C30.8652 23.4149 31.5154 21.8614 31.5154 21.8614H34.3965C34.3965 21.8614 34.5561 23.3683 34.6106 23.7295H37.0557C36.9155 22.9722 35.584 15.0496 35.4983 14.5098H32.407C32.2279 14.8981 28.7005 22.8207 28.2839 23.7295L30.7367 23.7256ZM33.649 16.5331L34.1201 19.9546H32.1734L33.649 16.5331Z" fill="#737373"/>
<path d="M26.2012 19.8381C27.3303 19.6245 28.214 19.2944 28.436 17.5467C28.4674 17.3384 28.4843 17.1282 28.4866 16.9176C28.5113 16.3558 28.3315 15.8041 27.9804 15.3641C27.3614 14.6612 26.3102 14.5059 25.5315 14.5059H22.0275C21.9691 15.0806 20.8245 22.9877 20.7155 23.7256H23.0515C23.0904 23.4421 23.4135 21.2051 23.6939 19.2478L25.6133 23.7256H28.0856L26.2012 19.8381ZM25.4225 18.44C25.1611 18.5831 24.8681 18.6592 24.5699 18.6613H23.7601C23.9547 17.3137 24.1066 16.2341 24.1066 16.2341H24.6945C24.891 16.2112 25.0901 16.231 25.2782 16.292C25.4664 16.353 25.6391 16.4538 25.7846 16.5875C25.8849 16.7162 25.9551 16.8656 25.9901 17.0249C26.0252 17.1841 26.0241 17.3491 25.987 17.5079C25.987 17.5079 25.9092 18.2147 25.4459 18.44" fill="#737373"/>
<path d="M68.2991 18.3578C68.1628 18.2763 67.1778 17.7831 67.1778 17.7831C66.952 17.6743 66.4536 17.3714 66.4536 16.8743C66.4508 16.7624 66.4731 16.6514 66.5189 16.5492C66.5647 16.4471 66.6328 16.3564 66.7184 16.284C66.8418 16.1924 66.9837 16.1287 67.1343 16.0972C67.2849 16.0657 67.4405 16.0671 67.5905 16.1015C68.1517 16.2391 68.6654 16.5248 69.0777 16.9287C69.3425 16.4277 69.8564 15.4646 70.0199 15.1228C69.407 14.605 68.6588 14.2723 67.863 14.1635C67.3476 14.071 66.8189 14.0806 66.3072 14.1919C65.7954 14.3031 65.3107 14.5139 64.8807 14.8121C64.5528 15.0619 64.28 15.3763 64.079 15.7357C63.8781 16.0952 63.7534 16.492 63.7127 16.9015C63.6954 17.0432 63.6876 17.1859 63.6893 17.3287C63.6843 17.766 63.7973 18.1965 64.0164 18.5753C65.3946 18.5443 66.8429 18.4705 68.2991 18.3578Z" fill="#737373"/>
<path d="M61.4042 18.5954C60.9304 18.2979 60.4375 18.0319 59.9286 17.7993C59.7145 17.6789 59.2044 17.3876 59.2044 16.8905C59.2035 16.7789 59.2266 16.6684 59.2723 16.5665C59.318 16.4647 59.3851 16.3738 59.4692 16.3002C59.5944 16.2091 59.7377 16.1457 59.8894 16.1143C60.0411 16.0828 60.1978 16.0839 60.3491 16.1176C60.9122 16.2583 61.428 16.545 61.8441 16.9487C62.1011 16.4439 62.6228 15.4807 62.7863 15.139C62.1706 14.6232 61.4218 14.2908 60.6255 14.1797C60.1098 14.0864 59.5807 14.096 59.0688 14.208C58.5569 14.32 58.0724 14.5321 57.6432 14.8322C57.3158 15.0815 57.0432 15.3953 56.8423 15.754C56.6414 16.1128 56.5164 16.5088 56.4752 16.9177C56.4599 17.0596 56.4521 17.2022 56.4518 17.3449C56.446 17.7171 56.5189 18.0863 56.666 18.4284C56.7244 18.4284 59.4847 18.6342 61.3925 18.6109" fill="#737373"/>
<path d="M73.4425 16.4942H76.9465C77.001 16.1059 77.1567 15.0185 77.2307 14.502H71.3829C71.344 14.7466 71.1143 16.3156 70.8573 18.0943C71.6749 17.9894 72.4769 17.8768 73.2634 17.7331L73.4425 16.4942Z" fill="#737373"/>
<path d="M7.61707 28.0433C7.56257 27.4259 7.17323 27.1191 6.49579 27.1191C6.24318 27.1103 5.9933 27.1736 5.77552 27.3016C5.67767 27.3649 5.59908 27.4538 5.54828 27.5585C5.49749 27.6633 5.47644 27.7799 5.48741 27.8958C5.48185 27.9681 5.49299 28.0407 5.51999 28.108C5.54699 28.1754 5.58913 28.2356 5.64315 28.2841C5.76377 28.3888 5.906 28.4657 6.05974 28.5094C6.24408 28.5656 6.43121 28.6122 6.62038 28.6492C6.82673 28.688 7.02918 28.7346 7.23553 28.7929C7.43196 28.8458 7.62243 28.9187 7.80396 29.0104C7.97414 29.1003 8.11675 29.2345 8.21665 29.3987C8.3255 29.5845 8.37948 29.7973 8.37239 30.0123C8.37824 30.2273 8.32433 30.4397 8.21665 30.626C8.11619 30.7991 7.97273 30.9436 7.80006 31.0454C7.62359 31.1478 7.43355 31.2249 7.23553 31.2745C7.03172 31.3246 6.82249 31.3494 6.61259 31.3483C6.13507 31.3728 5.66322 31.236 5.27328 30.9599C5.09867 30.8218 4.95982 30.6439 4.86837 30.4412C4.77692 30.2385 4.73553 30.0168 4.74768 29.7949H5.31611C5.30772 29.9513 5.33899 30.1073 5.40704 30.2485C5.47509 30.3897 5.57772 30.5115 5.70544 30.6027C5.97932 30.7919 6.30683 30.8885 6.63985 30.8784C6.92323 30.8884 7.20414 30.8227 7.45356 30.6881C7.56311 30.6256 7.65246 30.5332 7.7111 30.4217C7.76973 30.3102 7.7952 30.1844 7.78449 30.0589C7.78742 29.9828 7.77517 29.9069 7.74843 29.8356C7.7217 29.7642 7.68102 29.6989 7.62875 29.6434C7.51285 29.5272 7.36964 29.4417 7.21217 29.3949C7.02907 29.3323 6.84171 29.283 6.65152 29.2473C6.44518 29.2046 6.24272 29.1579 6.03638 29.1036C5.84168 29.0535 5.65154 28.9873 5.46795 28.9055C5.30138 28.8263 5.15894 28.7044 5.05525 28.5521C4.94586 28.3835 4.89021 28.1858 4.89563 27.9851C4.88604 27.7945 4.92534 27.6046 5.00981 27.4333C5.09429 27.2621 5.22115 27.1152 5.3784 27.0064C5.72157 26.7723 6.13089 26.6539 6.5464 26.6686C6.96458 26.6514 7.37625 26.776 7.71441 27.022C7.86987 27.1532 7.99365 27.3178 8.07656 27.5033C8.15947 27.6889 8.19937 27.8908 8.19329 28.0938L7.61707 28.0433Z" fill="#737373"/>
<path d="M11.7868 30.1916C11.735 30.5107 11.5673 30.7996 11.3157 31.0033C11.0474 31.1984 10.7208 31.2969 10.3891 31.2829C10.1758 31.2965 9.96211 31.262 9.76397 31.182C9.56583 31.102 9.38827 30.9785 9.24444 30.8208C8.96316 30.4667 8.81447 30.0258 8.82396 29.5741C8.80777 29.1289 8.96231 28.6942 9.25612 28.3586C9.39511 28.2063 9.56567 28.0861 9.75595 28.0063C9.94623 27.9265 10.1517 27.889 10.3579 27.8964C10.5638 27.893 10.768 27.9327 10.9575 28.0129C11.1229 28.0832 11.2705 28.1893 11.3897 28.3236C11.5031 28.4561 11.5951 28.6055 11.6622 28.7664C11.7311 28.927 11.7807 29.0951 11.8102 29.2673C11.8391 29.4288 11.8508 29.5928 11.8452 29.7567H9.39239C9.37183 30.0373 9.45958 30.3152 9.63767 30.5334C9.7346 30.6416 9.85534 30.726 9.99044 30.7799C10.1255 30.8338 10.2713 30.8558 10.4163 30.8441C10.6124 30.8648 10.809 30.8106 10.9665 30.6924C11.124 30.5742 11.2307 30.4008 11.2651 30.2072L11.7868 30.1916ZM11.269 29.2829C11.2584 29.0359 11.1557 28.8018 10.9809 28.6265C10.8957 28.5403 10.7938 28.4723 10.6813 28.4269C10.5688 28.3815 10.4481 28.3595 10.3268 28.3625C10.2048 28.3585 10.0832 28.38 9.96995 28.4254C9.85667 28.4709 9.75412 28.5394 9.66882 28.6265C9.50045 28.805 9.4023 29.038 9.39239 29.2829H11.269Z" fill="#737373"/>
<path d="M14.598 29.0143C14.5764 28.8218 14.4798 28.6455 14.329 28.5235C14.1782 28.4014 13.9854 28.3434 13.7921 28.3619C13.642 28.3492 13.4912 28.3758 13.3546 28.4392C13.218 28.5025 13.1004 28.6004 13.0134 28.7231C12.8439 28.9966 12.7598 29.3143 12.772 29.6357C12.764 29.9371 12.8482 30.2338 13.0134 30.4862C13.1252 30.6258 13.2759 30.7295 13.4464 30.7841C13.617 30.8388 13.7999 30.8421 13.9724 30.7936C14.1448 30.7451 14.2991 30.647 14.4159 30.5115C14.5327 30.376 14.6069 30.2092 14.6291 30.0318H15.1781C15.1447 30.3896 14.983 30.7234 14.7226 30.9717C14.4105 31.2013 14.0274 31.3142 13.6403 31.2908C13.2532 31.2674 12.8866 31.1091 12.6046 30.8435C12.3291 30.503 12.1903 30.0726 12.2153 29.6357C12.1942 29.1839 12.3319 28.7388 12.6046 28.3774C12.745 28.2153 12.921 28.0876 13.1188 28.0041C13.3165 27.9206 13.5309 27.8836 13.7454 27.8959C14.0902 27.8826 14.4302 27.9807 14.7148 28.1755C14.8455 28.2753 14.9526 28.4025 15.0286 28.5481C15.1046 28.6937 15.1477 28.8542 15.1547 29.0182L14.598 29.0143Z" fill="#737373"/>
<path d="M18.4648 31.2242H17.9587V30.7077C17.8568 30.8944 17.7041 31.0486 17.518 31.1524C17.332 31.2561 17.1203 31.3053 16.9075 31.2941C16.7471 31.3156 16.5839 31.3006 16.4301 31.2501C16.2764 31.1997 16.1361 31.1151 16.0198 31.0028C15.8339 30.7492 15.743 30.4386 15.7629 30.1251V27.9658H16.3001V30.1717C16.2929 30.2604 16.3053 30.3496 16.3363 30.433C16.3673 30.5164 16.4163 30.5921 16.4797 30.6546C16.5432 30.7171 16.6196 30.7651 16.7036 30.795C16.7875 30.825 16.8771 30.8363 16.9659 30.828C17.0993 30.8378 17.2331 30.8177 17.3577 30.7694C17.4823 30.721 17.5945 30.6455 17.6862 30.5484C17.86 30.3413 17.9489 30.0764 17.9354 29.8067V27.9658H18.4648V31.2242Z" fill="#737373"/>
<path d="M19.2418 27.9666H19.7479V28.6734C19.8503 28.4354 20.0175 28.2309 20.2307 28.0831C20.448 27.9434 20.7049 27.878 20.9627 27.8967V28.4637C20.7965 28.4472 20.6289 28.4687 20.4723 28.5266C20.3158 28.5845 20.1746 28.6772 20.0594 28.7977C19.8529 29.0821 19.7536 29.43 19.7791 29.7802V31.2288H19.2418V27.9666Z" fill="#737373"/>
<path d="M21.9258 27.38H21.3885V26.7314H21.9258V27.38ZM21.3885 27.9664H21.9258V31.2248H21.3885V27.9664Z" fill="#737373"/>
<path d="M23.4898 27.966H24.1399V28.4398H23.4898V30.4631C23.4898 30.5874 23.517 30.669 23.5676 30.7C23.6701 30.7461 23.7828 30.7648 23.8947 30.7544H24.1399V31.2243H23.7506C23.5357 31.2469 23.3194 31.1977 23.1355 31.0845C23.0689 31.0063 23.0193 30.9153 22.9898 30.817C22.9603 30.7187 22.9516 30.6154 22.9642 30.5136V28.4398H22.3957V27.966H22.9525V26.9873H23.4898V27.966Z" fill="#737373"/>
<path d="M25.2944 27.38H24.7571V26.7314H25.2944V27.38ZM24.7571 27.9664H25.2944V31.2248H24.7571V27.9664Z" fill="#737373"/>
<path d="M28.9019 30.1916C28.8487 30.5101 28.6813 30.7986 28.4308 31.0032C28.1619 31.1972 27.8357 31.2956 27.5042 31.2828C27.2871 31.2994 27.069 31.2664 26.8667 31.1863C26.6643 31.1062 26.4828 30.9812 26.3362 30.8207C26.0591 30.4643 25.9109 30.025 25.9157 29.5741C25.899 29.128 26.0551 28.6927 26.3517 28.3585C26.4927 28.2035 26.6664 28.0816 26.8603 28.0017C27.0542 27.9217 27.2635 27.8858 27.473 27.8963C27.6788 27.8929 27.8831 27.9326 28.0726 28.0128C28.2363 28.0842 28.3824 28.1902 28.5009 28.3235C28.6156 28.4551 28.7077 28.6047 28.7734 28.7663C28.8423 28.9269 28.8919 29.095 28.9213 29.2672C28.9492 29.4301 28.9597 29.5954 28.9525 29.7605H26.5036C26.4825 30.0418 26.5718 30.3203 26.7527 30.5372C26.8493 30.6459 26.97 30.7306 27.1052 30.7846C27.2404 30.8385 27.3863 30.8602 27.5314 30.8479C27.7268 30.8676 27.9224 30.8129 28.0791 30.6947C28.2358 30.5766 28.3419 30.4038 28.3763 30.211L28.9019 30.1916ZM28.3841 29.2828C28.3717 29.0362 28.2692 28.8027 28.096 28.6265C28.0108 28.5402 27.9088 28.4722 27.7963 28.4268C27.6838 28.3814 27.5632 28.3594 27.4419 28.3624C27.3197 28.3577 27.198 28.3788 27.0846 28.4243C26.9712 28.4698 26.8688 28.5387 26.7839 28.6265C26.6159 28.8055 26.5166 29.0379 26.5036 29.2828H28.3841Z" fill="#737373"/>
<path d="M29.8254 30.1992C29.8223 30.2948 29.8444 30.3897 29.8895 30.4742C29.9346 30.5586 30.0011 30.6299 30.0824 30.6807C30.2715 30.7848 30.4855 30.8358 30.7014 30.8283C31.227 30.8283 31.4801 30.6652 31.4801 30.3429C31.4813 30.2813 31.4678 30.2203 31.4407 30.1649C31.4137 30.1095 31.3738 30.0614 31.3243 30.0244C31.2092 29.9387 31.0761 29.8803 30.935 29.8535C30.7741 29.8225 30.6028 29.7836 30.4211 29.737C30.2394 29.6904 30.0681 29.6399 29.9072 29.5856C29.7541 29.5318 29.6192 29.4362 29.5178 29.3098C29.4123 29.1675 29.3588 28.9935 29.366 28.8166C29.3627 28.6771 29.397 28.5393 29.4656 28.4177C29.5341 28.296 29.6342 28.195 29.7553 28.1253C30.011 27.9671 30.3071 27.8862 30.608 27.8923C30.9403 27.8737 31.2708 27.9534 31.5579 28.1214C31.6795 28.2112 31.7781 28.3284 31.8458 28.4633C31.9134 28.5983 31.9482 28.7473 31.9473 28.8982H31.41C31.41 28.8138 31.3882 28.7308 31.3466 28.6573C31.305 28.5838 31.245 28.5223 31.1725 28.4787C31.0145 28.3867 30.8337 28.3409 30.6508 28.3467C30.4807 28.3412 30.3116 28.3744 30.1563 28.4438C30.0941 28.4696 30.0414 28.5141 30.0058 28.5712C29.9702 28.6283 29.9534 28.6951 29.9578 28.7622C29.9519 28.8009 29.9519 28.8401 29.9578 28.8787C29.9715 28.9151 29.9928 28.9481 30.0201 28.9758L30.1057 29.0496C30.1421 29.078 30.1829 29.1003 30.2264 29.1156L30.3588 29.17C30.4081 29.1894 30.4589 29.205 30.5106 29.2166L30.6703 29.2555L30.8416 29.2943L31.009 29.3331C31.1412 29.3601 31.2713 29.3964 31.3983 29.4419C31.5137 29.4838 31.6245 29.5371 31.7292 29.6011C31.8371 29.665 31.9248 29.7579 31.9823 29.8691C32.0419 29.9897 32.0713 30.123 32.068 30.2574C32.0781 30.4825 31.9998 30.7026 31.8499 30.871C31.7144 31.0251 31.5374 31.137 31.3399 31.1934C31.1245 31.2533 30.9016 31.2821 30.678 31.2788C30.3331 31.2952 29.9917 31.2043 29.7008 31.0186C29.5735 30.9209 29.4716 30.7939 29.4038 30.6486C29.3361 30.5033 29.3044 30.3438 29.3115 30.1836L29.8254 30.1992Z" fill="#737373"/>
</svg>
