<svg width="100" height="33" viewBox="0 0 100 33" fill="none" xmlns="http://www.w3.org/2000/svg">
<path d="M9.51333 7.90037C9.10338 7.9372 8.6823 8.0035 8.36324 8.08269C8.22226 8.11768 7.89208 8.21529 7.8253 8.24291C7.80118 8.25212 7.73069 8.2779 7.66762 8.29816C7.48583 8.35894 7.05919 8.51732 6.99983 8.54863C6.74384 8.67754 6.50269 8.92432 6.39882 9.16558C6.29308 9.41051 6.28195 9.63336 6.35986 9.9317C6.4118 10.1288 6.40994 10.1748 6.28566 11.3516C6.26526 11.5395 6.24485 11.7291 6.24114 11.7752C6.23558 11.8212 6.21888 11.9778 6.20219 12.1251C6.16138 12.4934 6.10202 13.0551 6.09274 13.1656C6.08347 13.2559 6.03709 13.6905 5.94434 14.5469C5.91837 14.7789 5.89426 15.0165 5.88869 15.0717C5.88313 15.127 5.84974 15.429 5.8145 15.7439C5.77925 16.057 5.74586 16.3646 5.7403 16.4253C5.73473 16.4861 5.71804 16.6353 5.7032 16.7568C5.67723 16.9686 5.65868 17.1344 5.64569 17.2541C5.64198 17.2835 5.62714 17.4125 5.61045 17.5395C5.59561 17.6666 5.56964 17.8858 5.55294 18.0276C5.53625 18.1694 5.51955 18.3093 5.51584 18.3407C5.49358 18.5322 5.42495 19.0442 5.39527 19.2707C5.37486 19.418 5.35446 19.5709 5.35075 19.6114C5.34518 19.6519 5.3322 19.7385 5.32292 19.8048C5.3118 19.8711 5.30067 19.9539 5.2951 19.9889C5.27841 20.116 5.17267 20.7753 5.13557 20.9926C5.11331 21.1142 5.0892 21.2541 5.07992 21.3057C5.0725 21.3554 5.0521 21.4678 5.0354 21.5543C5.02056 21.6409 5.00201 21.7348 4.9983 21.7643C4.99274 21.7937 4.97975 21.86 4.97048 21.9116C4.95935 21.9632 4.94822 22.0258 4.94265 22.0516C4.93338 22.1142 4.90926 22.2376 4.89999 22.2818C4.87958 22.3849 4.84063 22.5838 4.83321 22.6317C4.8128 22.7496 4.74788 23.0958 4.72933 23.175C4.67925 23.3978 4.55682 24.1621 4.54754 24.3076C4.52528 24.6888 4.68481 25.1971 4.85176 25.2726C5.03169 25.3536 5.17824 25.2892 5.37857 25.0406C5.45648 24.9448 5.50842 24.8527 5.53625 24.768C5.55109 24.7183 5.56964 24.663 5.5752 24.6483C5.67352 24.3831 5.93507 23.6096 6.04451 23.2578C6.07234 23.1676 6.28566 22.3333 6.30421 22.2394C6.31349 22.1915 6.32647 22.1363 6.33018 22.116C6.33575 22.0958 6.36914 21.954 6.40438 21.8029C6.57875 21.0571 6.66779 20.7072 6.70118 20.6298C6.75683 20.4991 6.857 20.4714 6.98128 20.5543C7.05548 20.6022 7.21501 20.7293 7.2688 20.7808C7.28364 20.7956 7.33929 20.8416 7.38938 20.8821C7.44132 20.9226 7.48583 20.9595 7.4914 20.965C7.5285 21.0037 7.7511 21.1676 7.76594 21.1676C7.77707 21.1676 7.7882 21.1749 7.79191 21.1842C7.80304 21.2155 8.59697 21.7219 8.72496 21.7772C8.76021 21.7937 8.82328 21.8287 8.95313 21.9079C8.98466 21.9282 9.01249 21.9374 9.01249 21.9282C9.01249 21.9208 9.01991 21.9227 9.02733 21.9337C9.04588 21.9613 9.42429 22.1565 9.69883 22.2818C9.82682 22.3389 9.9845 22.4107 10.0513 22.442C10.3017 22.5599 11.1364 22.8932 11.4796 23.0129C11.5353 23.0313 11.6354 23.0663 11.7022 23.0903C12.0157 23.2026 12.2921 23.2947 12.5555 23.3794C13.0211 23.5304 13.253 23.6133 13.5386 23.7311C13.8243 23.849 13.8317 23.8545 14.1304 24.0516C14.2361 24.1216 14.3827 24.2173 14.455 24.2671C14.6869 24.4199 15.1933 24.6575 15.4103 24.7146C15.9538 24.8564 16.3508 24.8803 16.8108 24.803C16.9741 24.7754 17.2746 24.6999 17.3506 24.6685C17.371 24.6593 17.4489 24.6299 17.5231 24.6022C17.8923 24.466 18.4655 24.1105 18.8402 23.7864C18.868 23.7625 18.9199 23.7219 18.9552 23.6943C19.0108 23.6538 19.1425 23.5451 19.2984 23.4107C19.3188 23.3941 19.3985 23.3278 19.4746 23.2634C19.5506 23.2008 19.6174 23.1437 19.623 23.1381C19.6471 23.1124 19.8233 22.9963 19.8641 22.9779C19.9439 22.9448 20.0033 22.9853 20.1387 23.1658C20.3539 23.4549 20.5152 23.6335 20.6414 23.7219C20.9029 23.9024 21.4038 24.0866 21.7488 24.1271C21.9139 24.1455 22.4203 24.1455 22.5594 24.1271C22.8785 24.0829 23.2625 23.9816 23.5463 23.8656C23.5871 23.849 23.6446 23.8251 23.6761 23.814C23.8839 23.7311 24.509 23.3886 24.5405 23.3389C24.5461 23.3278 24.5591 23.3205 24.5665 23.3223C24.5776 23.326 24.7965 23.1713 25.0154 23.0055C25.11 22.9319 25.2566 22.8103 25.3642 22.7146C25.5051 22.5875 26.3584 21.7348 26.351 21.7274C26.3473 21.7238 26.4048 21.6556 26.4809 21.5783C26.5551 21.4991 26.6719 21.3665 26.7406 21.2854C26.8927 21.105 26.9149 21.0884 26.9743 21.1142C27.0077 21.1289 27.0244 21.1621 27.0503 21.2744C27.1004 21.4788 27.106 21.7145 27.0782 22.7054C27.0633 23.1915 27.0522 23.7127 27.0522 23.8656C27.054 24.14 27.054 24.1437 27.1153 24.2652C27.247 24.5304 27.5308 24.7035 27.8906 24.733C28.0761 24.7477 28.2227 24.7183 28.3358 24.6428C28.4787 24.547 28.5195 24.4568 28.59 24.0958C28.6345 23.8656 28.7347 23.372 28.7495 23.3131C28.7699 23.2265 28.8385 22.9098 28.8515 22.8472C28.8868 22.6556 29.1372 21.733 29.1947 21.5819C29.2132 21.5304 29.2522 21.4273 29.28 21.3517C29.3709 21.1013 29.5713 20.6851 29.6362 20.6059C29.6436 20.5948 29.6566 20.5746 29.664 20.5598C29.6714 20.5451 29.6918 20.5101 29.7104 20.4843C29.9107 20.1878 29.9014 20.1989 30.1222 19.9539C30.1871 19.8803 30.3003 19.7716 30.3726 19.7127C30.5192 19.5967 30.8067 19.418 30.8493 19.418C30.8642 19.418 30.8827 19.4125 30.8902 19.4051C30.9087 19.3849 31.0274 19.3462 31.1888 19.3075C31.48 19.2357 32.0235 19.2412 32.1089 19.3186C32.1497 19.3554 32.1553 19.5046 32.1256 19.7679C32.1107 19.9116 32.0848 20.1731 32.0347 20.7164C31.9994 21.0829 31.9234 22.0718 31.9011 22.4383C31.877 22.8472 31.8918 23.0921 31.9531 23.3039C31.9679 23.3591 31.9827 23.4125 31.9846 23.4236C31.9864 23.4328 31.9994 23.4715 32.0124 23.5065C32.2461 24.1124 32.6802 24.4789 33.3128 24.6041C33.4389 24.628 33.8971 24.6336 34.0084 24.6115C34.0696 24.6004 34.1456 24.5857 34.1753 24.582C34.2458 24.5709 34.5129 24.4844 34.5741 24.4549C34.6001 24.442 34.6669 24.4089 34.7225 24.3813C34.8227 24.3315 35.2011 24.0903 35.2828 24.0221C35.3069 24.0037 35.4015 23.9264 35.4924 23.8509C35.7131 23.6722 36.0897 23.2836 36.2585 23.0645C36.3308 22.9687 36.3995 22.8803 36.4069 22.8711C36.4532 22.814 36.6925 22.4475 36.7538 22.337C36.7946 22.2652 36.8354 22.1952 36.8465 22.1768C36.8558 22.1602 36.9022 22.0755 36.9485 21.989C37.0246 21.8435 37.1526 21.6832 37.1915 21.6832C37.2008 21.6832 37.2082 21.698 37.2082 21.7145C37.2082 21.7753 37.262 22.5212 37.275 22.6225C37.2936 22.7919 37.3381 23.0663 37.3659 23.175C37.429 23.4328 37.4568 23.5102 37.5458 23.6906C37.6256 23.849 37.6683 23.9079 37.7833 24.024C37.9428 24.1824 38.1598 24.3113 38.3898 24.3831C38.5865 24.4439 38.6681 24.4549 38.8963 24.4531C39.4861 24.4512 40.0259 24.1326 40.7327 23.3665C41.1018 22.9687 41.1872 22.8748 41.3244 22.7146C41.4506 22.5709 41.6249 22.3775 41.7678 22.2247C41.7808 22.21 41.79 22.1989 41.7863 22.1989C41.7808 22.1989 41.816 22.1584 41.8624 22.1068C41.9088 22.0571 41.9514 22.0203 41.957 22.0295C41.9644 22.0368 41.9867 22.1289 42.0089 22.2357C42.0312 22.3425 42.072 22.5249 42.0961 22.6409C42.1221 22.7569 42.1462 22.8729 42.1518 22.8987C42.1703 23.0111 42.3002 23.4328 42.3373 23.5065C42.3502 23.5323 42.3799 23.5912 42.404 23.6391C42.4281 23.6888 42.4541 23.7275 42.4615 23.7275C42.4708 23.7275 42.4764 23.7385 42.4764 23.7514C42.4764 23.8324 42.9401 24.2247 43.0347 24.2247C43.0551 24.2247 43.07 24.2321 43.07 24.2413C43.07 24.2579 43.2314 24.3186 43.3964 24.3628C43.632 24.4273 43.94 24.4402 44.2572 24.3997C44.5094 24.3665 44.912 24.2155 45.1271 24.07C45.1809 24.0332 45.2292 24.0037 45.2347 24.0037C45.2384 24.0037 45.2904 23.9669 45.3479 23.9227C45.513 23.7974 45.7949 23.4954 45.9229 23.3076C46.0435 23.1271 46.1975 22.8435 46.1715 22.8435C46.1641 22.8435 46.0194 22.9429 45.8524 23.0645C45.4165 23.3794 45.2589 23.4549 44.9157 23.5138C44.5298 23.5801 44.2423 23.5654 44.0568 23.4696C43.747 23.3094 43.5931 22.9208 43.5801 22.2726C43.5708 21.8177 43.632 21.5433 43.9381 20.6888C44.0049 20.5009 44.0865 20.2689 44.1199 20.1731C44.2646 19.7495 44.3147 19.6095 44.3314 19.5746C44.3406 19.5543 44.3647 19.4843 44.387 19.418C44.4074 19.3517 44.4427 19.256 44.4612 19.2062C44.4798 19.1547 44.5224 19.0386 44.5558 18.9484C44.6319 18.7329 44.6244 18.7532 44.6949 18.5524C44.847 18.1289 44.9787 17.7145 44.9899 17.6243C45.0177 17.4014 44.9045 17.1712 44.7209 17.0718C44.5428 16.976 44.3944 17.0055 44.1922 17.1749C44.0884 17.2633 43.8268 17.5211 43.7563 17.604C43.645 17.7348 43.4781 17.9613 43.4206 18.0552C43.3872 18.1104 43.3501 18.1694 43.3389 18.1841C43.2944 18.2375 43.0088 18.7587 42.9457 18.9005C42.8678 19.0718 42.2835 20.2265 42.1573 20.4585C42.0905 20.5801 42.0108 20.7256 41.9811 20.7808C41.79 21.1289 41.484 21.6298 41.4524 21.6427C41.4432 21.6464 41.4376 21.6575 41.4376 21.6685C41.4376 21.709 41.0777 22.0902 40.92 22.2173C40.8755 22.2523 40.8292 22.291 40.8162 22.3039C40.7494 22.3665 40.3951 22.5801 40.2281 22.6575C39.7403 22.884 39.3229 22.9706 39.1226 22.8895C39.0484 22.8582 38.8592 22.6851 38.8592 22.6464C38.8592 22.6335 38.8517 22.6225 38.8406 22.6225C38.8313 22.6225 38.8165 22.6004 38.8109 22.5709C38.8035 22.5433 38.7905 22.512 38.7812 22.5009C38.772 22.488 38.7608 22.4641 38.7571 22.4457C38.7516 22.4254 38.7367 22.361 38.72 22.3002C38.6699 22.1013 38.6347 21.7716 38.6236 21.3978C38.5995 20.5875 38.7182 19.7735 39.0001 18.8011C39.0947 18.4677 39.104 18.4162 39.1077 18.1841C39.1096 17.8692 39.0669 17.604 39.002 17.5359C38.989 17.523 38.9649 17.4898 38.9463 17.4622C38.8629 17.3314 38.6495 17.2946 38.4659 17.3793C38.3082 17.4493 38.017 17.744 37.889 17.9631C37.8092 18.0957 37.4308 18.8803 37.4308 18.9097C37.4308 18.9152 37.403 18.9779 37.3678 19.0497C37.3325 19.1215 37.3028 19.1841 37.301 19.1878C37.2991 19.197 37.2731 19.2541 37.0691 19.7035C36.9893 19.8747 36.9151 20.046 36.9022 20.081C36.878 20.1436 36.789 20.3352 36.6165 20.698C36.5664 20.7993 36.4829 20.9779 36.4273 21.0939C36.0804 21.8287 35.7354 22.3002 35.2605 22.6814C34.9173 22.9577 34.5259 23.0645 34.1735 22.9761C34.0306 22.9411 33.8674 22.8748 33.8192 22.8343C33.8062 22.8251 33.7598 22.7864 33.7153 22.7514C33.4908 22.5691 33.3591 22.2928 33.2849 21.8471C33.2441 21.5875 33.2423 20.9797 33.2849 20.6409C33.3165 20.3867 33.4111 19.9024 33.5075 19.5009C33.5224 19.4401 33.5502 19.3204 33.5706 19.2339C33.591 19.1473 33.6337 18.9742 33.6634 18.8471C33.8247 18.1786 33.9305 17.6353 33.9138 17.558C33.9064 17.523 33.8989 17.4824 33.8952 17.4677C33.886 17.4161 33.8192 17.3462 33.7301 17.2909C33.6448 17.2393 33.63 17.2357 33.4445 17.2357C33.2645 17.2357 33.2386 17.2412 33.1365 17.2891C32.9863 17.3627 32.8676 17.4898 32.7711 17.6813C32.6765 17.8692 32.5856 17.9576 32.4706 17.9705C32.4298 17.976 32.2907 17.9852 32.1664 17.9907C31.3984 18.0294 30.6972 18.2817 30.0814 18.7421C29.894 18.8839 29.5917 19.1897 29.4303 19.4033C29.1966 19.7127 28.9999 20.0718 28.8126 20.5322C28.731 20.7366 28.6772 20.849 28.6326 20.9153C28.6141 20.9429 28.6048 20.965 28.6122 20.965C28.6178 20.965 28.6141 20.9779 28.6011 20.9926C28.5881 21.0074 28.5714 21.0202 28.564 21.0202C28.5436 21.0202 28.4972 20.7477 28.462 20.4309C28.4453 20.2836 28.4156 20.0479 28.3952 19.9061C28.347 19.5727 28.2709 19.0718 28.2579 19.0129C28.2524 18.9871 28.2449 18.9245 28.2375 18.8747C28.2245 18.7513 28.1318 18.2136 28.0613 17.8342C28.0242 17.6445 28.0149 17.6132 27.9556 17.4843C27.9073 17.3848 27.733 17.2209 27.6087 17.1602C27.4584 17.0883 27.2655 17.0847 27.1283 17.1546C27.0336 17.2007 26.9001 17.3406 26.8871 17.4033C26.8815 17.4217 26.863 17.4714 26.8444 17.5119C26.8148 17.5782 26.811 17.6279 26.8203 18.046C26.837 18.9337 26.8315 19.2486 26.7944 19.418C26.7443 19.6611 26.6608 19.8895 26.5124 20.2026C26.4771 20.2744 26.4493 20.3425 26.4493 20.3536C26.4493 20.3646 26.4382 20.3849 26.4271 20.3978C26.4141 20.4107 26.3825 20.4585 26.3584 20.5046C26.3065 20.6004 26.0765 20.9687 26.0598 20.9834C26.0542 20.9889 26.0171 21.035 25.9763 21.0884C25.9355 21.14 25.8836 21.2063 25.8613 21.2357C25.839 21.2633 25.7815 21.3296 25.7314 21.3812C25.6832 21.4346 25.6201 21.5028 25.5923 21.5341C25.5645 21.5654 25.5367 21.5912 25.5293 21.5912C25.5237 21.5912 25.4959 21.6133 25.468 21.6427C25.3734 21.7348 25.3011 21.7919 25.1156 21.9263C24.8448 22.1234 24.778 22.1676 24.7001 22.2026C24.6611 22.221 24.6055 22.2505 24.5795 22.2689C24.4886 22.3315 24.062 22.5157 23.8208 22.5949C23.6335 22.6575 23.2142 22.7661 23.0454 22.7956C22.7078 22.8545 22.3647 22.8545 22.1458 22.7974C21.925 22.7385 21.6802 22.5764 21.5596 22.4088C21.4168 22.21 21.324 21.9282 21.2906 21.5838C21.2257 20.9079 21.3908 20.2154 21.7469 19.6666C21.7933 19.5948 21.836 19.523 21.8415 19.5064C21.849 19.488 21.8601 19.4733 21.8675 19.4733C21.8749 19.4733 21.9176 19.4217 21.9621 19.3591C22.0437 19.2412 22.4648 18.8121 22.6002 18.7053C22.641 18.6722 22.7245 18.6059 22.7876 18.558C22.8989 18.4696 23.3626 18.1362 23.422 18.1012C23.4387 18.0902 23.5314 18.0294 23.626 17.9631C23.7225 17.8968 23.8282 17.825 23.8616 17.8029C23.895 17.7808 23.9284 17.7532 23.9358 17.7421C23.9432 17.7292 23.9136 17.6482 23.869 17.5616C23.7577 17.3406 23.5778 17.162 23.3997 17.092C23.1567 16.9944 22.8822 17.0073 22.4982 17.1344C21.7915 17.3664 21.2387 17.7274 20.7341 18.2891C20.5839 18.4548 20.3149 18.8305 20.2147 19.0147C20.02 19.372 19.8549 19.7808 19.7825 20.0865C19.7658 20.1547 19.7399 20.2633 19.725 20.3259C19.6397 20.6851 19.6119 21.2854 19.6415 22.1529C19.6527 22.442 19.6415 22.4862 19.5358 22.617C19.5006 22.6612 19.4208 22.7348 19.3577 22.7827C19.2947 22.8306 19.2409 22.8766 19.2372 22.884C19.2334 22.8914 19.2186 22.8987 19.2056 22.8987C19.1926 22.8987 19.1778 22.9043 19.1741 22.9116C19.1685 22.9264 19.0312 23.0203 18.9608 23.0589C18.8513 23.116 18.7957 23.1492 18.7697 23.1676C18.7215 23.2026 18.3097 23.3776 18.1594 23.4254C17.9238 23.5028 17.6771 23.5599 17.4823 23.582C17.1392 23.6207 16.5307 23.582 16.3341 23.5083C16.3063 23.4973 16.284 23.4917 16.284 23.4973C16.284 23.512 15.9705 23.3904 15.8184 23.3149C15.6107 23.2118 15.5476 23.175 15.3473 23.0258C15.0653 22.8177 14.9855 22.7256 14.9855 22.6077C14.9855 22.5341 15.0579 22.4291 15.1803 22.3278C15.21 22.302 15.3268 22.2026 15.44 22.1068C15.5513 22.0111 15.6682 21.9116 15.6978 21.8858C15.8351 21.7716 16.1393 21.4972 16.2655 21.3775C16.3415 21.3039 16.4306 21.221 16.4621 21.1915C16.5752 21.0884 17.0353 20.5893 17.0965 20.5027C17.1095 20.4843 17.1429 20.4457 17.1707 20.4162C17.3061 20.2725 17.7383 19.6722 17.7402 19.6224C17.742 19.6169 17.7624 19.5782 17.7884 19.5377C17.9238 19.3296 18.1242 18.8232 18.1854 18.5359C18.241 18.2707 18.2169 18.0202 18.113 17.8066C17.9498 17.4659 17.5992 17.2633 17.0631 17.197C16.8257 17.1675 16.3285 17.1786 16.1412 17.2172C15.7609 17.2964 15.338 17.4677 15.0597 17.6556C14.8909 17.7697 14.7258 17.895 14.7258 17.9097C14.7258 17.9189 14.7147 17.9263 14.7036 17.9263C14.6795 17.9263 14.6535 17.9502 14.3827 18.2154C13.9875 18.604 13.7297 18.9558 13.5034 19.4217C13.3198 19.7956 13.227 20.0479 13.138 20.4125C13.073 20.6777 13.0063 21.0847 12.9914 21.2965C12.9673 21.6924 12.9506 21.7937 12.8987 21.8582C12.843 21.9337 12.7707 21.9503 12.6056 21.9319C12.4516 21.9134 12.4683 21.919 12.1845 21.814C12.0472 21.7643 11.8766 21.7017 11.8042 21.674C11.7337 21.6482 11.6224 21.6022 11.5575 21.5727C11.4926 21.5414 11.4369 21.5175 11.4314 21.5175C11.3776 21.5175 10.246 20.9503 10.0327 20.8177C10.0179 20.8085 9.98079 20.7864 9.94925 20.7698C9.91957 20.7514 9.81198 20.6851 9.71181 20.6225C9.61164 20.558 9.52817 20.5046 9.52446 20.5046C9.51148 20.5046 8.73609 19.976 8.71569 19.9539C8.71012 19.9484 8.60253 19.8655 8.47454 19.7698C8.11096 19.499 7.62125 18.9852 7.52293 18.7698C7.41906 18.5451 7.50067 18.3388 7.75852 18.1749C7.81417 18.1399 7.86425 18.1104 7.86982 18.1104C7.87538 18.1104 7.92361 18.0902 7.97741 18.0662C8.1258 17.9999 8.24638 17.9576 8.64149 17.8342C8.83997 17.7734 9.04031 17.709 9.08668 17.6924C9.13306 17.674 9.17943 17.6592 9.19056 17.6574C9.21653 17.6537 9.49293 17.5616 9.54116 17.5414C9.56156 17.5322 9.60423 17.5156 9.6339 17.5064C9.69326 17.4861 9.8936 17.4106 9.98635 17.3719C10.0179 17.3591 10.0531 17.348 10.068 17.3443C10.081 17.3425 10.1014 17.3314 10.1125 17.3204C10.1236 17.3093 10.144 17.3001 10.157 17.3001C10.183 17.3001 10.2498 17.2725 10.5057 17.1528C10.9101 16.9649 11.2329 16.79 11.526 16.6003C11.5872 16.5598 11.6503 16.5211 11.6651 16.5156C11.8339 16.4346 12.9246 15.6555 13.099 15.4898C13.1287 15.4622 13.1565 15.4401 13.1602 15.4401C13.1658 15.4401 13.1806 15.429 13.1936 15.4161C13.2066 15.4051 13.266 15.3517 13.3253 15.3019C13.6611 15.0183 14.1916 14.4861 14.2973 14.3296C14.314 14.3056 14.3419 14.2706 14.3604 14.254C14.3771 14.2356 14.416 14.1914 14.4439 14.1546C14.4717 14.1159 14.4977 14.0828 14.5051 14.0772C14.5533 14.0349 14.928 13.4824 15.0282 13.3038C15.1859 13.0238 15.3565 12.615 15.3862 12.4419C15.3899 12.4142 15.4066 12.3258 15.4215 12.2448C15.4493 12.0993 15.4493 11.6113 15.4233 11.4621C15.2675 10.5984 14.5032 9.6131 13.4644 8.93537C13.3773 8.88012 13.2771 8.81751 13.2418 8.79909C13.2066 8.77883 13.151 8.74568 13.1194 8.72358C13.0508 8.6757 12.6037 8.44549 12.4813 8.39577C12.4349 8.37735 12.3626 8.34789 12.3218 8.32947C12.0825 8.22634 11.4778 8.04586 11.2496 8.01087C11.2106 8.0035 11.1735 7.99613 11.1661 7.99245C11.1587 7.98692 11.1197 7.97956 11.0808 7.97403C11.04 7.96851 10.9157 7.95193 10.8025 7.93536C10.6059 7.90589 9.71552 7.88195 9.51333 7.90037ZM10.4779 9.48971C10.8304 9.51549 10.9565 9.53022 11.1698 9.57442C11.244 9.58916 11.3238 9.60389 11.3498 9.60941C11.5742 9.65361 12.0138 9.79542 12.2216 9.89118C12.2977 9.92618 12.3793 9.96301 12.4034 9.97222C12.4887 10.0054 12.8838 10.2356 12.9988 10.3221C13.1621 10.44 13.3531 10.6334 13.4644 10.7862C13.5628 10.9225 13.6611 11.1398 13.6778 11.254C13.6833 11.2927 13.6926 11.3369 13.6982 11.3516C13.7074 11.3774 13.7074 11.8728 13.6982 11.9501C13.6537 12.3093 13.5145 12.6629 13.2827 13.0109C13.1788 13.1675 13.138 13.2227 13.1176 13.2356C13.1046 13.243 13.0934 13.2596 13.0934 13.2706C13.0934 13.2817 13.0619 13.3259 13.0248 13.3682C12.9859 13.4106 12.9246 13.4806 12.8913 13.5248C12.856 13.5671 12.8152 13.615 12.8004 13.6279C12.7874 13.6426 12.78 13.6537 12.7837 13.6537C12.7892 13.6537 12.7614 13.685 12.7243 13.7236C12.6872 13.7623 12.6037 13.8526 12.5388 13.9225C12.2884 14.1933 12.0287 14.44 11.7653 14.661C11.4203 14.9502 11.4314 14.941 11.0715 15.1804C10.9342 15.2725 10.8137 15.3535 10.8025 15.3627C10.7933 15.3701 10.7265 15.4088 10.6541 15.4493C10.5837 15.4879 10.5187 15.5285 10.5113 15.5395C10.5039 15.5506 10.4965 15.5524 10.4965 15.545C10.4965 15.5358 10.4686 15.545 10.4371 15.5653C10.3369 15.6279 10.055 15.7623 9.83795 15.8526C9.72665 15.9005 9.61721 15.9465 9.59681 15.9557C9.51519 15.9926 9.11265 16.1288 8.96611 16.1675C8.5543 16.278 8.55987 16.278 8.44672 16.2983C8.41704 16.3038 8.34098 16.3185 8.27977 16.3333C8.2167 16.348 8.1258 16.3627 8.07572 16.3701C8.02564 16.3756 7.91063 16.3922 7.81788 16.4069C7.61197 16.4401 7.38752 16.4419 7.32445 16.4106C7.23356 16.3664 7.20944 16.2835 7.22057 16.0386C7.22799 15.8434 7.2855 15.1712 7.37083 14.3075C7.38567 14.1546 7.40236 13.9815 7.40607 13.9207C7.41164 13.8599 7.42833 13.6813 7.44317 13.5248C7.46914 13.2632 7.49882 12.9391 7.51922 12.7052C7.52479 12.6537 7.53221 12.58 7.53777 12.5395C7.54334 12.499 7.55076 12.4069 7.55818 12.3369C7.57116 12.1619 7.57487 12.1306 7.64722 11.4161C7.68617 11.0238 7.72142 10.7549 7.74182 10.6978C7.77892 10.591 7.90321 10.4032 8.00708 10.2982C8.07201 10.2319 8.23339 10.0919 8.27606 10.0661C8.30388 10.0496 8.32614 10.0293 8.32614 10.0219C8.32614 10.0146 8.33542 10.0072 8.34469 10.0072C8.35582 10.0072 8.37437 9.998 8.38736 9.98879C8.63592 9.777 9.18685 9.55048 9.54116 9.51549C9.5931 9.50996 9.66173 9.50076 9.69512 9.49339C9.80827 9.47313 10.2052 9.46945 10.4779 9.48971ZM16.7626 18.3646C16.8554 18.4125 16.9611 18.5488 16.9871 18.6537C17.0112 18.7458 17.0167 18.9668 16.9982 19.0386C16.9704 19.1418 16.7218 19.5635 16.6012 19.7108C16.5233 19.8048 16.1968 20.1363 16.1838 20.1363C16.1783 20.1363 16.1579 20.1491 16.1412 20.1639C16.1078 20.1897 15.939 20.3167 15.8481 20.3849C15.8203 20.4051 15.7665 20.442 15.7275 20.4678C15.466 20.6409 15.312 20.7422 15.1989 20.814C15.1284 20.86 15.0208 20.9282 14.9633 20.9668C14.9058 21.0074 14.852 21.0387 14.8446 21.0387C14.839 21.0387 14.8019 21.0626 14.7629 21.0939C14.724 21.1234 14.6869 21.1492 14.6813 21.1492C14.6739 21.1492 14.6108 21.1878 14.5385 21.2357C14.442 21.2983 14.3827 21.3223 14.3196 21.3296L14.2324 21.337L14.2101 21.1713C14.1842 20.976 14.1805 20.5396 14.2046 20.3849C14.2157 20.3241 14.2268 20.2412 14.2343 20.2007C14.2621 20.0092 14.3919 19.6372 14.4977 19.4364C14.7166 19.0257 14.9577 18.7513 15.2508 18.5727C15.4678 18.4438 15.6849 18.3664 15.9223 18.3388C15.9742 18.3314 16.0169 18.3241 16.0206 18.3222C16.0243 18.3186 16.1746 18.3167 16.3545 18.3186C16.6569 18.3222 16.6884 18.3259 16.7626 18.3646Z" fill="#737373"/>
<path d="M64.5873 7.93206C64.5817 7.93574 64.4649 7.94679 64.3276 7.95232C63.9251 7.97257 62.9197 8.10886 62.3335 8.2212C61.8234 8.32065 61.6601 8.35195 61.6101 8.36116C61.4654 8.38879 61.0146 8.48455 60.7197 8.55453C60.6288 8.57479 60.5193 8.60057 60.4767 8.60794C60.395 8.62636 59.462 8.85841 59.1986 8.92839C58.9908 8.98364 58.8053 9.03336 58.5772 9.09598C58.4807 9.1236 58.3546 9.15675 58.2989 9.17149C58.2433 9.18622 58.1839 9.20279 58.1691 9.21016C58.1542 9.21569 58.1282 9.22305 58.1134 9.22489C58.0726 9.23042 57.7461 9.32434 57.6497 9.35749C57.6033 9.37407 57.5365 9.40906 57.5013 9.43484C57.466 9.46247 57.4048 9.50482 57.3677 9.52877C57.3288 9.55455 57.2972 9.58033 57.2972 9.5877C57.2972 9.59691 57.2861 9.60243 57.2712 9.60243C57.2564 9.60243 57.2397 9.63006 57.2323 9.67057C57.223 9.72582 57.2267 9.74424 57.2546 9.7645C57.3492 9.83264 57.8352 10.1365 57.8519 10.1365C57.863 10.1365 57.8723 10.1439 57.8723 10.1512C57.8723 10.1604 58.0169 10.2396 58.1932 10.3262C58.681 10.5711 58.6977 10.5932 58.6959 10.9745C58.6959 11.1163 58.6903 11.3188 58.6829 11.4257C58.668 11.6706 58.605 12.5564 58.5679 13.0279C58.553 13.2249 58.5363 13.4441 58.5326 13.5159C58.5271 13.5859 58.5067 13.8511 58.4844 14.1053C58.464 14.3576 58.4306 14.7682 58.4102 15.0169C58.3657 15.5473 58.3768 15.422 58.2711 16.5546C58.2247 17.05 58.1876 17.4663 58.1876 17.4773C58.1876 17.5049 58.0652 17.527 57.594 17.586C57.3844 17.6118 57.1303 17.6467 57.0282 17.6615C56.9262 17.6762 56.8094 17.6909 56.7685 17.6946C56.7277 17.6965 56.5571 17.7167 56.3883 17.737C56.2195 17.7591 55.982 17.7849 55.8596 17.7978C55.7372 17.8088 55.6166 17.8217 55.5906 17.8272C55.5647 17.8309 55.3532 17.8401 55.1176 17.8456C54.1475 17.8733 53.1717 17.7222 52.1756 17.3926C52.0532 17.3521 51.9437 17.3189 51.9345 17.3189C51.9252 17.3189 51.877 17.3024 51.8287 17.2803C51.6395 17.1974 51.6191 17.19 51.5876 17.19C51.569 17.19 51.5468 17.1826 51.5356 17.1753C51.5152 17.1569 51.3372 17.0887 51.326 17.0961C51.3223 17.0998 51.313 17.0924 51.3075 17.0832C51.2889 17.0519 51.0997 16.9488 51.083 16.9598C51.0645 16.9709 51.0812 16.9119 51.2036 16.5178C51.2463 16.376 51.2963 16.2103 51.3149 16.1495C51.3316 16.0887 51.365 15.9764 51.3891 15.9009C51.4466 15.7222 51.5227 15.4736 51.5579 15.3576C51.5727 15.306 51.608 15.1863 51.6377 15.0905C51.6673 14.9948 51.71 14.853 51.7323 14.7775C51.7545 14.7019 51.7824 14.6062 51.7953 14.5657C51.8083 14.5252 51.8343 14.4423 51.8528 14.3815C51.8714 14.3207 51.8974 14.2379 51.9103 14.1973C51.9233 14.1568 51.9641 14.0242 52.0012 13.9027C52.0365 13.7811 52.0829 13.632 52.1014 13.5712C52.1218 13.5104 52.1552 13.3981 52.1775 13.3226C52.1997 13.247 52.2294 13.1513 52.2424 13.1108C52.2572 13.0703 52.3073 12.9082 52.3537 12.7516C52.4019 12.5951 52.4613 12.4073 52.4835 12.3373C52.5076 12.2655 52.5818 12.0297 52.6505 11.8124C52.7191 11.5951 52.8156 11.2967 52.8638 11.1494C53.1142 10.398 53.1365 10.3023 53.1031 10.1015C53.0641 9.85474 52.8638 9.56376 52.5967 9.36854C52.3926 9.21937 52.248 9.26909 52.0476 9.55639C52.0124 9.60611 51.979 9.65216 51.9734 9.65768C51.9326 9.6982 51.6581 10.0905 51.6581 10.107C51.6581 10.1126 51.634 10.1512 51.6043 10.1954C51.5431 10.2857 51.1572 11.0684 51.1572 11.1015C51.1572 11.1089 51.1405 11.1476 51.122 11.1918C50.9439 11.5748 50.6601 12.3704 50.4635 13.0279C50.3818 13.3023 50.2075 13.9506 50.1741 14.1053C50.1648 14.1458 50.1333 14.2784 50.1036 14.3999C50.0442 14.6338 49.9923 14.853 49.9793 14.9248C49.9756 14.9487 49.9496 15.0555 49.9237 15.1624C49.8995 15.2692 49.8439 15.5104 49.8012 15.6983C49.7604 15.8861 49.7196 16.0556 49.7103 16.0758C49.7011 16.0961 49.6881 16.1311 49.6825 16.1532C49.6732 16.1882 49.664 16.1918 49.6343 16.1771C49.6139 16.1661 49.5879 16.1624 49.5768 16.1697C49.5656 16.1771 49.5619 16.1753 49.5675 16.1642C49.5749 16.1532 49.5471 16.1366 49.5063 16.1237C49.4655 16.1126 49.3801 16.074 49.3171 16.0371C49.2522 16.0022 49.1705 15.9598 49.1353 15.9414C49.1 15.9248 49.0667 15.9045 49.0611 15.899C49.0481 15.8824 48.5565 15.6044 48.4304 15.5436C48.3747 15.516 48.2987 15.4754 48.2634 15.4552C48.2282 15.4349 48.0909 15.3649 47.9574 15.2986C47.8257 15.2342 47.7032 15.1734 47.6884 15.1642C47.566 15.0887 47.4862 15.0648 47.3712 15.0648C47.2877 15.0648 47.2395 15.074 47.2209 15.0924C47.1338 15.1771 47.1208 15.3281 47.1857 15.4681C47.4324 15.9948 47.5085 16.1145 47.7645 16.3686C47.8758 16.4791 47.9666 16.5639 47.9666 16.5602C47.9666 16.5546 48.0075 16.5896 48.0557 16.6357C48.1058 16.6817 48.1726 16.7407 48.2041 16.7664C48.2375 16.7922 48.2987 16.8456 48.3414 16.8861C48.5009 17.0335 48.6419 17.144 48.6734 17.1421C48.6901 17.1421 48.7031 17.1532 48.7012 17.1698C48.6994 17.1845 48.7179 17.2066 48.7402 17.2176C48.7643 17.2305 48.7773 17.2434 48.7717 17.2489C48.7661 17.2545 48.7921 17.2784 48.8274 17.3005C48.8645 17.3226 48.8941 17.3502 48.8941 17.3594C48.8941 17.3705 48.8997 17.376 48.9053 17.3705C48.9108 17.3631 48.9442 17.3871 48.9813 17.4221C49.0166 17.4571 49.0555 17.4792 49.0648 17.4718C49.0778 17.4663 49.0796 17.4699 49.0722 17.481C49.0592 17.5031 49.1668 17.6081 49.1946 17.5989C49.2039 17.597 49.2076 17.6007 49.2021 17.6099C49.1965 17.6191 49.2169 17.6504 49.2484 17.6799C49.2818 17.7112 49.2985 17.7425 49.293 17.7609C49.28 17.7922 49.0871 18.923 49.0722 19.0593C49.0648 19.109 49.0574 19.1643 49.0537 19.179C49.0481 19.1937 49.0407 19.2527 49.0351 19.3079C49.0277 19.3632 49.0203 19.4295 49.0147 19.4552C48.9906 19.5878 48.8979 20.2564 48.8311 20.7812C48.8274 20.8162 48.8051 20.9691 48.7847 21.1219C48.7643 21.2729 48.742 21.435 48.7383 21.481C48.729 21.5658 48.6029 22.4903 48.5491 22.8807C48.5157 23.1146 48.5046 23.7039 48.5269 24.1164C48.5417 24.4001 48.5714 24.4995 48.6604 24.5824C48.7124 24.6303 48.7272 24.6339 48.8218 24.6247C48.935 24.6155 48.998 24.5861 49.1928 24.4516C49.3022 24.3761 49.5174 24.1459 49.5638 24.0557C49.612 23.9617 49.7901 23.2104 49.8476 22.8623C49.8643 22.7573 49.8773 22.691 49.8958 22.6229C49.9033 22.5879 49.9218 22.4958 49.9329 22.4203C49.9459 22.3448 49.9589 22.2656 49.9626 22.2453C49.9682 22.2251 50.0053 22.0335 50.0442 21.8181C50.085 21.6026 50.1425 21.3135 50.1722 21.1735C50.2019 21.0335 50.2297 20.8936 50.2353 20.8641C50.2409 20.8328 50.2705 20.6928 50.3021 20.551C50.3336 20.4092 50.367 20.2471 50.3781 20.1919C50.3893 20.1366 50.406 20.0611 50.4152 20.0261C50.4282 19.9746 50.6044 19.1514 50.6953 18.7223C50.7176 18.6099 50.7399 18.5952 50.827 18.632C50.8604 18.6468 50.9643 18.691 51.0552 18.7278C51.1479 18.7665 51.2834 18.8272 51.3594 18.8622C51.4355 18.8972 51.5097 18.9267 51.5227 18.9267C51.5356 18.9267 51.5468 18.9341 51.5468 18.9433C51.5468 18.9506 51.556 18.958 51.5672 18.958C51.5764 18.958 51.6822 19.0004 51.8009 19.0501C51.9196 19.1016 52.0291 19.1385 52.0458 19.133C52.0606 19.1274 52.068 19.1274 52.0606 19.1348C52.0365 19.1587 52.4613 19.319 52.4928 19.2987C52.5039 19.2932 52.5114 19.295 52.5114 19.3042C52.5114 19.33 52.9714 19.4773 53.2534 19.5418C53.3201 19.5565 53.424 19.5805 53.4852 19.5952C53.5464 19.6118 53.6169 19.6265 53.6429 19.632C53.6689 19.6357 53.7097 19.6431 53.7356 19.6468C53.7616 19.6505 53.808 19.6597 53.8377 19.6652C54.537 19.8015 55.3996 19.8309 56.1379 19.7481C56.2306 19.737 56.3512 19.7241 56.4068 19.7204C56.5348 19.7094 56.967 19.6523 57.377 19.5934C57.5495 19.5676 57.7183 19.5473 57.7535 19.5473C57.7888 19.5473 57.8463 19.5344 57.8815 19.5215C57.9613 19.4884 57.9594 19.4516 57.9019 19.9156C57.876 20.1127 57.8426 20.4313 57.8259 20.6247C57.7962 20.9856 57.7906 21.0427 57.761 21.3706C57.7517 21.4774 57.7127 21.9083 57.6775 22.3282C57.5198 24.1883 57.5161 24.2711 57.5736 24.5013C57.6515 24.8144 57.7461 24.9875 57.8723 25.0575C57.9465 25.098 58.1116 25.0944 58.1895 25.052C58.3935 24.936 58.5939 24.7223 58.7126 24.4903C58.7608 24.3964 58.8758 24.0851 58.8702 24.063C58.8684 24.0557 58.8721 24.0373 58.8795 24.0225C58.8888 23.9986 58.9259 23.7886 58.9407 23.6818C58.9426 23.6616 59.0038 23.2969 59.0761 22.8715C59.2635 21.7647 59.3841 20.9783 59.4583 20.4037C59.5102 19.9912 59.5473 19.7333 59.5881 19.4921C59.6159 19.3355 59.6401 19.179 59.6456 19.144C59.6568 19.0611 59.6605 19.0556 59.7402 19.0409C59.7792 19.0335 59.8404 19.0151 59.8756 19.0004C59.9109 18.9838 59.9498 18.9709 59.9591 18.969C59.9869 18.9672 60.46 18.7794 60.5954 18.7167C60.6603 18.6873 60.7215 18.6633 60.7308 18.6633C60.7401 18.6633 60.7475 18.6541 60.7475 18.6412C60.7475 18.6302 60.7531 18.6265 60.7605 18.632C60.766 18.6394 60.8068 18.6247 60.8477 18.6007C60.8903 18.5768 60.9756 18.5307 61.0406 18.4976C61.1036 18.4663 61.1556 18.4294 61.1556 18.4184C61.1556 18.4073 61.1611 18.4037 61.1667 18.411C61.1853 18.4276 61.6379 18.1458 61.6249 18.1237C61.6193 18.1145 61.623 18.1108 61.6323 18.1164C61.6527 18.1293 61.6694 18.1182 61.9068 17.9543C62.0552 17.8512 62.4912 17.5362 62.5746 17.4718C62.6062 17.4478 62.6396 17.4221 62.6488 17.4147C62.7305 17.3521 63.0384 17.1292 63.1126 17.0777C63.2128 17.0095 63.3482 16.9101 63.363 16.8953C63.3686 16.8898 63.4446 16.8383 63.5318 16.7812C63.6988 16.6744 63.8564 16.551 63.9881 16.4294C64.0308 16.3889 64.0846 16.3447 64.105 16.33C64.1254 16.3152 64.1365 16.295 64.131 16.2839C64.1236 16.2729 64.1254 16.2692 64.1365 16.2747C64.1755 16.2987 64.5966 15.7885 64.578 15.7406C64.5743 15.7277 64.5799 15.7185 64.591 15.7222C64.604 15.7241 64.6541 15.6449 64.7042 15.5454C64.7895 15.3778 64.7969 15.3539 64.7969 15.2305C64.7988 15.0703 64.7672 15.0095 64.6652 14.9671C64.5576 14.9229 64.3462 14.9432 64.207 15.0113C64.1458 15.0427 64.0772 15.0721 64.0531 15.0795C64.0308 15.0869 64.0178 15.1016 64.0234 15.1126C64.0308 15.1237 64.0271 15.1274 64.016 15.12C63.9863 15.1034 63.3964 15.4147 63.3593 15.4662C63.3519 15.4773 63.3445 15.4791 63.3445 15.4718C63.3445 15.4625 63.2461 15.5086 63.1274 15.5712C63.0069 15.6338 62.8121 15.7351 62.6952 15.794C62.5784 15.8548 62.4355 15.9322 62.3799 15.9653C62.3242 15.9985 62.2148 16.0556 62.1387 16.0924C62.0627 16.1311 61.9903 16.1734 61.9792 16.1882C61.9681 16.201 61.9532 16.2084 61.9477 16.201C61.9402 16.1955 61.9254 16.1992 61.9124 16.2103C61.8883 16.2287 61.5414 16.4092 61.0628 16.6486C60.8217 16.7701 60.3338 16.9506 60.2466 16.9506C60.2299 16.9506 60.2095 16.958 60.1984 16.9653C60.1836 16.9801 60.0444 17.0243 60.0166 17.0243C60.0018 17.0243 60.0111 16.9193 60.05 16.6375C60.0593 16.5712 60.1854 15.6044 60.1984 15.5049C60.2021 15.4736 60.2262 15.3134 60.2522 15.1458C60.3153 14.7517 60.3746 14.3631 60.3876 14.271C60.408 14.1163 60.4117 14.0924 60.421 14.0445C60.4266 14.0169 60.4358 13.9653 60.4396 13.9303C60.4433 13.8953 60.4563 13.8161 60.4674 13.7553C60.4785 13.6946 60.4915 13.6154 60.4952 13.5804C60.5026 13.5215 60.6603 12.492 60.8013 11.5822C60.8328 11.3888 60.8736 11.1034 60.8959 10.9468C60.9181 10.7903 60.9423 10.6356 60.9534 10.6043C60.9627 10.573 60.9701 10.538 60.9701 10.5251C60.9701 10.5122 60.9961 10.4422 61.0276 10.3704C61.0851 10.2396 61.1741 10.1144 61.2669 10.0315C61.3077 9.99654 61.5692 9.8529 61.5989 9.85105C61.6045 9.84921 61.6527 9.84 61.7028 9.82711C61.7547 9.81606 62.0293 9.77186 62.3149 9.73135C62.6006 9.69083 62.9456 9.63927 63.0829 9.61901C63.2202 9.59691 63.3537 9.57849 63.3797 9.57481C63.5021 9.55823 63.8694 9.50667 64.2163 9.4551C64.4259 9.42379 64.6263 9.39433 64.6615 9.39064C64.6967 9.38696 64.8693 9.36118 65.0418 9.33539C65.2161 9.30961 65.3905 9.28383 65.4313 9.2783C65.5037 9.27094 65.5834 9.25804 66.3588 9.14202C66.702 9.0923 67.1861 9.01126 67.2956 8.98548C67.3215 8.97996 67.3716 8.97075 67.4069 8.96522C67.5145 8.94865 67.7871 8.89708 67.7946 8.89156C67.8113 8.87682 67.6054 8.60242 67.4811 8.4735C67.2677 8.2525 67.0544 8.1107 66.8059 8.02414C66.7038 7.98731 66.6148 7.97442 66.4145 7.96152C66.1065 7.94311 64.6003 7.91733 64.5873 7.93206Z" fill="#737373"/>
<path d="M86.3667 9.24667C86.3519 9.2522 86.3278 9.26877 86.3111 9.28166C86.2944 9.29455 86.2629 9.32034 86.2388 9.33875C86.1701 9.394 86.0013 9.6371 85.903 9.82311C85.8529 9.91887 85.7602 10.0938 85.6971 10.2099C85.5116 10.5506 85.2092 11.173 85.2055 11.2228C85.2037 11.2283 85.1907 11.2559 85.1758 11.2872C85.1592 11.3167 85.1295 11.3885 85.1072 11.4438C85.0868 11.499 85.0237 11.6611 84.9681 11.8029C84.9124 11.9447 84.842 12.1307 84.8086 12.2172C84.7752 12.3038 84.7418 12.3904 84.7344 12.4106C84.6898 12.5174 84.6657 12.5782 84.5823 12.8066C84.4431 13.1786 84.3615 13.3996 84.3393 13.4511C84.33 13.4751 84.2873 13.5874 84.2465 13.6998C84.1593 13.941 84.1018 14.092 84.0814 14.1418C84.0499 14.2136 83.8421 14.79 83.8421 14.8029C83.8421 14.8176 83.8087 14.8968 83.7475 15.0258C83.677 15.1805 83.5731 15.2228 83.1595 15.267C83.1113 15.2707 83.0092 15.2836 82.9332 15.2946C82.8571 15.3038 82.757 15.3167 82.7106 15.3223C82.5715 15.3388 82.2301 15.3922 82.1355 15.4125C82.1096 15.4162 82.002 15.4346 81.8944 15.4493C81.49 15.5101 81.4065 15.5285 81.3305 15.5819C81.2266 15.6556 81.1821 15.7514 81.1747 15.9226C81.1672 16.0423 81.1747 16.0792 81.2136 16.1639C81.3286 16.4144 81.7478 16.6943 82.0706 16.7366C82.1021 16.7422 82.1801 16.7532 82.2468 16.7643C82.3136 16.7735 82.4101 16.7882 82.4602 16.7937C82.5121 16.8011 82.5696 16.8085 82.59 16.8122C82.6104 16.8158 82.7607 16.8361 82.9239 16.8564C83.371 16.9153 83.3227 16.8895 83.3227 17.07C83.3227 17.1547 83.2893 17.4954 83.2504 17.8287C83.2096 18.1602 83.1725 18.4696 83.1669 18.5157C83.1613 18.5617 83.1484 18.6612 83.1372 18.7367C83.1279 18.8122 83.115 18.9116 83.1113 18.9577C83.1057 19.0037 83.0853 19.1805 83.0649 19.3536C83 19.8932 82.9202 20.6538 82.9072 20.8638C82.9035 20.9338 82.8905 21.1253 82.8775 21.2892C82.8478 21.6925 82.8645 22.7183 82.9054 23.0461C82.9629 23.5176 83.0853 24.0627 83.1929 24.3316C83.4656 25.0075 84.0629 25.409 84.6249 25.2911C84.6991 25.2745 84.7399 25.2524 84.7937 25.2008C84.8568 25.1364 84.8624 25.1217 84.8624 25.0277C84.8624 24.9725 84.8549 24.908 84.8457 24.8841C84.8364 24.8601 84.8178 24.8049 84.8049 24.7589C84.7919 24.7128 84.7195 24.525 84.6453 24.339C84.5693 24.153 84.4969 23.9614 84.4821 23.9154C84.4654 23.8675 84.4468 23.803 84.4357 23.7736C84.3411 23.4734 84.2651 22.6004 84.2651 21.8122C84.2632 21.2542 84.2706 21.1455 84.3708 20.2652C84.3875 20.1271 84.5136 19.2836 84.5581 19.0221C84.5841 18.8693 84.6082 18.7256 84.6119 18.6998C84.6156 18.6741 84.6435 18.5175 84.675 18.3499C84.7065 18.1823 84.7381 18.0129 84.7418 17.9724C84.7473 17.9319 84.7566 17.8858 84.7622 17.8693C84.7659 17.8508 84.7752 17.814 84.7789 17.7864C84.7882 17.7256 84.7937 17.7053 84.8549 17.4015C84.8976 17.1934 85.0015 16.9245 85.0312 16.9429C85.0386 16.9466 85.0534 16.9374 85.0664 16.9227C85.1183 16.8619 85.2909 16.8343 86.4298 16.7017C86.5634 16.6869 86.7377 16.6648 86.8194 16.6538C86.901 16.6427 86.9974 16.6298 87.0327 16.6261C87.1013 16.6188 87.5057 16.5654 87.5985 16.5525C87.63 16.5488 87.6912 16.5414 87.7376 16.5359C87.784 16.5304 87.9509 16.5083 88.1086 16.488C88.2662 16.4678 88.4295 16.4475 88.4703 16.442C88.5111 16.4383 88.5742 16.4291 88.6094 16.4236C88.6447 16.418 88.7077 16.4088 88.7485 16.4051C88.8784 16.3904 90.2752 16.2007 90.3717 16.1842C90.4069 16.1768 90.4625 16.1694 90.4922 16.1657C90.5238 16.1639 90.6351 16.1473 90.7427 16.1307C90.8502 16.1142 90.9745 16.0976 91.0209 16.0921C91.0673 16.0865 91.1248 16.0792 91.1507 16.0737C91.1767 16.0681 91.2305 16.0589 91.2713 16.0552C91.3121 16.0516 91.3752 16.0423 91.4104 16.0368C91.4457 16.0295 91.5013 16.0221 91.531 16.0184C91.5626 16.0147 91.7295 15.9908 91.902 15.965C92.0764 15.9392 92.247 15.9134 92.2823 15.9097C92.4604 15.884 93.0094 15.8011 93.2654 15.7606C93.4231 15.7348 93.5863 15.709 93.6271 15.7053C93.668 15.6998 93.8015 15.6795 93.9239 15.6593C94.0464 15.639 94.1725 15.6188 94.2022 15.6151C94.2337 15.6096 94.3005 15.5985 94.3506 15.5875C94.4025 15.5764 94.4637 15.5654 94.4897 15.5598C94.6363 15.5322 94.7494 15.5064 94.8143 15.4862C94.8551 15.4733 94.9553 15.4438 95.0369 15.4217C95.2688 15.3573 95.3801 15.2854 95.4283 15.1694C95.5118 14.976 95.3968 14.8066 95.0703 14.6353C94.7809 14.4862 94.6288 14.4401 94.3877 14.4346C94.0167 14.4254 91.5143 14.5598 90.1954 14.6593C89.9914 14.674 89.7614 14.6906 89.6853 14.6961C89.4516 14.7108 88.6595 14.7771 88.6001 14.7863C88.5705 14.79 88.4777 14.7992 88.3961 14.8048C88.3145 14.8121 88.001 14.8416 87.7005 14.8711C87.1291 14.9281 87.1069 14.93 86.7915 14.9631C86.6839 14.9742 86.5838 14.9834 86.5689 14.9834C86.5541 14.9834 86.4818 14.9908 86.4094 15C86.3371 15.0073 86.2109 15.0202 86.1312 15.0258C86.0495 15.0313 85.9011 15.0442 85.7991 15.0534C85.6971 15.0626 85.5394 15.0755 85.4467 15.0828C85.3558 15.0884 85.2742 15.0976 85.2667 15.1031C85.2222 15.1289 85.2779 14.8895 85.3873 14.5838C85.4133 14.5119 85.4893 14.2965 85.5561 14.1049C85.6248 13.9116 85.6934 13.7219 85.7082 13.6814C85.7249 13.6408 85.7565 13.5488 85.7806 13.4788C85.8047 13.4069 85.8474 13.2909 85.8733 13.2209C85.9568 13.0018 86.0087 12.8434 85.9995 12.8434C85.9939 12.8434 85.9976 12.8324 86.0087 12.8195C86.0199 12.8066 86.0625 12.7016 86.1033 12.5856C86.2573 12.1454 86.3018 12.0239 86.313 12.0055C86.3185 11.9944 86.3315 11.9576 86.3426 11.9226C86.3538 11.8876 86.4001 11.7495 86.4484 11.6187C86.4966 11.4861 86.5448 11.3498 86.5541 11.3148C86.5652 11.2798 86.5782 11.2412 86.5856 11.232C86.5931 11.2209 86.6135 11.1675 86.632 11.1123C86.6506 11.057 86.671 10.9944 86.6802 10.9741C86.7266 10.8618 86.7526 10.7808 86.7433 10.7808C86.7359 10.7808 86.7415 10.7697 86.7526 10.755C86.7656 10.7402 86.7823 10.7053 86.7915 10.6758C86.799 10.6482 86.8416 10.5285 86.8843 10.4124C86.9937 10.1086 87.0104 10.0459 87.0104 9.88756C87.0104 9.68314 86.9603 9.5487 86.8286 9.41794C86.773 9.36085 86.6932 9.30008 86.6524 9.27982C86.5764 9.24483 86.415 9.22457 86.3667 9.24667Z" fill="#737373"/>
<path d="M67.2016 16.0511C67.107 16.075 66.966 16.1874 66.8844 16.3052C66.8454 16.3605 66.8139 16.4121 66.8139 16.4194C66.8139 16.4249 66.7823 16.4876 66.7415 16.5575C66.7026 16.6257 66.6247 16.7693 66.569 16.8761C66.5134 16.983 66.4355 17.1266 66.3946 17.1984C66.2054 17.541 65.8808 18.1763 65.7788 18.4047C65.7491 18.471 65.712 18.5539 65.6953 18.5889C65.4468 19.1451 65.1778 20.0696 64.9607 21.1119C64.8866 21.4729 64.829 21.7528 64.8012 21.9038C64.7845 21.9904 64.7641 22.0898 64.7548 22.1248C64.7456 22.1598 64.7326 22.2298 64.7252 22.2814C64.7159 22.3311 64.7085 22.3771 64.7085 22.3827C64.6992 22.425 64.6602 22.6055 64.6528 22.6497C64.5675 23.0751 64.5656 23.0954 64.5582 23.5834C64.5471 24.123 64.5564 24.2114 64.6398 24.3919C64.7419 24.6147 64.8532 24.6737 65.0572 24.6203C65.4134 24.5282 65.738 24.2041 65.9235 23.7547C65.9847 23.611 66.0255 23.4306 66.083 23.0788C66.2852 21.8228 66.5226 20.797 66.8899 19.5926C66.9567 19.3734 67.2405 18.5281 67.2665 18.4692C67.2813 18.4379 67.298 18.3937 67.3054 18.3679C67.3277 18.2961 67.6171 17.5336 67.7117 17.3016C67.758 17.1874 67.8007 17.075 67.8044 17.0529C67.823 16.9572 67.8786 16.7841 67.8916 16.7841C67.9287 16.7841 67.9213 16.7178 67.8749 16.6496C67.8452 16.6073 67.7951 16.5262 67.7636 16.471C67.5763 16.145 67.3889 16.0032 67.2016 16.0511Z" fill="#737373"/>
<path d="M78.6549 16.2891C78.3173 16.3277 77.8999 16.4787 77.6012 16.6721C77.336 16.8434 77.1635 16.9944 76.8778 17.3075C76.6125 17.6003 76.3603 17.6666 75.9392 17.5561C75.5867 17.4659 75.5478 17.4603 75.199 17.4585C74.8633 17.4567 74.7001 17.4677 74.5312 17.5064C74.4849 17.5156 74.4311 17.5266 74.4107 17.5322C74.227 17.569 74.164 17.5837 74.1232 17.6003C74.0972 17.6095 74.0638 17.6206 74.049 17.6224C73.9933 17.6316 73.7373 17.7219 73.6297 17.7716C73.5704 17.7992 73.4943 17.8324 73.4609 17.8434C73.3886 17.871 73.0157 18.0883 72.8896 18.1767C72.7059 18.3057 72.6058 18.3867 72.5112 18.4751C72.4592 18.5248 72.4166 18.5616 72.4166 18.558C72.4166 18.5303 71.964 19.0184 71.8712 19.1491C71.8508 19.1768 71.8193 19.2173 71.8007 19.2394C71.7803 19.2596 71.7469 19.3075 71.7265 19.3443C71.7043 19.3793 71.6801 19.4125 71.6746 19.418C71.6672 19.4235 71.6078 19.5101 71.5392 19.6114C71.3908 19.8342 71.2368 19.9944 71.2182 19.9447C71.1978 19.8932 71.2238 19.4567 71.2553 19.3075C71.2702 19.232 71.2869 19.1436 71.2924 19.1141C71.2962 19.0828 71.3351 18.8729 71.3759 18.6445C71.4186 18.4162 71.465 18.1639 71.4798 18.0828C71.5521 17.685 71.5688 17.5027 71.5466 17.3664C71.5132 17.1694 71.4186 16.9926 71.2795 16.8655C71.2164 16.8084 71.1478 16.755 71.1274 16.7458C71.1069 16.7366 71.0661 16.7145 71.0346 16.6942C70.9289 16.6316 70.786 16.5948 70.6859 16.6058C70.5542 16.6224 70.4892 16.6924 70.3687 16.941C70.2258 17.2338 70.1591 17.4585 70.1238 17.7697C70.1182 17.8103 70.1108 17.8563 70.1071 17.871C70.0941 17.9134 69.9865 18.5488 69.9754 18.6537C69.9698 18.7035 69.9624 18.7495 69.9587 18.755C69.9513 18.7661 69.7899 19.7293 69.7751 19.8416C69.7714 19.8766 69.7584 19.9558 69.7472 20.0165C69.7305 20.1123 69.7139 20.2191 69.6638 20.5414C69.623 20.7937 69.6118 20.8692 69.6044 20.9097C69.584 21.035 69.5599 21.1842 69.5506 21.256C69.5451 21.3002 69.5376 21.3536 69.5321 21.3757C69.5265 21.3978 69.5191 21.4457 69.5154 21.4807C69.5098 21.5156 69.4894 21.6556 69.4671 21.7919C69.3391 22.5985 69.315 22.8122 69.315 23.1381C69.315 23.3149 69.3243 23.5562 69.3373 23.6722C69.3484 23.7882 69.3614 23.9245 69.367 23.9761C69.3892 24.2044 69.3967 24.2468 69.4282 24.3223C69.4987 24.4844 69.6026 24.5654 69.7973 24.6115C69.9402 24.6446 70.1015 24.617 70.2555 24.5341C70.3816 24.466 70.5282 24.2652 70.5987 24.0626C70.6599 23.8822 70.7248 23.7146 70.7452 23.6741C70.7564 23.6538 70.8157 23.5065 70.8769 23.3462C70.9381 23.186 70.9956 23.0387 71.0049 23.0184C71.0142 22.9982 71.0346 22.9521 71.0513 22.9153C71.0661 22.8785 71.1181 22.7514 71.1645 22.6298C71.2108 22.5101 71.2572 22.3923 71.2683 22.3683C71.3091 22.2707 71.324 22.2376 71.3871 22.1013C71.4223 22.0221 71.452 21.9521 71.452 21.9448C71.452 21.9319 71.5577 21.7109 71.7209 21.3867C71.8879 21.0552 72.1958 20.5911 72.4091 20.348C72.4815 20.267 72.7727 19.9705 72.8543 19.8968C73.1882 19.593 73.6742 19.3001 74.1473 19.116C74.2678 19.0699 74.3717 19.0313 74.3791 19.0313C74.3866 19.0313 74.4552 19.011 74.5312 18.9871C74.7854 18.9079 75.2324 18.8305 75.4996 18.8195C75.8279 18.8066 76.0486 18.8931 76.1395 19.0681C76.1766 19.1418 76.1822 19.1823 76.1896 19.4456C76.197 19.8121 76.2063 19.8655 76.3046 20.0773C76.3287 20.1307 76.3491 20.1786 76.3491 20.1841C76.3491 20.1989 76.5439 20.488 76.5847 20.5322C76.6033 20.5543 76.6645 20.6243 76.7201 20.6887C76.7758 20.755 76.9335 20.9355 77.0726 21.0921C77.2098 21.2486 77.3601 21.418 77.4046 21.4696C77.4491 21.5212 77.5252 21.6096 77.5753 21.6648C77.7459 21.8582 77.8925 22.0387 77.911 22.081C77.9222 22.105 77.9407 22.1252 77.95 22.1252C77.9611 22.1252 77.9648 22.1308 77.9574 22.1363C77.9518 22.1418 77.9648 22.186 77.9852 22.232C78.0409 22.3573 78.052 22.6133 78.0093 22.7993C77.9648 22.9982 77.835 23.2873 77.7515 23.3683C77.7385 23.3812 77.7088 23.4162 77.6829 23.4457C77.6328 23.5046 77.4566 23.628 77.3416 23.6851C77.1709 23.7698 76.8982 23.8177 76.5903 23.8195C76.082 23.8232 75.7166 23.6354 75.4346 23.221C75.3678 23.1252 75.1434 22.6998 75.1434 22.6704C75.1434 22.6648 75.1174 22.6041 75.0859 22.5359C74.9653 22.2726 74.9393 22.2155 74.9393 22.2099C74.9393 22.2044 74.9227 22.1639 74.9022 22.116C74.8651 22.0313 74.8651 22.0313 74.8132 22.0589C74.7372 22.0976 74.5108 22.3407 74.4348 22.4678C74.3216 22.6519 74.266 22.8416 74.2641 23.0553C74.2641 23.1566 74.2678 23.2689 74.2734 23.3039C74.3031 23.4807 74.3921 23.7017 74.483 23.8288C74.5034 23.8582 74.522 23.8895 74.522 23.8969C74.522 23.919 74.7223 24.1584 74.8188 24.2505C75.0785 24.5028 75.3437 24.6796 75.635 24.7956C75.9763 24.9319 76.2805 24.9871 76.7016 24.9853C77.4862 24.9853 78.2152 24.7514 78.7179 24.3444C78.8163 24.2634 79.1316 23.9485 79.1316 23.93C79.1316 23.9227 79.1669 23.8711 79.2114 23.814C79.4266 23.5286 79.575 23.21 79.6343 22.9024C79.6473 22.8306 79.6529 22.709 79.6454 22.5801C79.6325 22.326 79.5787 22.1565 79.4414 21.9337C79.3338 21.7606 79.2837 21.698 79.0018 21.3886C78.666 21.0221 78.6549 21.0092 77.9073 20.2486C77.8721 20.2118 77.8146 20.1455 77.7793 20.0994C77.7441 20.0534 77.7107 20.0129 77.7051 20.0073C77.6717 19.9816 77.553 19.8011 77.5029 19.7035C77.2803 19.2633 77.31 18.7403 77.579 18.3609C77.6699 18.232 77.8109 18.0976 77.9778 17.9797C78.0669 17.9171 78.1689 17.8416 78.2041 17.8158C78.2394 17.7882 78.2876 17.7605 78.3117 17.7532C78.334 17.7458 78.3525 17.7311 78.3525 17.7219C78.3525 17.7126 78.3599 17.7053 78.3692 17.7053C78.3785 17.7053 78.4935 17.6445 78.6252 17.569C79.0685 17.3149 79.4655 17.1123 79.8402 16.9428L79.9107 16.9115L79.8755 16.8434C79.8272 16.7532 79.6454 16.5727 79.5249 16.4953C79.3486 16.383 79.1613 16.3148 78.9739 16.2964C78.9127 16.2909 78.8459 16.2835 78.8255 16.2798C78.8051 16.2762 78.7291 16.2817 78.6549 16.2891Z" fill="#737373"/>
<path d="M68.5906 11.0931C68.533 11.1116 68.4494 11.1484 68.4048 11.1742C68.2672 11.2552 68.0032 11.5277 67.8917 11.7045C67.8638 11.7487 67.8304 11.8021 67.8173 11.8224C67.7393 11.9457 67.6203 12.2219 67.5608 12.4208C67.5013 12.6178 67.4902 12.6768 67.492 12.8259C67.492 13.0929 67.572 13.301 67.7374 13.4686C68.1166 13.8553 68.8081 13.7282 69.39 13.1684C69.6391 12.929 69.8064 12.686 69.8863 12.4484C69.996 12.1243 69.8491 11.5461 69.5963 11.2994C69.4532 11.1576 69.2208 11.0821 68.9011 11.0674C68.7319 11.06 68.678 11.0637 68.5906 11.0931Z" fill="#737373"/>
<path d="M45.1339 11.7717C44.7975 11.897 44.4313 12.2524 44.2584 12.6225C44.184 12.7808 44.132 12.9632 44.132 13.0607C44.132 13.1344 44.1654 13.2909 44.2379 13.5524C44.316 13.836 44.4684 14.0588 44.6339 14.1325C44.7584 14.1859 44.9387 14.1822 45.0949 14.1214C45.4276 13.9907 45.7808 13.6629 45.9518 13.3278C46.0894 13.0589 46.1619 12.7753 46.1656 12.5028C46.1674 12.3076 46.1656 12.2966 46.1042 12.1805C46.0224 12.0259 45.87 11.8786 45.7139 11.8067C45.6061 11.7552 45.5689 11.7478 45.4053 11.7441C45.2659 11.7404 45.199 11.7478 45.1339 11.7717Z" fill="#737373"/>
<path d="M64.3569 14.9542C64.2305 15.0021 63.9163 15.1513 63.7063 15.2654C63.4702 15.3925 62.9962 15.6429 62.7025 15.7958C62.5854 15.8547 62.4423 15.932 62.3865 15.9652C62.3307 15.9983 62.2211 16.0554 62.1448 16.0941C62.0686 16.1328 61.985 16.1769 61.9589 16.1898C61.866 16.2414 61.4756 16.4421 61.141 16.6097C60.9124 16.7257 60.7098 16.8104 60.5388 16.8675C60.3956 16.9135 60.2692 16.9503 60.2544 16.9503C60.2413 16.9503 60.2153 16.9577 60.1967 16.9669C59.9904 17.07 59.8305 17.1161 59.0405 17.3076C58.5646 17.4218 58.1594 17.5157 58.1389 17.5157C58.1185 17.5157 57.9047 17.5414 57.6649 17.5746C57.4251 17.6059 57.1277 17.6446 57.005 17.6593C56.8823 17.674 56.7281 17.6961 56.6611 17.7053C56.5477 17.7219 56.2671 17.755 55.8618 17.7974C55.0383 17.8858 54.345 17.8674 53.5661 17.7403C53.304 17.6961 52.8913 17.6077 52.7203 17.558C52.6534 17.5396 52.5196 17.5009 52.4229 17.4733C52.3262 17.4457 52.2333 17.4181 52.2184 17.4107C52.1738 17.3904 51.9433 17.3186 51.9229 17.3186C51.9117 17.3186 51.8671 17.3039 51.8225 17.2836C51.7202 17.2394 51.6217 17.2008 51.4842 17.1529C51.4228 17.1308 51.2555 17.0498 51.1124 16.9706C50.6588 16.7202 49.5546 16.1456 49.4766 16.1217C49.3948 16.0959 49.326 16.0591 49.0583 15.9044C48.7813 15.7442 48.5192 15.5987 48.4077 15.5435C48.3519 15.5159 48.2757 15.4754 48.2404 15.4551C48.2051 15.4349 48.0173 15.3373 47.8222 15.2397C47.4783 15.0684 47.4653 15.0629 47.3463 15.0647C47.2626 15.0647 47.2143 15.0739 47.1957 15.0923C47.1083 15.1771 47.0953 15.328 47.1604 15.468C47.2924 15.7497 47.3835 15.9247 47.456 16.0388C47.5377 16.1677 47.85 16.4881 48.101 16.7018C48.1735 16.7625 48.2683 16.8454 48.3148 16.8859C48.4021 16.9614 48.4319 16.9853 48.6215 17.1437C48.681 17.1934 48.746 17.2487 48.7628 17.2634C48.7795 17.2781 48.8204 17.3113 48.8538 17.337C48.8873 17.3628 49.01 17.4733 49.1252 17.5838C49.3948 17.8379 49.6978 18.0423 50.2815 18.3609C50.5305 18.4971 50.7387 18.6076 50.7443 18.6076C50.7499 18.6076 50.7796 18.6187 50.8112 18.6334C50.8447 18.6463 50.9469 18.6905 51.038 18.7273C51.131 18.766 51.2648 18.8249 51.3354 18.8581C51.9229 19.1324 52.7575 19.4289 53.3114 19.556C53.4211 19.5817 53.5401 19.6112 53.5754 19.6204C53.6665 19.6462 54.1609 19.7254 54.384 19.7493C55.2168 19.8395 55.8748 19.8046 57.3768 19.5928C57.5515 19.5689 57.7263 19.5449 57.7672 19.5412C57.8471 19.532 59.6019 19.0956 59.6632 19.0698C59.6837 19.0606 59.7599 19.0348 59.8305 19.0127C60.1503 18.9151 60.7135 18.6776 61.0202 18.51C61.1931 18.4161 61.5779 18.1841 61.6987 18.1012C61.7452 18.0699 61.8418 18.0036 61.9125 17.9539C62.0575 17.8545 62.4962 17.5378 62.5817 17.4715C62.6133 17.4475 62.6467 17.4218 62.656 17.4144C62.7341 17.3536 63.0464 17.129 63.1207 17.0774C63.1728 17.0424 63.2806 16.9669 63.3624 16.908C63.4442 16.8491 63.5799 16.7552 63.6635 16.6962C64.1283 16.374 64.5409 15.9173 64.7324 15.514C64.8402 15.2912 64.8421 15.1034 64.7398 15.0021C64.6989 14.9598 64.6748 14.9542 64.5391 14.9487C64.4536 14.9469 64.3718 14.9487 64.3569 14.9542Z" fill="#737373"/>
</svg>
