<svg width="100" height="33" viewBox="0 0 100 33" fill="none" xmlns="http://www.w3.org/2000/svg">
<path d="M13.613 25.0245L9.5474 18.2425H8.01972V25.0245H4.54547L4.54547 7.61328H11.1736C13.1941 7.61328 14.73 8.10652 15.7813 9.09298C16.8491 10.0795 17.3829 11.3783 17.3829 12.9895C17.3829 14.3048 17.0133 15.4064 16.2741 16.2942C15.5514 17.182 14.5001 17.7739 13.1202 18.0698L17.4569 25.0245H13.613ZM8.01972 15.8503H10.878C12.8656 15.8503 13.8594 14.9707 13.8594 13.2115C13.8594 12.373 13.613 11.7236 13.1202 11.2632C12.6438 10.7864 11.8964 10.548 10.878 10.548H8.01972V15.8503Z" fill="#737373"/>
<path d="M43.7936 25.0245L40.689 20.6347L38.0771 25.0245H34.2579L38.767 17.8972L34.1593 11.3619H38.0525L41.0832 15.6777L43.695 11.3619L47.5143 11.3619L42.9312 18.2918L47.6867 25.0245H43.7936Z" fill="#737373"/>
<path d="M56.7637 22.0404V25.0245H54.9403C53.4127 25.0245 52.2382 24.6545 51.4168 23.9147C50.6119 23.1748 50.2095 21.9417 50.2095 20.2154V14.2966H48.3122V11.3619H50.2095V7.98321L53.6837 7.98321V11.3619H56.7391V14.2966H53.6837V20.2647C53.6837 20.9224 53.8151 21.3827 54.0779 21.6458C54.3408 21.9089 54.7843 22.0404 55.4085 22.0404H56.7637Z" fill="#737373"/>
<path d="M64.6106 11.1892C65.7605 11.1892 66.7461 11.4605 67.5674 12.0031C68.3887 12.5456 68.9719 13.2773 69.3169 14.198V11.3619H72.7665V25.0245H69.3169V22.1637C68.9719 23.0844 68.3887 23.8242 67.5674 24.3832C66.7461 24.9258 65.7605 25.1971 64.6106 25.1971C63.4607 25.1971 62.4258 24.9176 61.506 24.3586C60.5861 23.7996 59.8633 22.994 59.3376 21.9417C58.8284 20.8731 58.5738 19.6235 58.5738 18.1932C58.5738 16.7628 58.8284 15.5215 59.3376 14.4692C59.8633 13.4006 60.5861 12.5867 61.506 12.0277C62.4258 11.4687 63.4607 11.1892 64.6106 11.1892ZM65.6948 14.2226C64.6106 14.2226 63.74 14.5761 63.0829 15.2831C62.4259 15.99 62.0973 16.9601 62.0973 18.1932C62.0973 19.4262 62.4259 20.3963 63.0829 21.1032C63.74 21.7938 64.6106 22.139 65.6948 22.139C66.7461 22.139 67.6085 21.7855 68.282 21.0786C68.9719 20.3552 69.3169 19.3934 69.3169 18.1932C69.3169 16.9765 68.9719 16.0147 68.282 15.3077C67.6085 14.5843 66.7461 14.2226 65.6948 14.2226Z" fill="#737373"/>
<path d="M95.4546 11.3619L91.7832 25.0245H87.9393L85.0072 15.0858L82.0011 25.0245H78.1572L74.5105 11.3619H77.9848L80.2024 21.9171L83.2331 11.3619H86.9045L89.9598 21.9171L92.2021 11.3619L95.4546 11.3619Z" fill="#737373"/>
<ellipse cx="25.6829" cy="17.7025" rx="8.08502" ry="8.09213" fill="#737373"/>
</svg>
