<svg width="100" height="33" viewBox="0 0 100 33" fill="none" xmlns="http://www.w3.org/2000/svg">
<path d="M11.6594 22.6884L15.5265 12.1184H12.4038L10.3358 18.0136C10.2531 18.2204 10.1566 18.5514 10.0463 19.0065C9.93603 18.5514 9.83952 18.2204 9.7568 18.0136L7.66813 12.1184H4.54547L8.41261 22.6884H11.6594ZM20.9446 22.9366C22.0613 22.9366 22.9368 22.5918 23.571 21.9023V22.6884H26.5489V16.0072C26.5489 13.2492 25.053 11.8702 22.0613 11.8702C20.338 11.8702 18.8284 12.3115 17.5324 13.194L18.463 15.49C19.5797 14.7454 20.7102 14.3731 21.8545 14.3731C22.3922 14.3731 22.8127 14.5006 23.116 14.7557C23.4193 15.0108 23.571 15.3797 23.571 15.8624V16.4415C23.0195 16.1933 22.2475 16.0692 21.2548 16.0692C20.1105 16.0692 19.111 16.3622 18.2562 16.9483C17.4015 17.5344 16.9741 18.3721 16.9741 19.4615C16.9741 20.5785 17.3429 21.4369 18.0805 22.0368C18.818 22.6366 19.7728 22.9366 20.9446 22.9366ZM21.5237 20.413C20.4483 20.413 19.9106 20.1028 19.9106 19.4822C19.9106 18.8065 20.531 18.4686 21.7718 18.4686C22.4198 18.4686 23.0195 18.5514 23.571 18.7169V19.6684C22.9506 20.1648 22.2681 20.413 21.5237 20.413ZM32.9803 22.9366C34.2487 22.9366 35.2137 22.5298 35.8755 21.7162V22.6884H38.8741V12.1184H35.8755V17.6619C35.8755 18.4755 35.7273 19.0754 35.4309 19.4615C35.1345 19.8476 34.6692 20.0407 34.035 20.0407C33.4008 20.0407 32.9596 19.8476 32.7115 19.4615C32.4633 19.0754 32.3392 18.4618 32.3392 17.6206V12.1184H29.3406V18.9858C29.3406 19.7028 29.4544 20.3303 29.6819 20.8681C29.9093 21.4059 30.2092 21.8196 30.5814 22.1092C30.9537 22.3988 31.3397 22.6091 31.7395 22.7401C32.1393 22.8711 32.5529 22.9366 32.9803 22.9366ZM45.078 22.6884V7.75391L42.0795 9.16047V22.6884H45.078ZM51.4681 22.9366C52.4194 22.9366 53.219 22.778 53.867 22.4608L54.1979 19.9373C53.5913 20.2131 52.9846 20.351 52.378 20.351C52.2126 20.351 52.0713 20.2993 51.9541 20.1958C51.8369 20.0924 51.7783 19.9442 51.7783 19.7511V14.7454L54.0738 14.7454V12.1184L51.7783 12.1184V7.75391L48.8004 9.18116V12.1184H47.3528V14.7454H48.8004V20.0407C48.8004 21.9713 49.6897 22.9366 51.4681 22.9366ZM61.5185 22.9366C62.9248 22.9366 64.0346 22.4539 64.848 21.4886C65.6614 20.5233 66.0681 19.1581 66.0681 17.393C66.0681 15.7245 65.6545 14.3868 64.8273 13.3802C64.0001 12.3735 62.9524 11.8702 61.684 11.8702C60.7603 11.8702 60.0572 12.208 59.5746 12.8837V7.75391L56.5761 9.09842V22.6884H59.5746V21.8816C59.9882 22.5849 60.6362 22.9366 61.5185 22.9366ZM61.1877 20.0407C60.457 20.0407 59.9193 19.8201 59.5746 19.3788V15.4487C59.9469 14.9936 60.4846 14.7661 61.1877 14.7661C61.7943 14.7661 62.2596 14.9936 62.5836 15.4487C62.9075 15.9037 63.0695 16.5519 63.0695 17.393C63.0695 18.2204 62.9075 18.8686 62.5836 19.3374C62.2596 19.8063 61.7943 20.0407 61.1877 20.0407Z" fill="#737373"/>
<path d="M87.4514 22.6881L89.0438 20.5162C89.4712 19.8957 89.6918 19.5647 89.7055 19.5233C89.8986 19.8957 90.1054 20.2266 90.3259 20.5162L91.9597 22.6881H95.4546L91.4633 17.2273L95.2064 12.1182H91.7115L90.3259 13.9591C90.1191 14.2211 89.9123 14.5452 89.7055 14.9313C89.6642 14.8348 89.4436 14.5107 89.0438 13.9591L87.7203 12.1182H84.2254L87.9684 17.2273L83.9565 22.6881H87.4514Z" fill="#737373"/>
<path fill-rule="evenodd" clip-rule="evenodd" d="M75.6503 9.46731L81.748 12.9719C78.0157 15.2625 75.8606 16.4078 75.2824 16.4078C73.9138 15.8395 72.3039 15.2332 70.4526 14.5889C73.4236 16.4225 75.0335 17.3393 75.2824 17.3393C75.5214 17.3393 77.8657 16.1318 82.3155 13.7166C82.3164 13.7192 82.3164 13.7222 82.3164 13.7252V20.9535C82.3164 21.218 82.175 21.4623 81.9457 21.594L75.6503 25.2114C75.4225 25.3423 75.1424 25.3423 74.9146 25.2114L68.6191 21.594C68.3898 21.4623 68.2485 21.218 68.2485 20.9535V13.7252C68.2485 13.4607 68.3898 13.2164 68.6191 13.0846L74.9146 9.46731C75.1424 9.33642 75.4225 9.33642 75.6503 9.46731Z" fill="#737373"/>
</svg>
