<svg xmlns="http://www.w3.org/2000/svg" width="199" height="32" viewBox="0 0 199 32" fill="none">
<path d="M1.77474 14.9634C2.49587 11.3577 5.6508 8.8338 10.1578 8.8338C15.386 8.8338 19.3973 10.9972 19.3973 18.0732V31.1437H14.9804L14.4395 28.3493C12.9071 30.2422 10.8339 31.5042 7.67897 31.5042C3.93812 31.5042 1.00854 29.1606 1.00854 24.8338C1.00854 20.507 4.8846 17.6676 10.3832 17.6676H14.0339V16.6761C14.0339 14.1972 12.186 13.431 10.1578 13.431C8.62545 13.431 7.04798 13.9268 6.37193 15.9549L1.77474 14.9634ZM8.89587 26.907C11.3747 26.907 13.9438 25.2394 13.9438 22.4V21.9944H10.3381C7.99446 21.9042 6.59728 22.8507 6.59728 24.7437C6.64235 25.7803 7.40854 26.907 8.89587 26.907Z" fill="#010101"/>
<path d="M107.194 14.9634C107.916 11.3577 111.071 8.8338 115.578 8.8338C120.806 8.8338 124.817 10.9972 124.817 18.0732V31.1437H120.4L119.859 28.3493C118.327 30.2422 116.254 31.5042 113.099 31.5042C109.358 31.5042 106.428 29.1606 106.428 24.8338C106.428 20.507 110.304 17.6676 115.803 17.6676H119.454V16.6761C119.454 14.1972 117.606 13.431 115.578 13.431C114.045 13.431 112.468 13.9268 111.792 15.9549L107.194 14.9634ZM114.316 26.907C116.794 26.907 119.363 25.2394 119.363 22.4V21.9944H115.758C113.414 21.9944 112.017 22.8507 112.017 24.7887C112.062 25.7803 112.828 26.907 114.316 26.907Z" fill="#010101"/>
<path d="M129.73 31.1887V9.14929H135.138V12.7549C136.671 10.1408 139.149 8.8338 141.628 8.8338C142.62 8.8338 143.386 8.96901 144.287 9.23943L143.296 14.2423C142.665 13.8366 141.944 13.6113 141.042 13.6113C137.887 13.6113 135.138 16.2253 135.138 23.3014V31.0986L129.73 31.1887Z" fill="#010101"/>
<path d="M155.825 8.83378C158.079 8.83378 160.197 9.96054 161.189 11.1774V0.360535H166.597V31.2338H161.189V28.9803C160.558 30.107 158.575 31.5943 155.825 31.5943C149.2 31.5943 145.82 27.0422 145.82 20.2817C145.82 13.476 149.2 8.83378 155.825 8.83378ZM156.592 26.907C159.386 26.907 161.64 24.5633 161.64 20.2366C161.64 15.8648 159.386 13.5662 156.592 13.5662C153.797 13.5662 151.544 15.9098 151.544 20.2366C151.499 24.6084 153.752 26.907 156.592 26.907Z" fill="#010101"/>
<path d="M186.158 12.3493L182.913 15.3239C181.921 13.9718 180.434 13.431 179.262 13.431C178.225 13.431 177.234 14.062 177.234 15.2789C177.234 16.2704 178 16.9465 179.352 17.3972C182.372 18.5239 187.285 19.4253 187.285 24.1577C187.285 28.169 184.265 31.4591 179.487 31.4591C174.935 31.4591 171.825 28.2141 170.744 25.5549L175.025 23.2113C175.792 25.3296 177.279 26.862 179.442 26.862C181.11 26.862 182.192 26.0958 182.192 24.4732C182.192 22.6253 179.397 22.2197 176.693 21.0929C174.304 20.1014 172.276 18.569 172.276 15.1887C172.276 11.8084 175.025 8.78872 179.307 8.78872C182.192 8.74365 184.806 10.231 186.158 12.3493Z" fill="#010101"/>
<path d="M73.4367 9.19434L69.5607 24.2929L65.8198 9.19434H60.7719L57.0762 24.2929L54.0114 15.5042L53.6508 16.5859L51.8931 22.2197L54.6874 31.1887H59.51L63.2959 16.9915L67.0818 31.1887H71.8593L78.8902 9.19434H73.4367Z" fill="#010101"/>
<path d="M99.5776 9.19434L95.6564 24.2929L91.9156 9.19434H86.8677L83.217 24.2929L80.1071 15.5042L79.7466 16.5859L77.9888 22.2197L80.8283 31.1887H85.6057L89.3916 16.9915L93.1776 31.1887H97.955L105.031 9.19434H99.5776Z" fill="#010101"/>
<path d="M52.7945 9.19434L45.7635 31.1436H40.986L37.2001 16.9465L33.4142 31.2338H28.6367L21.6057 9.28448H27.1043L31.0255 24.338L34.7663 9.28448H39.7691L43.51 24.338L47.4311 9.28448L52.7945 9.19434Z" fill="#010101"/>
<path d="M194.316 24.1127C196.434 24.1127 197.966 25.6451 197.966 27.7634C197.966 29.8817 196.434 31.4141 194.316 31.4141C192.197 31.4141 190.665 29.8817 190.665 27.7634C190.665 25.6451 192.242 24.1127 194.316 24.1127Z" fill="#010101"/>
</svg>
