<svg xmlns="http://www.w3.org/2000/svg" width="211" height="32" viewBox="0 0 211 32" fill="none">
<g clip-path="url(#clip0_281_3155)">
<path d="M21.5658 20.5306L11.1851 10.2653L21.5658 0H11.1851L0.804474 10.2653L5.9948 15.4556L11.1851 20.5306L16.3755 25.6056L21.5658 20.5306Z" fill="#010101"/>
<path d="M28.9476 15.4556L23.7573 10.2653L18.5669 5.19031L13.4919 10.2653L23.7573 20.5306L13.3766 30.7959H23.7573L28.9476 25.7209L34.1379 20.5306L28.9476 15.4556Z" fill="#010101"/>
<path d="M47.0561 10.2654C45.5566 10.2654 44.2879 10.7267 43.3652 11.7648C42.4424 12.8029 41.9811 14.1869 41.9811 16.0324C41.9811 17.8778 42.4424 19.2619 43.2498 20.3C44.1726 21.3381 45.326 21.7994 46.9407 21.7994C47.9788 21.7994 49.0169 21.5687 50.2856 21.2227V22.7221C49.2475 23.0682 48.0941 23.2989 46.7101 23.2989C44.6339 23.2989 43.0192 22.7222 41.8657 21.4534C40.7123 20.1847 40.1356 18.3392 40.1356 16.0324C40.1356 14.533 40.3663 13.2642 40.943 12.2261C41.5197 11.1881 42.3271 10.2654 43.2498 9.68866C44.1726 9.11195 45.4413 8.76593 46.9407 8.76593C48.4402 8.76593 49.7089 8.99661 50.8623 9.57331L50.1703 10.9574C49.2475 10.6114 48.2095 10.2654 47.0561 10.2654Z" fill="#010101"/>
<path d="M61.4737 19.3773C61.4737 20.646 61.0123 21.5687 60.0896 22.2608C59.1668 22.9528 58.0134 23.2988 56.3987 23.2988C54.6686 23.2988 53.3998 23.0682 52.4771 22.6068V20.992C53.0538 21.2227 53.7458 21.4534 54.3225 21.5687C54.8992 21.6841 55.7066 21.7994 56.3987 21.7994C57.5521 21.7994 58.3595 21.5687 58.8208 21.2227C59.3975 20.7613 59.6282 20.1846 59.6282 19.4926C59.6282 19.0312 59.5129 18.5699 59.2822 18.3392C59.0515 17.9932 58.7055 17.7625 58.2441 17.4165C57.7828 17.1858 57.0907 16.8398 56.168 16.4937C54.8992 16.0324 53.8612 15.4557 53.3998 14.7636C52.8231 14.0716 52.5924 13.2642 52.5924 12.2261C52.5924 11.1881 53.0538 10.2653 53.8612 9.5733C54.6686 8.88125 55.822 8.65057 57.0907 8.65057C58.4748 8.65057 59.7436 8.88126 61.0123 9.45796L60.5509 10.842C59.3975 10.3807 58.2441 10.15 57.0907 10.15C56.168 10.15 55.5913 10.3807 55.0146 10.7267C54.5532 11.0727 54.3225 11.6494 54.3225 12.3415C54.3225 12.8028 54.4379 13.2642 54.5532 13.4949C54.7839 13.8409 55.0146 14.0716 55.4759 14.3023C55.9373 14.5329 56.514 14.879 57.4367 15.225C58.9362 15.8017 59.9742 16.3784 60.5509 16.9551C61.243 17.6471 61.4737 18.4545 61.4737 19.3773Z" fill="#010101"/>
<path d="M72.431 19.3773C72.431 20.646 71.9697 21.5687 71.0469 22.2608C70.1242 22.9528 68.9708 23.2988 67.356 23.2988C65.6259 23.2988 64.3572 23.0682 63.4344 22.6068V20.992C64.0112 21.2227 64.7032 21.4534 65.2799 21.5687C65.8566 21.6841 66.664 21.7994 67.356 21.7994C68.5094 21.7994 69.3168 21.5687 69.7782 21.2227C70.3549 20.7613 70.5856 20.1846 70.5856 19.4926C70.5856 19.0312 70.4702 18.5699 70.2395 18.3392C70.0089 17.9932 69.6628 17.7625 69.2015 17.4165C68.7401 17.1858 68.0481 16.8398 67.1254 16.4937C65.8566 16.0324 64.8185 15.4557 64.3572 14.7636C63.7805 14.0716 63.5498 13.2642 63.5498 12.2261C63.5498 11.1881 64.0112 10.2653 64.8185 9.5733C65.6259 8.88125 66.7793 8.65057 68.0481 8.65057C69.4322 8.65057 70.7009 8.88126 71.9697 9.45796L71.5083 10.842C70.3549 10.3807 69.2015 10.15 68.0481 10.15C67.1254 10.15 66.5486 10.3807 65.9719 10.7267C65.5106 11.0727 65.2799 11.6494 65.2799 12.3415C65.2799 12.8028 65.3952 13.2642 65.5106 13.4949C65.7413 13.8409 65.9719 14.0716 66.4333 14.3023C66.8947 14.5329 67.4714 14.879 68.3941 15.225C69.8935 15.8017 70.9316 16.3784 71.5083 16.9551C72.085 17.6471 72.431 18.4545 72.431 19.3773Z" fill="#010101"/>
<path d="M86.8486 15.8017C86.8486 18.1085 86.1566 19.9539 84.8878 21.2227C83.6191 22.4914 81.7736 23.1835 79.3515 23.1835H74.7378V8.99658H79.5821C81.889 8.99658 83.6191 9.57329 84.8878 10.7267C86.1566 11.8801 86.8486 13.6102 86.8486 15.8017ZM82.927 15.917C82.927 14.6483 82.6963 13.6102 82.1196 13.0335C81.6583 12.4568 80.8509 12.1108 79.8128 12.1108H78.6594V20.0693H79.4668C80.6202 20.0693 81.4276 19.7233 82.0043 19.0312C82.6963 18.3392 82.927 17.3011 82.927 15.917Z" fill="#010101"/>
<path d="M94.4611 23.4141C92.6156 23.4141 91.2316 22.9528 90.1935 21.9147C89.1554 20.992 88.6941 19.6079 88.6941 17.7625C88.6941 15.917 89.1554 14.5329 90.0781 13.4949C91.0009 12.4568 92.385 11.9954 94.1151 11.9954C95.7298 11.9954 96.9986 12.4568 97.9213 13.2642C98.844 14.0716 99.3054 15.3403 99.3054 16.9551V18.6852H92.5003C92.5003 19.2619 92.731 19.7232 93.1923 20.1846C93.6537 20.5306 94.2304 20.7613 94.9225 20.7613C95.6145 20.7613 96.1912 20.646 96.7679 20.5306C97.3446 20.4153 97.9213 20.1846 98.6134 19.8386V22.6068C98.0367 22.9528 97.4599 23.0681 96.7679 23.1835C96.0759 23.2988 95.3838 23.4141 94.4611 23.4141ZM94.2304 14.6483C93.7691 14.6483 93.423 14.7636 93.077 15.1096C92.731 15.3403 92.6156 15.8017 92.5003 16.3784H95.7298C95.7298 15.8017 95.6145 15.4556 95.2685 15.1096C95.1531 14.7636 94.8071 14.6483 94.2304 14.6483Z" fill="#010101"/>
<path d="M109.917 19.8386C109.917 20.992 109.571 21.9148 108.763 22.4915C107.956 23.0682 106.803 23.4142 105.303 23.4142C104.496 23.4142 103.804 23.4142 103.227 23.2988C102.65 23.1835 101.958 23.0682 101.382 22.8375V19.8386C101.958 20.0693 102.65 20.3 103.342 20.5307C104.034 20.646 104.611 20.7613 105.188 20.7613C105.995 20.7613 106.457 20.5307 106.457 20.1846C106.457 19.954 106.341 19.8386 106.111 19.7233C105.88 19.6079 105.188 19.2619 104.15 18.8006C103.112 18.3392 102.42 17.8778 102.074 17.4165C101.728 16.8398 101.497 16.2631 101.497 15.4557C101.497 14.4176 101.843 13.6102 102.65 13.0335C103.458 12.4568 104.496 12.2261 105.995 12.2261C106.687 12.2261 107.379 12.3415 108.071 12.4568C108.763 12.5722 109.34 12.8028 110.032 13.1489L108.994 15.571C108.533 15.3403 107.956 15.1097 107.379 14.9943C106.803 14.879 106.341 14.7636 105.995 14.7636C105.418 14.7636 105.072 14.879 105.072 15.225C105.072 15.4557 105.188 15.571 105.418 15.6864C105.649 15.8017 106.226 16.0324 107.264 16.4937C108.071 16.8398 108.648 17.0704 108.994 17.4165C109.34 17.7625 109.686 18.1085 109.801 18.4545C109.801 18.6852 109.917 19.2619 109.917 19.8386Z" fill="#010101"/>
<path d="M111.993 9.45795C111.993 8.88125 112.108 8.41989 112.454 8.18921C112.8 7.95853 113.262 7.72784 113.954 7.72784C114.646 7.72784 115.222 7.84318 115.453 8.18921C115.799 8.41989 115.914 8.88125 115.914 9.45795C115.914 10.6114 115.222 11.0727 113.838 11.0727C112.57 11.1881 111.993 10.6114 111.993 9.45795ZM115.799 23.1835H111.993V12.2261H115.799V23.1835Z" fill="#010101"/>
<path d="M128.833 12.2261V14.0716L127.333 14.6483C127.564 14.9943 127.679 15.4556 127.679 15.917C127.679 17.0704 127.218 17.9931 126.41 18.6852C125.603 19.3772 124.334 19.6079 122.72 19.6079C122.258 19.6079 122.028 19.6079 121.797 19.4926C121.681 19.6079 121.681 19.8386 121.681 19.9539C121.681 20.1846 121.797 20.2999 122.143 20.4153C122.489 20.5306 122.835 20.5306 123.296 20.5306H125.142C127.564 20.5306 128.833 21.5687 128.833 23.6448C128.833 25.0289 128.256 26.067 127.102 26.759C125.949 27.4511 124.334 27.9124 122.258 27.9124C120.759 27.9124 119.49 27.6818 118.683 27.105C117.875 26.6437 117.414 25.8363 117.414 24.9136C117.414 23.6448 118.221 22.7221 119.836 22.3761C119.49 22.2607 119.259 22.0301 118.913 21.684C118.683 21.338 118.567 21.1073 118.567 20.7613C118.567 20.4153 118.683 20.0693 118.798 19.8386C119.029 19.6079 119.375 19.2619 119.951 18.9159C119.375 18.6852 118.913 18.2238 118.567 17.7625C118.221 17.1858 118.106 16.609 118.106 15.8017C118.106 14.6483 118.567 13.7255 119.375 13.0335C120.182 12.3414 121.335 11.9954 122.835 11.9954C123.066 11.9954 123.412 11.9954 123.873 12.1108C124.334 12.1108 124.68 12.2261 124.911 12.2261H128.833ZM120.528 24.5676C120.528 24.9136 120.643 25.1443 120.989 25.3749C121.335 25.6056 121.797 25.6056 122.374 25.6056C123.296 25.6056 123.988 25.4903 124.565 25.2596C125.142 25.0289 125.372 24.6829 125.372 24.3369C125.372 23.9909 125.257 23.8755 124.911 23.7602C124.565 23.6448 124.104 23.5295 123.412 23.5295H121.912C121.451 23.5295 121.22 23.6448 120.874 23.7602C120.643 23.9909 120.528 24.2215 120.528 24.5676ZM121.681 15.8017C121.681 16.9551 122.028 17.5318 122.835 17.5318C123.181 17.5318 123.527 17.4164 123.642 17.0704C123.873 16.8397 123.988 16.3784 123.988 15.8017C123.988 14.6483 123.642 14.0716 122.835 14.0716C122.143 14.0716 121.681 14.6483 121.681 15.8017Z" fill="#010101"/>
<path d="M137.368 23.1835V17.1858C137.368 16.4937 137.252 15.917 137.022 15.571C136.791 15.225 136.445 14.9943 135.984 14.9943C135.292 14.9943 134.83 15.225 134.6 15.8017C134.369 16.2631 134.138 17.1858 134.138 18.4545V23.2988H130.332V12.3415H133.216L133.677 13.7256H133.908C134.254 13.2642 134.715 12.8028 135.292 12.5722C135.868 12.3415 136.56 12.2261 137.252 12.2261C138.521 12.2261 139.444 12.5722 140.136 13.2642C140.828 13.9562 141.174 14.9943 141.174 16.2631V23.4142H137.368V23.1835Z" fill="#010101"/>
<path d="M153.285 23.1835L151.555 18.6852H145.903L144.173 23.1835H142.558L148.21 8.99658H149.594L155.13 23.1835H153.285ZM150.978 17.1858L149.363 12.8028C149.133 12.2261 148.902 11.5341 148.671 10.7267C148.556 11.3034 148.325 11.9954 148.094 12.8028L146.48 17.1858H150.978Z" fill="#010101"/>
<path d="M165.396 23.1835L163.435 16.9551C163.319 16.6091 163.089 15.6864 162.743 14.4176H162.627C162.397 15.571 162.166 16.3784 161.935 17.0704L159.975 23.2988H158.129L155.246 12.6875H156.976C157.668 15.3403 158.129 17.4165 158.59 18.8006C158.937 20.1846 159.167 21.1074 159.167 21.5687H159.283C159.398 21.2227 159.513 20.7613 159.629 20.1846C159.744 19.6079 159.975 19.1466 160.09 18.8006L162.051 12.6875H163.781L165.626 18.8006C165.972 19.954 166.203 20.8767 166.318 21.5687H166.434C166.434 21.338 166.549 20.992 166.664 20.5307C166.78 20.0693 167.472 17.4165 168.625 12.6875H170.24L167.356 23.2988H165.396V23.1835Z" fill="#010101"/>
<path d="M178.66 23.1835L178.314 21.6841H178.198C177.622 22.3761 177.16 22.8375 176.584 23.0682C176.007 23.2989 175.43 23.4142 174.623 23.4142C173.585 23.4142 172.777 23.1835 172.201 22.6068C171.624 22.0301 171.278 21.3381 171.278 20.3C171.278 18.1085 173.008 17.0705 176.468 16.9551L178.314 16.8398V16.1477C178.314 15.3403 178.083 14.6483 177.737 14.3023C177.391 13.9563 176.814 13.7256 176.007 13.7256C175.084 13.7256 174.161 13.9563 173.008 14.533L172.547 13.2642C173.123 13.0335 173.585 12.8029 174.277 12.5722C174.854 12.4568 175.546 12.3415 176.122 12.3415C177.391 12.3415 178.314 12.5722 178.89 13.1489C179.467 13.7256 179.813 14.6483 179.813 15.8017V23.0682H178.66V23.1835ZM174.969 22.0301C176.007 22.0301 176.699 21.7994 177.276 21.2227C177.852 20.646 178.083 19.954 178.083 18.9159V17.9932L176.468 18.1085C175.2 18.1085 174.277 18.3392 173.7 18.6852C173.123 19.0313 172.893 19.608 172.893 20.3C172.893 20.8767 173.123 21.3381 173.469 21.5687C173.931 21.9148 174.392 22.0301 174.969 22.0301Z" fill="#010101"/>
<path d="M188.002 12.3415C188.464 12.3415 188.925 12.3415 189.271 12.4568L189.04 13.9563C188.579 13.8409 188.233 13.8409 187.887 13.8409C187.08 13.8409 186.272 14.1869 185.696 14.879C185.119 15.571 184.773 16.4938 184.773 17.5318V23.1835H183.158V12.5722H184.427L184.657 14.533H184.773C185.119 13.8409 185.696 13.2642 186.157 12.9182C186.734 12.5722 187.31 12.3415 188.002 12.3415Z" fill="#010101"/>
<path d="M198.498 21.7994C197.691 22.8375 196.538 23.4142 195.038 23.4142C193.654 23.4142 192.616 22.9528 191.809 22.0301C191.001 21.1073 190.655 19.7233 190.655 17.9931C190.655 16.263 191.001 14.879 191.809 13.9562C192.616 13.0335 193.654 12.4568 195.038 12.4568C196.422 12.4568 197.576 13.0335 198.383 14.0716H198.498L198.383 13.2642V12.5721V8.07385H199.998V23.1835H198.729L198.498 21.7994ZM195.269 22.0301C196.422 22.0301 197.114 21.684 197.691 21.1073C198.152 20.5306 198.383 19.4926 198.383 18.2238V17.8778C198.383 16.3784 198.152 15.3403 197.576 14.6483C197.114 13.9562 196.307 13.7255 195.153 13.7255C194.231 13.7255 193.539 14.0716 192.962 14.879C192.501 15.571 192.155 16.6091 192.155 17.9931C192.155 19.3772 192.385 20.4153 192.847 21.1073C193.539 21.684 194.231 22.0301 195.269 22.0301Z" fill="#010101"/>
<path d="M210.263 20.3C210.263 21.3381 209.917 22.0301 209.11 22.6068C208.418 23.1835 207.38 23.4142 205.996 23.4142C204.611 23.4142 203.458 23.1835 202.651 22.7222V21.2227C203.112 21.4534 203.689 21.6841 204.265 21.7994C204.842 21.9148 205.419 22.0301 205.996 22.0301C206.803 22.0301 207.495 21.9148 207.956 21.6841C208.418 21.4534 208.648 20.992 208.648 20.4153C208.648 19.954 208.418 19.608 208.072 19.3773C207.726 19.0313 207.034 18.6852 205.996 18.3392C204.957 17.9932 204.265 17.6472 203.919 17.4165C203.458 17.1858 203.227 16.8398 202.997 16.4938C202.766 16.1477 202.651 15.6864 202.651 15.225C202.651 14.4176 202.997 13.7256 203.689 13.1489C204.381 12.5722 205.303 12.3415 206.572 12.3415C207.726 12.3415 208.879 12.5722 209.917 13.0335L209.34 14.3023C208.302 13.8409 207.264 13.6102 206.457 13.6102C205.649 13.6102 205.073 13.7256 204.727 13.9563C204.381 14.1869 204.15 14.533 204.15 14.9943C204.15 15.225 204.265 15.571 204.381 15.6864C204.496 15.9171 204.727 16.0324 205.073 16.2631C205.419 16.4938 205.995 16.7244 206.918 17.0705C208.187 17.5318 208.994 17.9932 209.456 18.4545C210.032 19.0313 210.263 19.608 210.263 20.3Z" fill="#010101"/>
</g>
<defs>
<clipPath id="clip0_281_3155">
<rect width="209.92" height="32" fill="white" transform="translate(0.804474)"/>
</clipPath>
</defs>
</svg>