<svg xmlns="http://www.w3.org/2000/svg" width="94" height="28" viewBox="0 0 94 28" fill="none">
<g clip-path="url(#clip0_281_3150)">
<path fill-rule="evenodd" clip-rule="evenodd" d="M80.9688 4.51882C80.6916 4.35248 80.3589 4.26932 79.9985 4.26932V4.29704H61.2025C60.7035 4.29704 60.2599 4.46338 59.8995 4.76833C59.6223 4.93467 59.4005 5.18418 59.2342 5.4614L52.8999 17.2448L51.9527 15.3871L47.2302 5.84952C47.0368 5.48415 46.8767 5.26874 46.6466 5.06119C46.5865 4.99768 46.5222 4.93697 46.454 4.87924C46.1371 4.59258 45.73 4.41266 45.2995 4.36629C45.2226 4.35716 45.1452 4.35249 45.0678 4.35249C44.7629 4.35249 44.4579 4.40793 44.1807 4.54655C44.0088 4.62876 43.8712 4.7291 43.7558 4.84378C43.4198 5.13619 43.1909 5.53103 43.1001 5.95862C43.0908 5.97764 43.0814 5.99672 43.0718 6.01586L37.0702 17.2171L31.0956 5.48913C30.8738 5.04557 30.5134 4.7129 30.0975 4.51884C29.8203 4.38022 29.5154 4.29706 29.1827 4.29706H29.1628C29.1602 4.29705 29.1576 4.29704 29.155 4.29704H13.9906C13.6302 4.29704 13.2975 4.38021 13.0203 4.54655C12.4104 4.87922 11.9669 5.54456 11.9669 6.3208V12.0871H6.36685C5.25794 12.0871 4.34309 13.002 4.34309 14.1109C4.34309 15.2198 5.23022 16.1347 6.36685 16.1347H6.38712C6.3896 16.1347 6.39209 16.1347 6.39457 16.1347L11.9669 16.1347V21.7347C11.9669 22.8436 12.854 23.7584 13.9906 23.7584C13.995 23.7584 13.9993 23.7584 14.0036 23.7584C14.0085 23.7584 14.0134 23.7584 14.0183 23.7584C15.1272 23.7584 16.0421 22.8436 16.0421 21.7347V16.1347H25.6896C26.7985 16.1347 27.7134 15.2198 27.7134 14.1109C27.7134 13.002 26.7985 12.0872 25.6896 12.0872H25.6695C25.667 12.0872 25.6644 12.0871 25.6619 12.0871H16.0421V8.34459H27.9629L35.1154 22.3723C35.1288 22.3992 35.1423 22.4277 35.1561 22.4571C35.1993 22.5488 35.2464 22.6487 35.3094 22.7327C35.5317 23.1259 35.8804 23.4136 36.2776 23.5765C36.7983 23.8036 37.4121 23.808 37.9708 23.5367C38.2696 23.4008 38.5152 23.1985 38.701 22.9556C38.906 22.7128 39.0657 22.4282 39.1906 22.1228L44.0291 12.9001L45.109 10.8938L50.9451 22.3723C51.0005 22.5109 51.056 22.6218 51.1391 22.7327C51.3611 23.1255 51.7094 23.4131 52.1061 23.576C52.6271 23.8036 53.2414 23.8082 53.8005 23.5367C54.4104 23.2594 54.7985 22.705 54.9094 22.0951L62.3391 8.34459L77.947 8.34457V12.0871H64.4183C64.3508 12.0871 64.2839 12.0905 64.218 12.0971C63.2295 12.1954 62.4466 13.0141 62.3946 14.0277V21.6238C62.3946 22.183 62.6202 22.6928 62.9896 23.0609C63.3414 23.4114 63.8237 23.6334 64.3658 23.6469C64.3832 23.6473 64.4008 23.6475 64.4183 23.6475L79.3055 23.6476C79.4533 23.703 79.6012 23.6845 79.749 23.666C79.8229 23.6568 79.8969 23.6476 79.9708 23.6476C79.9731 23.6476 79.9753 23.6475 79.9776 23.6475H79.9985C81.1074 23.6475 82.0223 22.7327 82.0223 21.6238V16.1347H87.5946C88.0382 16.1347 88.4508 15.9883 88.7861 15.7416C89.3046 15.3788 89.6461 14.7776 89.6461 14.0832C89.6461 12.9743 88.7312 12.0594 87.6223 12.0594H82.0223L82.0223 6.32082L82.0223 6.29309C82.0223 5.54457 81.6065 4.85149 80.9688 4.51882ZM61.2302 0.110901H79.9985C81.0243 0.110901 82.05 0.360411 82.854 0.887144C84.85 1.96833 86.0975 4.04753 86.0975 6.3208V7.92873H87.5391C90.949 7.92873 93.7213 10.701 93.7213 14.1109C93.7213 17.5208 90.949 20.2931 87.5391 20.2931H86.0975V21.7347C86.0975 25.1446 83.3253 27.806 79.9154 27.806H64.3352C61.7292 27.806 59.5114 26.198 58.5966 23.9525C58.0421 25.3941 56.9332 26.5862 55.5193 27.2792C54.6876 27.6673 53.7451 27.8891 52.8302 27.8891C50.6678 27.8891 48.6441 26.7525 47.5352 24.9228C47.3688 24.6733 47.2302 24.4238 47.1193 24.1466L44.9292 19.8495L43.155 23.7862C42.4896 25.3664 41.1589 26.5862 39.6619 27.307C38.8302 27.6951 37.8876 27.9169 36.9728 27.9169C34.8104 27.9169 32.7867 26.7802 31.6777 24.9505C31.5114 24.701 31.3728 24.4515 31.2619 24.1743L28.85 19.406C27.9074 19.9881 26.7985 20.3208 25.6065 20.3208H20.1173V21.7624C20.1173 25.1723 17.3451 27.9446 13.9352 27.9446C10.5253 27.9446 7.75299 25.1723 7.75299 21.7624V20.3208H6.3114C2.9015 20.3208 0.129227 17.5485 0.129227 14.1386C0.129227 10.7287 2.9015 7.95645 6.3114 7.95645H7.75299V6.34853C7.75299 4.07526 9.00051 1.99605 10.9966 0.91486C11.9114 0.41585 12.9371 0.16635 13.9629 0.16635H29.1272C30.0421 0.16635 30.9847 0.360404 31.8164 0.776246C33.0916 1.38615 34.1451 2.38417 34.755 3.65942L37.1391 8.31685L39.1074 4.68516C39.8837 2.99407 40.7708 1.58021 42.3787 0.80397C43.2104 0.415851 44.153 0.194074 45.0678 0.194074C46.5649 0.194074 47.9787 0.720805 49.1154 1.6911C49.9748 2.4119 52.9966 8.31685 52.9966 8.31685L55.6025 3.49308L55.6302 3.43763L55.6579 3.38219C56.1015 2.57823 56.7391 1.91288 57.4599 1.38615C58.5411 0.554467 59.8718 0.110901 61.2302 0.110901ZM66.3589 16.1347V19.5723H77.947V16.1347H66.3589Z" fill="#010101"/>
</g>
<defs>
<clipPath id="clip0_281_3150">
<rect width="93.703" height="28" fill="white" transform="translate(0.101501)"/>
</clipPath>
</defs>
</svg>