<svg width="46" height="64" viewBox="0 0 46 64" fill="none" xmlns="http://www.w3.org/2000/svg">
<g clip-path="url(#clip0_470_1778)">
<path d="M10.2518 11.971C10.2518 11.971 7.32603 9.43905 9.29864 6.86893C11.0332 5.07449 12.7969 6.26084 13.4073 6.77585C13.5329 6.88116 13.7158 6.87872 13.8403 6.77281L14.5854 6.13277C14.7175 6.01922 14.7412 5.82485 14.6398 5.68362C14.2117 5.08286 12.9952 3.64044 11.2805 3.60079C9.24063 3.63681 8.29524 4.64692 7.76995 5.18539C6.78862 6.29219 6.38253 7.86864 6.66612 9.25541C6.78778 10.0678 7.60719 11.8849 9.55389 13.0547" fill="white"/>
<path d="M35.7173 6.03877C35.7929 6.10194 35.9006 6.10937 35.9836 6.05611C36.375 5.80839 37.5616 5.23121 38.659 6.45617C39.9149 7.85949 39.5619 8.807 39.3711 9.23927C39.3402 9.3111 39.3476 9.39285 39.3922 9.45726L39.8889 10.188C39.9718 10.3094 40.1453 10.323 40.2443 10.214C40.6357 9.78548 41.4569 8.56052 41.1423 6.99248C40.7559 5.06648 39.4702 4.28122 38.6614 3.93566C37.6656 3.51082 35.7978 3.21604 34.4886 4.71349C34.4044 4.8101 34.4168 4.95749 34.5147 5.03923L35.7161 6.03753H35.7173V6.03877Z" fill="white"/>
<path d="M32.379 4.22357C32.5116 4.28178 32.6664 4.23224 32.7444 4.10962C33.0528 3.62409 33.9694 2.47097 35.9585 1.93838C38.5162 1.25345 41.3687 2.84874 42.2716 5.14012C42.9553 7.45503 42.658 8.5487 42.2716 9.72783C41.8852 10.907 41.2299 11.4569 40.903 11.6687C40.7915 11.7405 40.7419 11.878 40.7841 12.0043C40.9934 12.6373 41.495 14.5174 40.8324 16.384C40.8014 16.4707 40.8113 16.566 40.8609 16.6428C42.1737 18.2691 42.9169 20.7462 42.7423 22.6599C42.4277 25.464 42.2827 26.7187 41.5012 28.1765C41.4591 28.2558 41.4541 28.3487 41.4901 28.4304C41.8517 29.2553 43.8198 33.8207 43.7542 35.3628C43.743 35.634 43.8297 35.9077 44.0267 36.096C44.2063 36.2694 44.4416 36.3697 44.7388 36.2979C45.0696 36.2174 45.3321 35.9337 45.3297 35.1398C45.3272 34.3991 44.2484 29.8436 43.5362 28.3635C43.5052 28.2991 43.5647 28.2298 43.5845 28.1616C43.7505 27.5931 44.5072 24.9215 44.5134 23.4563C44.7748 20.6843 44.0886 18.4524 43.5337 16.9673C42.9788 15.4823 42.684 14.9311 42.6642 14.7825C42.6605 14.7602 42.6605 14.7379 42.6642 14.7156C42.6865 14.5137 42.8091 13.29 42.7051 12.418C42.694 12.3288 42.7262 12.2397 42.7906 12.1765C43.1572 11.8173 44.4478 9.72783 44.1319 6.7094C43.66 2.19477 39.7944 0.276207 37.2194 0.247719C35.722 0.2118 34.99 0.123861 31.9716 2.24555C31.8997 2.305 31.8043 2.3273 31.7139 2.305C31.0847 2.14894 28.4911 1.57548 26.689 2.19477C26.6283 2.21583 26.5651 2.21706 26.5045 2.19725C25.9471 2.01022 22.9411 1.07509 20.2806 1.67085C20.2806 1.67085 18.2419 2.05976 17.4083 2.42019C17.2931 2.46974 17.1581 2.44496 17.0739 2.35207C16.6974 1.9421 15.5269 0.859579 13.1525 0.170927C13.1439 0.16845 13.1352 0.165973 13.1265 0.164734C12.8726 0.115191 9.41326 -0.433501 6.9299 1.3451C5.30612 2.48212 3.71702 4.51092 3.32811 7.72628C3.22035 10.7757 4.50476 12.7165 5.32594 13.7049C5.40645 13.8015 5.41636 13.939 5.34947 14.0468C4.59394 15.2717 0.256424 22.4951 0.408769 26.6828C0.408769 26.6828 0.380282 27.1955 0.656486 27.3219C0.806354 27.39 0.948791 27.4334 1.09247 27.4507C1.27454 27.473 1.39592 27.6476 1.3439 27.8235C0.850943 29.5055 -0.949955 36.2657 0.658963 40.3344C0.658963 40.3344 0.811309 41.0429 1.68699 41.0206C1.71795 41.0206 1.74891 41.0144 1.77864 41.0033C1.94337 40.9426 2.46853 40.6874 2.40784 39.9393C2.33724 39.0562 2.45491 31.4835 4.42673 26.7967C4.44283 26.7596 4.45026 26.7187 4.44902 26.6778L4.39329 24.2651C4.38709 24.0173 4.09603 23.8873 3.90776 24.0495C3.71826 24.213 3.42224 24.0805 3.42224 23.8303C3.42224 22.8667 3.97465 20.3536 7.62599 14.2598C7.69039 14.152 7.68048 14.0158 7.59998 13.9204C6.81843 12.9977 3.08658 8.13996 7.05995 3.74424C7.05995 3.74424 10.8463 -0.676263 16.5958 4.4044C16.6813 4.47995 16.8026 4.50101 16.9067 4.45394C17.8492 4.03902 22.562 2.15142 26.6865 3.97585C26.7608 4.00929 26.8463 4.01177 26.9206 3.97833C27.4247 3.7591 29.5724 2.98251 32.3828 4.22357H32.379Z" fill="white"/>
<path d="M29.1227 7.87366C28.1566 6.63137 24.431 2.68277 18.1055 5.90308C17.942 5.98606 18.0064 6.23254 18.1898 6.22387C18.6679 6.20034 19.2698 6.23502 19.8049 6.45673C19.9597 6.52113 19.9312 6.74903 19.7677 6.77876C18.4449 7.0178 14.7168 7.8489 12.5604 9.9037C12.4489 10.009 12.5282 10.196 12.6818 10.1948C13.0026 10.191 13.4708 10.2208 13.9835 10.3706C14.121 10.4115 14.1507 10.5936 14.0318 10.6741C13.1091 11.2996 10.2566 13.4077 9.72281 15.9108C9.69061 16.0607 9.86277 16.1734 9.98663 16.0842C10.4387 15.7597 11.3652 15.263 12.8564 15.2036C13.015 15.1974 13.0967 15.3919 12.979 15.4984C12.1715 16.2316 10.274 18.2852 10.3656 21.3284C10.3706 21.4931 10.5824 21.5563 10.6753 21.42C11.2351 20.5976 12.6521 18.8599 14.9001 18.3298C15.0859 18.2864 15.0599 18.4214 14.9001 18.5255C13.5302 19.4172 11.0208 21.8721 10.7707 26.7918C10.4313 33.4628 16.7939 37.1835 18.1737 38.0207C19.5534 38.858 24.4421 41.5891 25.7984 44.2137C27.1546 46.8382 27.8272 47.6668 27.7999 51.6613C27.7999 51.821 27.9981 51.8953 28.0997 51.7715C28.7611 50.9701 30.2399 48.7023 29.9352 44.7264C29.9315 44.6794 29.9476 44.6323 29.9798 44.5989C30.3613 44.1938 32.758 41.4888 31.9442 38.2808C31.9194 38.1855 31.8166 38.1322 31.7237 38.1657L30.2114 38.697C30.1359 38.723 30.0901 38.7973 30.0987 38.8766C30.1619 39.398 30.2213 41.4095 27.9919 43.9573C27.9015 44.0601 27.7318 44.0204 27.6996 43.8879C27.5212 43.151 26.6852 41.2448 22.8022 38.4109C22.7998 38.4084 22.796 38.4072 22.7936 38.4047C22.6177 38.292 16.8954 34.6976 15.7312 33.0169C14.7081 32.2205 12.0774 28.9295 13.5215 24.5648C14.2981 21.5761 16.753 18.798 18.7298 17.921C18.8995 17.8455 19.0506 18.0573 18.923 18.1923C18.0969 19.0655 16.587 20.9853 16.6155 23.3262C16.618 23.4934 16.836 23.5566 16.9276 23.4166C17.3921 22.7057 18.4523 21.3841 20.1628 20.8936C20.3214 20.8478 20.4452 21.0361 20.3412 21.1636C19.5584 22.1211 17.7649 24.7902 18.3322 28.6224C18.9403 32.7332 21.3642 35.0556 23.3608 36.0155C23.5342 36.0997 23.694 35.8743 23.5541 35.7418C22.5062 34.741 20.901 32.5524 21.3444 28.7747C21.3444 28.7747 21.581 26.5973 23.0252 25.1271C23.1404 25.0107 23.04 24.815 22.879 24.841C22.5508 24.8955 22.0826 25.0367 21.5637 25.3922C21.4125 25.4962 21.2268 25.3228 21.3221 25.1655C21.6491 24.623 22.4344 23.8216 24.322 23.2172C24.322 23.2172 25.6757 22.7503 26.3322 21.4126C26.4065 21.2627 26.2443 21.1067 26.0969 21.1884C25.755 21.3792 25.1791 21.5972 24.234 21.721C24.0582 21.7445 23.9677 21.5166 24.1127 21.4138C25.2522 20.615 27.7999 18.7435 27.8965 17.8938C27.8965 17.8938 28.0761 17.4553 27.7739 16.8199C27.4717 16.1845 26.1142 16.1647 25.7575 16.218C25.4008 16.2712 24.6007 16.1226 23.0239 17.054C22.9224 17.1135 22.7911 17.054 22.7713 16.9388C22.6623 16.322 22.5211 14.6338 23.9194 13.4683C23.9194 13.4683 26.3495 11.3987 28.0749 13.6269C28.1566 13.7334 28.3226 13.7111 28.3697 13.5848C28.6137 12.9147 29.0534 11.1955 27.8507 9.71296C27.7293 9.56309 27.9064 9.35872 28.0712 9.46153C29.6504 10.4474 31.9368 12.5394 29.3803 15.4241C29.3481 15.4612 29.332 15.5095 29.3382 15.5578C29.3791 15.8625 29.6095 16.9748 30.8468 17.3587C31.0004 17.407 31.0116 17.6176 30.8617 17.6783C29.8361 18.0907 27.9708 19.2909 28.1219 22.5484C28.1244 22.6004 28.1034 22.6512 28.0625 22.6859C27.6525 23.0327 25.4156 25.1011 26.087 28.3239C26.1216 28.4923 26.3545 28.5097 26.4127 28.3487C26.6604 27.66 27.333 26.7038 29.1524 26.8859C31.9269 27.1646 32.8261 28.0056 36.735 26.44C36.7846 26.4202 36.823 26.3781 36.8366 26.3261L37.2813 24.6837C37.3073 24.5896 37.2478 24.493 37.1524 24.4731C36.5654 24.3555 34.7124 23.7826 34.2913 21.1456C34.2865 21.1154 34.2792 21.0875 34.2913 21.0547C34.3793 20.8156 34.8635 19.6637 36.0452 19.3739C36.2 19.3355 36.3164 19.5151 36.2198 19.6414C36.0328 19.8891 35.8259 20.2483 35.8309 20.6335C35.8321 20.7685 35.9832 20.849 36.0947 20.7735C36.7103 20.3561 38.5582 19.3442 40.4793 20.6162C40.6168 20.7078 40.7914 20.5728 40.7344 20.418C40.6403 20.1592 40.4805 19.8384 40.2179 19.5597C39.6853 18.9949 34.4969 15.3262 32.7852 14.484C32.722 14.453 32.6849 14.3861 32.6936 14.3143C32.7443 13.8684 32.8434 12.2062 31.8501 10.3025C31.7683 10.1452 31.9504 9.98049 32.0953 10.0833C32.753 10.549 33.838 11.5597 34.5341 13.4758C34.5737 13.5848 34.7087 13.6207 34.7991 13.5476C35.4568 13.0113 37.6751 11.5609 38.043 16.109C38.0467 16.1585 38.0727 16.2044 38.1123 16.2341L38.775 16.7109C38.8642 16.7754 38.9905 16.7382 39.0314 16.6366C39.3274 15.8997 40.1857 13.202 38.2796 10.3347C36.0414 6.96826 33.9036 7.2841 33.9036 7.2841C33.9036 7.2841 34.0126 7.12184 34.2591 7.10079C34.4028 7.0884 34.6381 7.08345 34.3557 6.80724C33.7996 6.26351 32.3418 5.31723 28.9679 5.38783C28.5307 5.39898 28.7511 5.54761 28.8341 5.65908C29.0979 6.0096 29.4881 6.71683 29.4274 7.77705C29.4187 7.93312 29.2206 7.99504 29.124 7.87242H29.1227V7.87366Z" fill="white"/>
<path d="M8.20059 17.2633C7.99375 18.2716 7.66429 20.4948 8.39381 21.991C8.40496 22.0133 8.40744 22.0368 8.4 22.0604C8.28729 22.4419 7.32739 25.8034 7.76461 28.8032C8.22908 31.9888 10.4474 35.9052 12.1319 37.4052C13.8163 38.9051 15.4649 40.2861 17.4887 41.2373C17.4912 41.2373 17.4949 41.2398 17.4974 41.2411C17.703 41.3178 25.1023 44.1232 25.1444 50.4016C25.1444 50.5069 25.0032 50.5416 24.9549 50.4487C24.4273 49.4306 22.806 46.5459 20.8242 45.4398C18.4003 44.0861 13.1549 42.1886 9.70671 38.562C6.2585 34.9354 4.76848 29.1686 5.26392 25.3909C5.46209 21.7569 7.25432 18.388 8.01976 17.189C8.07921 17.0949 8.22413 17.1544 8.20183 17.2621H8.20059V17.2633Z" fill="white"/>
<path d="M5.06456 34.1242L6.10126 35.1819C6.10126 35.1819 5.26274 38.4171 6.54219 41.6597C7.82165 44.9023 9.86283 47.8427 13.0225 49.547C13.0225 49.547 14.9138 50.4611 14.2325 51.3937C14.2325 51.3937 13.8796 52.1988 12.0948 51.0023C10.31 49.8059 7.63586 48.0743 5.84487 44.7041C4.05388 41.334 3.93993 35.9672 5.06332 34.1254L5.06456 34.1242Z" fill="white"/>
<path d="M9.98674 42.8425C10.7918 44.5406 12.8677 47.6916 17.3922 48.4756C17.8839 48.5611 18.2728 48.9376 18.3558 49.4293C18.5751 50.7162 19.2439 53.0782 19.8855 54.5137C20.7797 56.5165 22.1831 58.2641 22.8692 59.2067C22.8767 59.2178 22.8841 59.2277 22.8903 59.2401C22.9832 59.4123 23.5034 60.309 24.2143 59.9808C24.9661 59.6328 24.4236 58.4908 24.4137 58.4747C24.4038 58.4586 19.5486 51.629 19.7802 48.5747C19.7852 48.5078 19.7505 48.4459 19.6885 48.4186C19.26 48.2316 17.6053 47.4587 17.121 46.4443C17.1036 46.4072 17.0727 46.3775 17.033 46.3638C16.4905 46.1756 12.4689 44.7388 10.3001 42.6184C10.144 42.466 9.89261 42.6468 9.9855 42.8438L9.98674 42.8425Z" fill="white"/>
<path d="M39.1132 24.4806C39.1132 24.4806 40.0781 24.2812 40.7172 23.6136C40.7172 23.6136 40.8163 23.5826 40.8856 23.6755C40.955 23.7684 40.9302 25.7588 39.8403 27.3045C39.8403 27.3045 39.2086 27.1274 38.6525 26.5168C38.6525 26.5168 39.1677 25.2993 39.1132 24.4793V24.4806Z" fill="white"/>
<path d="M28.3004 30.3316C28.3004 30.3316 27.6885 29.7247 28.153 29.0534C28.153 29.0534 28.4329 28.444 29.6975 28.8243C30.9324 29.1959 32.9401 30.0691 36.2298 28.3685C36.5407 28.2075 36.8999 28.1492 37.2405 28.2273C37.4114 28.2657 37.5873 28.34 37.7446 28.4725C37.7446 28.4725 38.5459 28.932 37.0918 30.3316C36.9382 30.479 36.7549 30.5855 36.5654 30.6834C35.2166 31.3881 30.7119 32.9896 28.3004 30.3304V30.3316Z" fill="white"/>
<path d="M30.7824 33.0317C30.9286 33.0355 31.315 33.0206 31.6816 32.7729C31.751 32.7258 31.8451 32.7704 31.8464 32.8546C31.8563 33.5024 31.6049 35.4569 28.0712 34.6369C27.9696 34.6134 27.9622 34.471 28.0613 34.4375C28.7636 34.2022 30.3279 33.6287 30.6895 33.0838C30.7106 33.0516 30.744 33.0317 30.7812 33.033L30.7824 33.0317Z" fill="white"/>
<path d="M33.064 44.4515C33.8455 44.0229 36.7859 42.0523 35.909 37.0584C35.8904 36.9531 35.9424 36.8478 36.039 36.802L37.1773 36.252C37.2937 36.1951 37.4337 36.2434 37.4931 36.3586C38.0232 37.3952 39.9765 42.2109 33.3934 46.8543C33.2299 46.9695 33.0045 46.8419 33.0194 46.6425C33.0602 46.0876 33.0937 45.207 32.9537 44.7314C32.9215 44.6224 32.9649 44.5072 33.064 44.4527V44.4515Z" fill="white"/>
<path d="M39.6408 34.8079L41.0466 33.8244C41.1618 33.7439 41.3203 33.7823 41.3859 33.9062C42.0077 35.0816 44.5369 40.5883 40.8075 46.2103C40.8075 46.2103 38.6883 49.2336 35.8123 50.7868C32.9871 52.3128 28.8998 56.27 27.9622 58.2555C27.904 58.3781 27.8297 58.492 27.7281 58.5825C27.5299 58.7608 26.975 59.0308 26.5415 58.8995C26.513 58.8909 26.4747 58.8624 26.4486 58.8488C26.2901 58.7621 25.8876 58.4041 26.7385 56.9599C27.7566 55.2309 29.2937 52.7698 34.0709 49.6337C38.8481 46.4976 39.995 43.094 40.322 41.2671C40.649 39.4402 40.4446 37.1575 39.5628 35.0915C39.5194 34.99 39.5516 34.8723 39.642 34.8091H39.6408V34.8079Z" fill="white"/>
</g>
<defs>
<clipPath id="clip0_470_1778">
<rect width="45.3408" height="64" fill="white"/>
</clipPath>
</defs>
</svg>
