<svg width="367" height="508" viewBox="0 0 367 508" fill="none" xmlns="http://www.w3.org/2000/svg">
<g clip-path="url(#clip0_545_6696)">
<path d="M355.46 291.43C356.91 292.83 358.81 293.64 361.21 293.06C363.88 292.41 366 290.12 365.98 283.71C365.96 277.73 357.25 240.95 351.5 229C351.25 228.48 351.73 227.92 351.89 227.37C353.23 222.78 359.34 201.21 359.39 189.38C361.5 167 355.96 148.98 351.48 136.99C347 125 344.62 120.55 344.46 119.35C344.43 119.17 344.43 118.99 344.46 118.81C344.64 117.18 345.63 107.3 344.79 100.26C344.7 99.54 344.96 98.82 345.48 98.31C348.44 95.41 358.86 78.54 356.31 54.17C352.5 17.72 321.29 2.23001 300.5 2.00001C288.41 1.71001 282.5 1.00001 258.13 18.13C257.55 18.61 256.78 18.79 256.05 18.61C250.97 17.35 230.03 12.72 215.48 17.72C214.99 17.89 214.48 17.9 213.99 17.74C209.49 16.23 185.22 8.68001 163.74 13.49C163.74 13.49 147.28 16.63 140.55 19.54C139.62 19.94 138.53 19.74 137.85 18.99C134.81 15.68 125.36 6.94001 106.19 1.38001C106.12 1.36001 106.05 1.34001 105.98 1.33001C103.93 0.930006 76 -3.49999 55.95 10.86C42.84 20.04 30.01 36.42 26.87 62.38C26 87 36.37 102.67 43 110.65C43.65 111.43 43.73 112.54 43.19 113.41C37.09 123.3 2.07 181.62 3.3 215.43C3.3 215.43 3.07 219.57 5.3 220.59C6.51 221.14 7.66 221.49 8.82 221.63C10.29 221.81 11.27 223.22 10.85 224.64C6.87 238.22 -7.67 292.8 5.32 325.65C5.32 325.65 5.63 327.08 6.82 328.49C8.01 329.9 10.09 331.28 13.62 331.19C13.87 331.19 14.12 331.14 14.36 331.05L14.12 331.14C14.12 331.14 48.79 365.71 57.28 376.62C65.77 387.53 68.32 389.06 68.32 389.06C68.32 389.06 88.47 408.49 104.48 415.61C120.49 422.73 173.83 464.81 187.08 481.58C200.33 498.34 204.55 503.68 205.44 507.68C205.44 507.68 257.11 445.92 313.72 391.26C313.72 391.26 350.26 364.24 361.2 293.06" fill="black"/>
<path d="M82.7698 96.6512C82.7698 96.6512 59.1483 76.2086 75.0746 55.458C89.0789 40.9702 103.318 50.5485 108.247 54.7065C109.261 55.5568 110.738 55.5371 111.743 54.682L117.759 49.5145C118.825 48.5977 119.016 47.0285 118.198 45.8881C114.742 41.0378 104.92 29.3921 91.0759 29.0719C74.6063 29.3628 66.9734 37.5181 62.7324 41.8656C54.8093 50.8016 51.5307 63.5295 53.8203 74.7259C54.8026 81.2846 61.4182 95.9556 77.1355 105.4" fill="white"/>
<path d="M288.372 48.7555C288.982 49.2655 289.852 49.3255 290.522 48.8955C293.682 46.8955 303.262 42.2355 312.122 52.1255C322.262 63.4555 319.412 71.1055 317.872 74.5955C317.622 75.1755 317.682 75.8355 318.042 76.3555L322.052 82.2555C322.722 83.2355 324.122 83.3455 324.922 82.4655C328.082 79.0055 334.712 69.1155 332.172 56.4555C329.052 40.9055 318.672 34.5655 312.142 31.7755C304.102 28.3455 289.022 25.9655 278.452 38.0555C277.772 38.8355 277.872 40.0255 278.662 40.6855L288.362 48.7455H288.372V48.7555Z" fill="white"/>
<path d="M261.42 34.1C262.49 34.57 263.74 34.17 264.37 33.18C266.86 29.26 274.26 19.95 290.32 15.65C310.97 10.12 334 23 341.29 41.5C346.81 60.19 344.41 69.02 341.29 78.54C338.17 88.06 332.88 92.5 330.24 94.21C329.34 94.79 328.94 95.9 329.28 96.92C330.97 102.03 335.02 117.21 329.67 132.28C329.42 132.98 329.5 133.75 329.9 134.37C340.5 147.5 346.5 167.5 345.09 182.95C342.55 205.59 341.38 215.72 335.07 227.49C334.73 228.13 334.69 228.88 334.98 229.54C337.9 236.2 353.79 273.06 353.26 285.51C353.17 287.7 353.87 289.91 355.46 291.43C356.91 292.83 358.81 293.64 361.21 293.06C363.88 292.41 366 290.12 365.98 283.71C365.96 277.73 357.25 240.95 351.5 229C351.25 228.48 351.73 227.92 351.89 227.37C353.23 222.78 359.34 201.21 359.39 189.38C361.5 167 355.96 148.98 351.48 136.99C347 125 344.62 120.55 344.46 119.35C344.43 119.17 344.43 118.99 344.46 118.81C344.64 117.18 345.63 107.3 344.79 100.26C344.7 99.54 344.96 98.82 345.48 98.31C348.44 95.41 358.86 78.54 356.31 54.17C352.5 17.72 321.29 2.23001 300.5 2.00001C288.41 1.71001 282.5 1.00001 258.13 18.13C257.55 18.61 256.78 18.79 256.05 18.61C250.97 17.35 230.03 12.72 215.48 17.72C214.99 17.89 214.48 17.9 213.99 17.74C209.49 16.23 185.22 8.68001 163.74 13.49C163.74 13.49 147.28 16.63 140.55 19.54C139.62 19.94 138.53 19.74 137.85 18.99C134.81 15.68 125.36 6.94001 106.19 1.38001C106.12 1.36001 106.05 1.34001 105.98 1.33001C103.93 0.930006 76 -3.49999 55.95 10.86C42.84 20.04 30.01 36.42 26.87 62.38C26 87 36.37 102.67 43 110.65C43.65 111.43 43.73 112.54 43.19 113.41C37.09 123.3 2.07 181.62 3.3 215.43C3.3 215.43 3.07 219.57 5.3 220.59C6.51 221.14 7.66 221.49 8.82 221.63C10.29 221.81 11.27 223.22 10.85 224.64C6.87 238.22 -7.67 292.8 5.32 325.65C5.32 325.65 6.55 331.37 13.62 331.19C13.87 331.19 14.12 331.14 14.36 331.05C15.69 330.56 19.93 328.5 19.44 322.46C18.87 315.33 19.82 254.19 35.74 216.35C35.87 216.05 35.93 215.72 35.92 215.39L35.47 195.91C35.42 193.91 33.07 192.86 31.55 194.17C30.02 195.49 27.63 194.42 27.63 192.4C27.63 184.62 32.09 164.33 61.57 115.13C62.09 114.26 62.01 113.16 61.36 112.39C55.05 104.94 24.92 65.72 57 30.23C57 30.23 87.57 -5.45999 133.99 35.56C134.68 36.17 135.66 36.34 136.5 35.96C144.11 32.61 182.16 17.37 215.46 32.1C216.06 32.37 216.75 32.39 217.35 32.12C221.42 30.35 238.76 24.08 261.45 34.1H261.42Z" fill="white"/>
<path d="M235.13 63.57C227.33 53.54 197.25 21.66 146.18 47.66C144.86 48.33 145.38 50.32 146.86 50.25C150.72 50.06 155.58 50.34 159.9 52.13C161.15 52.65 160.92 54.49 159.6 54.73C148.92 56.66 118.82 63.37 101.41 79.96C100.51 80.81 101.15 82.32 102.39 82.31C104.98 82.28 108.76 82.52 112.9 83.73C114.01 84.06 114.25 85.53 113.29 86.18C105.84 91.23 82.8099 108.25 78.4999 128.46C78.2399 129.67 79.63 130.58 80.63 129.86C84.28 127.24 91.7599 123.23 103.8 122.75C105.08 122.7 105.74 124.27 104.79 125.13C98.2699 131.05 82.9499 147.63 83.6899 172.2C83.7299 173.53 85.4399 174.04 86.1899 172.94C90.7099 166.3 102.15 152.27 120.3 147.99C121.8 147.64 121.59 148.73 120.3 149.57C109.24 156.77 88.9799 176.59 86.9599 216.31C84.2199 270.17 135.59 300.21 146.73 306.97C157.87 313.73 197.34 335.78 208.29 356.97C219.24 378.16 224.67 384.85 224.45 417.1C224.45 418.39 226.05 418.99 226.87 417.99C232.21 411.52 244.15 393.21 241.69 361.11C241.66 360.73 241.79 360.35 242.05 360.08C245.13 356.81 264.48 334.97 257.91 309.07C257.71 308.3 256.88 307.87 256.13 308.14L243.92 312.43C243.31 312.64 242.94 313.24 243.01 313.88C243.52 318.09 244 334.33 226 354.9C225.27 355.73 223.9 355.41 223.64 354.34C222.2 348.39 215.45 333 184.1 310.12C184.08 310.1 184.05 310.09 184.03 310.07C182.61 309.16 136.41 280.14 127.01 266.57C118.75 260.14 97.51 233.57 109.17 198.33C115.44 174.2 135.26 151.77 151.22 144.69C152.59 144.08 153.81 145.79 152.78 146.88C146.11 153.93 133.92 169.43 134.15 188.33C134.17 189.68 135.93 190.19 136.67 189.06C140.42 183.32 148.98 172.65 162.79 168.69C164.07 168.32 165.07 169.84 164.23 170.87C157.91 178.6 143.43 200.15 148.01 231.09C152.92 264.28 172.49 283.03 188.61 290.78C190.01 291.46 191.3 289.64 190.17 288.57C181.71 280.49 168.75 262.82 172.33 232.32C172.33 232.32 174.24 214.74 185.9 202.87C186.83 201.93 186.02 200.35 184.72 200.56C182.07 201 178.29 202.14 174.1 205.01C172.88 205.85 171.38 204.45 172.15 203.18C174.79 198.8 181.13 192.33 196.37 187.45C196.37 187.45 207.3 183.68 212.6 172.88C213.2 171.67 211.89 170.41 210.7 171.07C207.94 172.61 203.29 174.37 195.66 175.37C194.24 175.56 193.51 173.72 194.68 172.89C203.88 166.44 224.45 151.33 225.23 144.47C225.23 144.47 226.68 140.93 224.24 135.8C221.8 130.67 210.84 130.51 207.96 130.94C205.08 131.37 198.62 130.17 185.89 137.69C185.07 138.17 184.01 137.69 183.85 136.76C182.97 131.78 181.83 118.15 193.12 108.74C193.12 108.74 212.74 92.03 226.67 110.02C227.33 110.88 228.67 110.7 229.05 109.68C231.02 104.27 234.57 90.39 224.86 78.42C223.88 77.21 225.31 75.56 226.64 76.39C239.39 84.35 257.85 101.24 237.21 124.53C236.95 124.83 236.82 125.22 236.87 125.61C237.2 128.07 239.06 137.05 249.05 140.15C250.29 140.54 250.38 142.24 249.17 142.73C240.89 146.06 225.83 155.75 227.05 182.05C227.07 182.47 226.9 182.88 226.57 183.16C223.26 185.96 205.2 202.66 210.62 228.68C210.9 230.04 212.78 230.18 213.25 228.88C215.25 223.32 220.68 215.6 235.37 217.07C257.77 219.32 265.03 226.11 296.59 213.47C296.99 213.31 297.3 212.97 297.41 212.55L301 199.29C301.21 198.53 300.73 197.75 299.96 197.59C295.22 196.64 280.26 192.015 276.86 170.725C276.821 170.48 276.762 170.255 276.86 169.99C277.57 168.06 281.48 158.76 291.02 156.42C292.27 156.11 293.21 157.56 292.43 158.58C290.92 160.58 289.25 163.48 289.29 166.59C289.3 167.68 290.52 168.33 291.42 167.72C296.39 164.35 311.31 156.18 326.82 166.45C327.93 167.19 329.34 166.1 328.88 164.85C328.12 162.76 326.83 160.17 324.71 157.92C320.41 153.36 278.52 123.74 264.7 116.94C264.19 116.69 263.89 116.15 263.96 115.57C264.37 111.97 265.17 98.55 257.15 83.18C256.49 81.91 257.96 80.58 259.13 81.41C264.44 85.17 273.2 93.33 278.82 108.8C279.14 109.68 280.23 109.97 280.96 109.38C286.27 105.05 304.18 93.3401 307.15 130.06C307.18 130.46 307.39 130.83 307.71 131.07L313.06 134.92C313.78 135.44 314.8 135.14 315.13 134.32C317.52 128.37 324.45 106.59 309.06 83.44C290.99 56.26 273.73 58.81 273.73 58.81C273.73 58.81 274.61 57.5 276.6 57.33C277.76 57.23 279.66 57.19 277.38 54.96C272.89 50.57 261.12 42.93 233.88 43.5C230.35 43.59 232.13 44.79 232.8 45.69C234.93 48.52 238.08 54.23 237.59 62.79C237.52 64.05 235.92 64.55 235.14 63.56H235.13V63.57Z" fill="white"/>
<path d="M66.21 139.38C64.54 147.52 61.88 165.47 67.77 177.55C67.86 177.73 67.88 177.92 67.82 178.11C66.91 181.19 59.16 208.33 62.69 232.55C66.44 258.27 84.35 289.89 97.95 302C111.55 314.11 124.86 325.26 141.2 332.94C141.22 332.94 141.25 332.96 141.27 332.97C142.93 333.59 202.67 356.24 203.01 406.93C203.01 407.78 201.87 408.06 201.48 407.31C197.22 399.09 184.13 375.8 168.13 366.87C148.56 355.94 106.21 340.62 78.37 311.34C50.53 282.06 38.5 235.5 42.5 205C44.1 175.66 58.57 148.46 64.75 138.78C65.23 138.02 66.4 138.5 66.22 139.37H66.21V139.38Z" fill="white"/>
<path d="M40.89 275.51L49.26 284.05C49.26 284.05 42.49 310.17 52.82 336.35C63.15 362.53 79.63 386.27 105.14 400.03C105.14 400.03 120.41 407.41 114.91 414.94C114.91 414.94 112.06 421.44 97.65 411.78C83.24 402.12 61.65 388.14 47.19 360.93C32.73 333.72 31.81 290.39 40.88 275.52L40.89 275.51Z" fill="white"/>
<path d="M80.63 345.9C87.13 359.61 103.89 385.05 140.42 391.38C144.39 392.07 147.53 395.11 148.2 399.08C149.97 409.47 155.37 428.54 160.55 440.13C167.77 456.3 179.1 470.41 184.64 478.02C184.7 478.11 184.76 478.19 184.81 478.29C185.56 479.68 189.76 486.92 195.5 484.27C201.57 481.46 197.19 472.24 197.11 472.11C197.03 471.98 157.83 416.84 159.7 392.18C159.74 391.64 159.46 391.14 158.96 390.92C155.5 389.41 142.14 383.17 138.23 374.98C138.09 374.68 137.84 374.44 137.52 374.33C133.14 372.81 100.67 361.21 83.16 344.09C81.9 342.86 79.87 344.32 80.62 345.91L80.63 345.9Z" fill="white"/>
<path d="M315.79 197.65C315.79 197.65 323.58 196.04 328.74 190.65C328.74 190.65 329.54 190.4 330.1 191.15C330.66 191.9 330.46 207.97 321.66 220.45C321.66 220.45 316.56 219.02 312.07 214.09C312.07 214.09 316.23 204.26 315.79 197.64V197.65Z" fill="white"/>
<path d="M228.49 244.89C228.49 244.89 223.55 239.99 227.3 234.57C227.3 234.57 229.56 229.65 239.77 232.72C249.74 235.72 265.95 242.77 292.51 229.04C295.02 227.74 297.92 227.27 300.67 227.9C302.05 228.21 303.47 228.81 304.74 229.88C304.74 229.88 311.21 233.59 299.47 244.89C298.23 246.08 296.75 246.94 295.22 247.73C284.33 253.42 247.96 266.35 228.49 244.88V244.89Z" fill="white"/>
<path d="M248.53 266.69C249.71 266.72 252.83 266.6 255.79 264.6C256.35 264.22 257.11 264.58 257.12 265.26C257.2 270.49 255.17 286.27 226.64 279.65C225.82 279.46 225.76 278.31 226.56 278.04C232.23 276.14 244.86 271.51 247.78 267.11C247.95 266.85 248.22 266.69 248.52 266.7L248.53 266.69Z" fill="white"/>
<path d="M266.95 358.89C273.26 355.43 297 339.52 289.92 299.2C289.77 298.35 290.19 297.5 290.97 297.13L300.16 292.69C301.1 292.23 302.23 292.62 302.71 293.55C306.99 301.92 322.76 340.8 269.61 378.29C268.29 379.22 266.47 378.19 266.59 376.58C266.92 372.1 267.19 364.99 266.06 361.15C265.8 360.27 266.15 359.34 266.95 358.9V358.89Z" fill="white"/>
<path d="M320.05 281.03L331.4 273.09C332.33 272.44 333.61 272.75 334.14 273.75C339.16 283.24 359.58 327.7 329.47 373.09C329.47 373.09 312.36 397.5 289.14 410.04C266.33 422.36 233.33 454.31 225.76 470.34C225.29 471.33 224.69 472.25 223.87 472.98C222.27 474.42 217.79 476.6 214.29 475.54C214.06 475.47 213.75 475.24 213.54 475.13C212.26 474.43 209.01 471.54 215.88 459.88C224.1 445.92 236.51 426.05 275.08 400.73C313.65 375.41 322.91 347.93 325.55 333.18C328.19 318.43 326.54 300 319.42 283.32C319.07 282.5 319.33 281.55 320.06 281.04H320.05V281.03Z" fill="white"/>
</g>
<defs>
<clipPath id="clip0_545_6696">
<rect width="367" height="508" fill="white"/>
</clipPath>
</defs>
</svg>
