<svg width="366" height="485" viewBox="0 0 366 485" fill="none" xmlns="http://www.w3.org/2000/svg">
<g clip-path="url(#clip0_623_6391)">
<path d="M355.46 291.429C356.91 292.829 358.81 293.639 361.21 293.059C363.88 292.409 366 290.119 365.98 283.709C365.96 277.729 357.25 240.949 351.5 228.999C351.25 228.479 351.73 227.919 351.89 227.369C353.23 222.779 359.34 201.209 359.39 189.379C361.5 166.999 355.96 148.979 351.48 136.989C347 124.999 344.62 120.549 344.46 119.349C344.43 119.169 344.43 118.989 344.46 118.809C344.64 117.179 345.63 107.299 344.79 100.259C344.7 99.539 344.96 98.819 345.48 98.309C348.44 95.409 358.86 78.539 356.31 54.169C352.5 17.719 321.29 2.22903 300.5 1.99903C288.41 1.70903 282.5 0.999029 258.13 18.129C257.55 18.609 256.78 18.789 256.05 18.609C250.97 17.349 230.03 12.719 215.48 17.719C214.99 17.889 214.48 17.899 213.99 17.739C209.49 16.229 185.22 8.67903 163.74 13.489C163.74 13.489 147.28 16.629 140.55 19.539C139.62 19.939 138.53 19.739 137.85 18.989C134.81 15.679 125.36 6.93903 106.19 1.37903C106.12 1.35903 106.05 1.33903 105.98 1.32903C103.93 0.929029 76 -3.50097 55.95 10.859C42.84 20.039 30.01 36.419 26.87 62.379C26 86.999 36.37 102.669 43 110.649C43.65 111.429 43.73 112.539 43.19 113.409C37.09 123.299 2.07 181.619 3.3 215.429C3.3 215.429 3.07 219.569 5.3 220.589C6.51 221.139 7.66 221.489 8.82 221.629C10.29 221.809 11.27 223.219 10.85 224.639C6.87 238.219 -7.67 292.799 5.32 325.649C5.32 325.649 5.63 327.079 6.82 328.489C8.01 329.899 10.09 331.279 13.62 331.189C13.87 331.189 14.12 331.139 14.36 331.049L14.12 331.139C14.12 331.139 48.79 365.709 57.28 376.619C65.77 387.529 68.32 389.059 68.32 389.059C68.32 389.059 88.47 408.489 104.48 415.609C120.49 422.729 173.83 464.809 187.08 481.579C200.33 498.339 204.55 503.679 205.44 507.679C205.44 507.679 257.11 445.919 313.72 391.259C313.72 391.259 350.26 364.239 361.2 293.059" fill="black"/>
<path d="M82.7698 96.6509C82.7698 96.6509 59.1483 76.2084 75.0746 55.4578C89.0789 40.97 103.318 50.5482 108.247 54.7063C109.261 55.5566 110.738 55.5369 111.743 54.6818L117.759 49.5142C118.825 48.5975 119.016 47.0282 118.198 45.8879C114.742 41.0376 104.92 29.3918 91.0759 29.0716C74.6063 29.3625 66.9734 37.5178 62.7324 41.8653C54.8093 50.8014 51.5307 63.5293 53.8203 74.7257C54.8026 81.2843 61.4182 95.9554 77.1355 105.4" fill="white"/>
<path d="M288.372 48.7555C288.982 49.2655 289.852 49.3255 290.522 48.8955C293.682 46.8955 303.262 42.2355 312.122 52.1255C322.262 63.4555 319.412 71.1055 317.872 74.5955C317.622 75.1755 317.682 75.8355 318.042 76.3555L322.052 82.2555C322.722 83.2355 324.122 83.3455 324.922 82.4655C328.082 79.0055 334.712 69.1155 332.172 56.4555C329.052 40.9055 318.672 34.5655 312.142 31.7755C304.102 28.3455 289.022 25.9655 278.452 38.0555C277.772 38.8355 277.872 40.0255 278.662 40.6855L288.362 48.7455H288.372V48.7555Z" fill="white"/>
<path d="M261.42 34.099C262.49 34.569 263.74 34.169 264.37 33.179C266.86 29.259 274.26 19.949 290.32 15.649C310.97 10.119 334 22.999 341.29 41.499C346.81 60.189 344.41 69.019 341.29 78.539C338.17 88.059 332.88 92.499 330.24 94.209C329.34 94.789 328.94 95.899 329.28 96.919C330.97 102.029 335.02 117.209 329.67 132.279C329.42 132.979 329.5 133.749 329.9 134.369C340.5 147.499 346.5 167.499 345.09 182.949C342.55 205.589 341.38 215.719 335.07 227.489C334.73 228.129 334.69 228.879 334.98 229.539C337.9 236.199 353.79 273.059 353.26 285.509C353.17 287.699 353.87 289.909 355.46 291.429C356.91 292.829 358.81 293.639 361.21 293.059C363.88 292.409 366 290.119 365.98 283.709C365.96 277.729 357.25 240.949 351.5 228.999C351.25 228.479 351.73 227.919 351.89 227.369C353.23 222.779 359.34 201.209 359.39 189.379C361.5 166.999 355.96 148.979 351.48 136.989C347 124.999 344.62 120.549 344.46 119.349C344.43 119.169 344.43 118.989 344.46 118.809C344.64 117.179 345.63 107.299 344.79 100.259C344.7 99.539 344.96 98.819 345.48 98.309C348.44 95.409 358.86 78.539 356.31 54.169C352.5 17.719 321.29 2.22903 300.5 1.99903C288.41 1.70903 282.5 0.999029 258.13 18.129C257.55 18.609 256.78 18.789 256.05 18.609C250.97 17.349 230.03 12.719 215.48 17.719C214.99 17.889 214.48 17.899 213.99 17.739C209.49 16.229 185.22 8.67903 163.74 13.489C163.74 13.489 147.28 16.629 140.55 19.539C139.62 19.939 138.53 19.739 137.85 18.989C134.81 15.679 125.36 6.93903 106.19 1.37903C106.12 1.35903 106.05 1.33903 105.98 1.32903C103.93 0.929029 76 -3.50097 55.95 10.859C42.84 20.039 30.01 36.419 26.87 62.379C26 86.999 36.37 102.669 43 110.649C43.65 111.429 43.73 112.539 43.19 113.409C37.09 123.299 2.07 181.619 3.3 215.429C3.3 215.429 3.07 219.569 5.3 220.589C6.51 221.139 7.66 221.489 8.82 221.629C10.29 221.809 11.27 223.219 10.85 224.639C6.87 238.219 -7.67 292.799 5.32 325.649C5.32 325.649 6.55 331.369 13.62 331.189C13.87 331.189 14.12 331.139 14.36 331.049C15.69 330.559 19.93 328.499 19.44 322.459C18.87 315.329 19.82 254.189 35.74 216.349C35.87 216.049 35.93 215.719 35.92 215.389L35.47 195.909C35.42 193.909 33.07 192.859 31.55 194.169C30.02 195.489 27.63 194.419 27.63 192.399C27.63 184.619 32.09 164.329 61.57 115.129C62.09 114.259 62.01 113.159 61.36 112.389C55.05 104.939 24.92 65.719 57 30.229C57 30.229 87.57 -5.46097 133.99 35.559C134.68 36.169 135.66 36.339 136.5 35.959C144.11 32.609 182.16 17.369 215.46 32.099C216.06 32.369 216.75 32.389 217.35 32.119C221.42 30.349 238.76 24.079 261.45 34.099H261.42Z" fill="white"/>
<path d="M235.13 63.569C227.33 53.5391 197.25 21.6591 146.18 47.659C144.86 48.329 145.38 50.319 146.86 50.249C150.72 50.059 155.58 50.339 159.9 52.129C161.15 52.649 160.92 54.489 159.6 54.729C148.92 56.659 118.82 63.3691 101.41 79.959C100.51 80.809 101.15 82.319 102.39 82.309C104.98 82.279 108.76 82.519 112.9 83.729C114.01 84.059 114.25 85.529 113.29 86.179C105.84 91.229 82.8101 108.249 78.5001 128.459C78.2401 129.669 79.6301 130.579 80.6301 129.859C84.2801 127.239 91.7601 123.229 103.8 122.749C105.08 122.699 105.74 124.269 104.79 125.129C98.2701 131.049 82.9501 147.629 83.6901 172.199C83.7301 173.529 85.4401 174.039 86.1901 172.939C90.7101 166.299 102.15 152.269 120.3 147.989C121.8 147.639 121.59 148.729 120.3 149.569C109.24 156.769 88.9801 176.589 86.9601 216.309C84.2201 270.169 135.59 300.209 146.73 306.969C157.87 313.729 197.34 335.779 208.29 356.969C219.24 378.159 224.67 384.849 224.45 417.099C224.45 418.389 226.05 418.989 226.87 417.989C232.21 411.519 244.15 393.209 241.69 361.109C241.66 360.729 241.79 360.349 242.05 360.079C245.13 356.809 264.48 334.969 257.91 309.069C257.71 308.299 256.88 307.869 256.13 308.139L243.92 312.429C243.31 312.639 242.94 313.239 243.01 313.879C243.52 318.089 244 334.329 226 354.899C225.27 355.729 223.9 355.409 223.64 354.339C222.2 348.389 215.45 332.999 184.1 310.119C184.08 310.099 184.05 310.089 184.03 310.069C182.61 309.159 136.41 280.139 127.01 266.569C118.75 260.139 97.5101 233.569 109.17 198.329C115.44 174.199 135.26 151.769 151.22 144.689C152.59 144.079 153.81 145.789 152.78 146.879C146.11 153.929 133.92 169.429 134.15 188.329C134.17 189.679 135.93 190.189 136.67 189.059C140.42 183.319 148.98 172.649 162.79 168.689C164.07 168.319 165.07 169.839 164.23 170.869C157.91 178.599 143.43 200.149 148.01 231.089C152.92 264.279 172.49 283.029 188.61 290.779C190.01 291.459 191.3 289.639 190.17 288.569C181.71 280.489 168.75 262.819 172.33 232.319C172.33 232.319 174.24 214.739 185.9 202.869C186.83 201.929 186.02 200.349 184.72 200.559C182.07 200.999 178.29 202.139 174.1 205.009C172.88 205.849 171.38 204.449 172.15 203.179C174.79 198.799 181.13 192.329 196.37 187.449C196.37 187.449 207.3 183.679 212.6 172.879C213.2 171.669 211.89 170.409 210.7 171.069C207.94 172.609 203.29 174.369 195.66 175.369C194.24 175.559 193.51 173.719 194.68 172.889C203.88 166.439 224.45 151.329 225.23 144.469C225.23 144.469 226.68 140.929 224.24 135.799C221.8 130.669 210.84 130.509 207.96 130.939C205.08 131.369 198.62 130.169 185.89 137.689C185.07 138.169 184.01 137.689 183.85 136.759C182.97 131.779 181.83 118.149 193.12 108.739C193.12 108.739 212.74 92.0291 226.67 110.019C227.33 110.879 228.67 110.699 229.05 109.679C231.02 104.269 234.57 90.389 224.86 78.419C223.88 77.209 225.31 75.559 226.64 76.389C239.39 84.349 257.85 101.239 237.21 124.529C236.95 124.829 236.82 125.219 236.87 125.609C237.2 128.069 239.06 137.049 249.05 140.149C250.29 140.539 250.38 142.239 249.17 142.729C240.89 146.059 225.83 155.749 227.05 182.049C227.07 182.469 226.9 182.879 226.57 183.159C223.26 185.959 205.2 202.659 210.62 228.679C210.9 230.039 212.78 230.179 213.25 228.879C215.25 223.319 220.68 215.599 235.37 217.069C257.77 219.319 265.03 226.109 296.59 213.469C296.99 213.309 297.3 212.969 297.41 212.549L301 199.289C301.21 198.529 300.73 197.749 299.96 197.589C295.22 196.639 280.26 192.014 276.86 170.724C276.821 170.479 276.763 170.254 276.86 169.989C277.57 168.059 281.48 158.759 291.02 156.419C292.27 156.109 293.21 157.559 292.43 158.579C290.92 160.579 289.25 163.479 289.29 166.589C289.3 167.679 290.52 168.329 291.42 167.719C296.39 164.349 311.31 156.179 326.82 166.449C327.93 167.189 329.34 166.099 328.88 164.849C328.12 162.759 326.83 160.169 324.71 157.919C320.41 153.359 278.52 123.739 264.7 116.939C264.19 116.689 263.89 116.149 263.96 115.569C264.37 111.969 265.17 98.549 257.15 83.179C256.49 81.909 257.96 80.579 259.13 81.409C264.44 85.169 273.2 93.3291 278.82 108.799C279.14 109.679 280.23 109.969 280.96 109.379C286.27 105.049 304.18 93.3391 307.15 130.059C307.18 130.459 307.39 130.829 307.71 131.069L313.06 134.919C313.78 135.439 314.8 135.139 315.13 134.319C317.52 128.369 324.45 106.589 309.06 83.439C290.99 56.2591 273.73 58.809 273.73 58.809C273.73 58.809 274.61 57.499 276.6 57.329C277.76 57.229 279.66 57.189 277.38 54.959C272.89 50.569 261.12 42.929 233.88 43.499C230.35 43.589 232.13 44.789 232.8 45.689C234.93 48.519 238.08 54.2291 237.59 62.789C237.52 64.049 235.92 64.549 235.14 63.559H235.13V63.569Z" fill="white"/>
<path d="M66.21 139.379C64.54 147.519 61.88 165.469 67.77 177.549C67.86 177.729 67.88 177.919 67.82 178.109C66.91 181.189 59.16 208.329 62.69 232.549C66.44 258.269 84.35 289.889 97.95 301.999C111.55 314.109 124.86 325.259 141.2 332.939C141.22 332.939 141.25 332.959 141.27 332.969C142.93 333.589 202.67 356.239 203.01 406.929C203.01 407.779 201.87 408.059 201.48 407.309C197.22 399.089 184.13 375.799 168.13 366.869C148.56 355.939 106.21 340.619 78.37 311.339C50.53 282.059 38.5 235.499 42.5 204.999C44.1 175.659 58.57 148.459 64.75 138.779C65.23 138.019 66.4 138.499 66.22 139.369H66.21V139.379Z" fill="white"/>
<path d="M40.8901 275.51L49.2601 284.05C49.2601 284.05 42.4901 310.17 52.8201 336.35C63.1501 362.53 79.6301 386.27 105.14 400.03C105.14 400.03 120.41 407.41 114.91 414.94C114.91 414.94 112.06 421.44 97.6501 411.78C83.2401 402.12 61.6501 388.14 47.1901 360.93C32.7301 333.72 31.8101 290.39 40.8801 275.52L40.8901 275.51Z" fill="white"/>
<path d="M80.6301 345.9C87.1301 359.61 103.89 385.05 140.42 391.38C144.39 392.07 147.53 395.11 148.2 399.08C149.97 409.47 155.37 428.54 160.55 440.13C167.77 456.3 179.1 470.41 184.64 478.02C184.7 478.11 184.76 478.19 184.81 478.29C185.56 479.68 189.76 486.92 195.5 484.27C201.57 481.46 197.19 472.24 197.11 472.11C197.03 471.98 157.83 416.84 159.7 392.18C159.74 391.64 159.46 391.14 158.96 390.92C155.5 389.41 142.14 383.17 138.23 374.98C138.09 374.68 137.84 374.44 137.52 374.33C133.14 372.81 100.67 361.21 83.1601 344.09C81.9001 342.86 79.8701 344.32 80.6201 345.91L80.6301 345.9Z" fill="white"/>
<path d="M315.79 197.649C315.79 197.649 323.58 196.039 328.74 190.649C328.74 190.649 329.54 190.399 330.1 191.149C330.66 191.899 330.46 207.969 321.66 220.449C321.66 220.449 316.56 219.019 312.07 214.089C312.07 214.089 316.23 204.259 315.79 197.639V197.649Z" fill="white"/>
<path d="M228.49 244.89C228.49 244.89 223.55 239.99 227.3 234.57C227.3 234.57 229.56 229.65 239.77 232.72C249.74 235.72 265.95 242.77 292.51 229.04C295.02 227.74 297.92 227.27 300.67 227.9C302.05 228.21 303.47 228.81 304.74 229.88C304.74 229.88 311.21 233.59 299.47 244.89C298.23 246.08 296.75 246.94 295.22 247.73C284.33 253.42 247.96 266.35 228.49 244.88V244.89Z" fill="white"/>
<path d="M248.53 266.69C249.71 266.72 252.83 266.6 255.79 264.6C256.35 264.22 257.11 264.58 257.12 265.26C257.2 270.49 255.17 286.27 226.64 279.65C225.82 279.46 225.76 278.31 226.56 278.04C232.23 276.14 244.86 271.51 247.78 267.11C247.95 266.85 248.22 266.69 248.52 266.7L248.53 266.69Z" fill="white"/>
<path d="M266.95 358.889C273.26 355.429 297 339.519 289.92 299.199C289.77 298.349 290.19 297.499 290.97 297.129L300.16 292.689C301.1 292.229 302.23 292.619 302.71 293.549C306.99 301.919 322.76 340.799 269.61 378.289C268.29 379.219 266.47 378.189 266.59 376.579C266.92 372.099 267.19 364.989 266.06 361.149C265.8 360.269 266.15 359.339 266.95 358.899V358.889Z" fill="white"/>
<path d="M320.05 281.029L331.4 273.089C332.33 272.439 333.61 272.749 334.14 273.749C339.16 283.239 359.58 327.699 329.47 373.089C329.47 373.089 312.36 397.499 289.14 410.039C266.33 422.359 233.33 454.309 225.76 470.339C225.29 471.329 224.69 472.249 223.87 472.979C222.27 474.419 217.79 476.599 214.29 475.539C214.06 475.469 213.75 475.239 213.54 475.129C212.26 474.429 209.01 471.539 215.88 459.879C224.1 445.919 236.51 426.049 275.08 400.729C313.65 375.409 322.91 347.929 325.55 333.179C328.19 318.429 326.54 299.999 319.42 283.319C319.07 282.499 319.33 281.549 320.06 281.039H320.05V281.029Z" fill="white"/>
</g>
<defs>
<clipPath id="clip0_623_6391">
<rect width="366" height="485" fill="white"/>
</clipPath>
</defs>
</svg>
