<svg width="66" height="92" viewBox="0 0 66 92" fill="none" xmlns="http://www.w3.org/2000/svg">
<g clip-path="url(#clip0_220_1817)">
<path d="M14.7369 17.2081C14.7369 17.2081 10.5311 13.5683 13.3668 9.87377C15.8602 7.29428 18.3954 8.99965 19.273 9.73997C19.4535 9.89136 19.7165 9.88785 19.8954 9.7356L20.9665 8.81554C21.1564 8.65232 21.1904 8.37292 21.0447 8.16989C20.4293 7.30631 18.6806 5.23283 16.2157 5.17582C13.2834 5.22761 11.9244 6.67963 11.1693 7.45369C9.7586 9.04472 9.17485 11.3109 9.58251 13.3043C9.7574 14.4721 10.9353 17.0842 13.7337 18.7658" fill="white"/>
<path d="M51.3436 8.68048C51.4522 8.77128 51.6071 8.78196 51.7264 8.7054C52.289 8.34931 53.9947 7.51962 55.5722 9.28049C57.3776 11.2978 56.8701 12.6598 56.5959 13.2812C56.5514 13.3845 56.5621 13.502 56.6262 13.5946L57.3402 14.645C57.4595 14.8195 57.7087 14.8391 57.8512 14.6824C58.4138 14.0664 59.5942 12.3055 59.142 10.0514C58.5865 7.28282 56.7384 6.154 55.5757 5.65725C54.1443 5.04656 51.4593 4.62281 49.5774 6.77538C49.4563 6.91426 49.4741 7.12614 49.6148 7.24365L51.3418 8.6787H51.3436V8.68048Z" fill="white"/>
<path d="M46.5448 6.07182C46.7353 6.1555 46.9579 6.08428 47.0701 5.90801C47.5134 5.21007 48.8309 3.55246 51.6904 2.78686C55.367 1.80227 59.4674 4.0955 60.7654 7.38936C61.7482 10.717 61.3209 12.2892 60.7654 13.9842C60.2099 15.6792 59.268 16.4697 58.798 16.7742C58.6377 16.8774 58.5665 17.0751 58.627 17.2567C58.9279 18.1665 59.649 20.8692 58.6965 23.5524C58.652 23.677 58.6662 23.8141 58.7374 23.9245C60.6247 26.2622 61.693 29.8232 61.4419 32.574C60.9897 36.6049 60.7814 38.4086 59.6579 40.5042C59.5974 40.6181 59.5903 40.7516 59.6419 40.8692C60.1618 42.0549 62.991 48.6177 62.8966 50.8344C62.8806 51.2243 63.0052 51.6178 63.2883 51.8884C63.5465 52.1377 63.8847 52.2819 64.3121 52.1786C64.7874 52.0629 65.1649 51.6552 65.1613 50.5139C65.1578 49.4492 63.607 42.9007 62.5832 40.773C62.5387 40.6804 62.6242 40.5807 62.6527 40.4828C62.8912 39.6656 63.9791 35.8251 63.988 33.7188C64.3637 29.7341 63.3773 26.5258 62.5797 24.391C61.782 22.2562 61.3583 21.4639 61.3298 21.2502C61.3244 21.2182 61.3244 21.1862 61.3298 21.1541C61.3618 20.8639 61.5381 19.1048 61.3885 17.8513C61.3725 17.7232 61.4188 17.595 61.5114 17.5042C62.0384 16.9878 63.8936 13.9842 63.4396 9.6452C62.7613 3.15542 57.2044 0.397486 53.5029 0.356535C51.3503 0.304902 50.298 0.178489 45.9591 3.22842C45.8558 3.31388 45.7187 3.34593 45.5887 3.31388C44.6842 3.08954 40.956 2.26519 38.3654 3.15542C38.2781 3.18569 38.1873 3.18747 38.1001 3.15898C37.2989 2.89013 32.9777 1.54588 29.1533 2.40229C29.1533 2.40229 26.2226 2.96135 25.0244 3.47946C24.8588 3.55068 24.6647 3.51507 24.5437 3.38154C24.0024 2.79221 22.3199 1.23608 18.9067 0.246146C18.8943 0.242585 18.8818 0.239025 18.8693 0.237244C18.5043 0.166026 13.5315 -0.622719 9.96168 1.93402C7.6275 3.56849 5.34317 6.48488 4.7841 11.107C4.6292 15.4905 6.47554 18.2804 7.65598 19.7012C7.77171 19.8401 7.78596 20.0378 7.68981 20.1927C6.60373 21.9535 0.368556 32.3372 0.587553 38.3569C0.587553 38.3569 0.546602 39.094 0.943645 39.2756C1.15908 39.3736 1.36383 39.4359 1.57037 39.4608C1.8321 39.4929 2.00658 39.7439 1.9318 39.9967C1.22318 42.4146 -1.36561 52.1323 0.947206 57.9812C0.947206 57.9812 1.1662 58.9996 2.42499 58.9675C2.4695 58.9675 2.51401 58.9586 2.55674 58.9426C2.79354 58.8554 3.54846 58.4886 3.46122 57.4132C3.35973 56.1437 3.52888 45.258 6.36337 38.5207C6.38652 38.4673 6.3972 38.4086 6.39542 38.3498L6.3153 34.8815C6.3064 34.5254 5.88799 34.3384 5.61736 34.5717C5.34495 34.8067 4.91942 34.6162 4.91942 34.2565C4.91942 32.8713 5.7135 29.2588 10.9623 20.4989C11.0549 20.344 11.0406 20.1481 10.9249 20.011C9.80144 18.6846 4.43691 11.7016 10.1486 5.38278C10.1486 5.38278 15.5915 -0.971689 23.8564 6.33176C23.9793 6.44037 24.1537 6.47064 24.3033 6.40298C25.6582 5.80653 32.4329 3.0931 38.3618 5.71572C38.4687 5.7638 38.5915 5.76736 38.6983 5.71928C39.423 5.40414 42.5103 4.28779 46.5502 6.07182H46.5448Z" fill="white"/>
<path d="M41.864 11.3181C40.4752 9.53234 35.1196 3.85623 26.0268 8.48542C25.7918 8.60471 25.8843 8.95902 26.1479 8.94656C26.8351 8.91273 27.7004 8.96259 28.4696 9.28129C28.6921 9.37387 28.6512 9.70148 28.4162 9.74421C26.5146 10.0878 21.1554 11.2825 18.0557 14.2363C17.8954 14.3877 18.0094 14.6565 18.2301 14.6547C18.6913 14.6494 19.3643 14.6921 20.1014 14.9075C20.299 14.9663 20.3418 15.228 20.1708 15.3438C18.8444 16.2429 14.744 19.2732 13.9766 22.8716C13.9303 23.087 14.1778 23.249 14.3559 23.1208C15.0057 22.6543 16.3375 21.9404 18.4812 21.8549C18.7091 21.846 18.8266 22.1255 18.6575 22.2787C17.4966 23.3327 14.7689 26.2847 14.9007 30.6593C14.9078 30.8961 15.2123 30.9869 15.3458 30.791C16.1506 29.6088 18.1874 27.1108 21.419 26.3488C21.686 26.2865 21.6486 26.4805 21.419 26.6301C19.4498 27.912 15.8425 31.4409 15.4829 38.5129C14.995 48.1025 24.1413 53.451 26.1247 54.6546C28.1081 55.8582 35.1356 59.7841 37.0852 63.5569C39.0348 67.3297 40.0016 68.5208 39.9625 74.2628C39.9625 74.4925 40.2473 74.5993 40.3933 74.4213C41.3441 73.2693 43.47 70.0093 43.032 64.294C43.0266 64.2263 43.0498 64.1587 43.0961 64.1106C43.6445 63.5284 47.0896 59.6399 45.9199 55.0285C45.8843 54.8914 45.7365 54.8148 45.603 54.8629L43.429 55.6267C43.3204 55.6641 43.2545 55.7709 43.267 55.8849C43.3578 56.6344 43.4433 59.5259 40.2384 63.1883C40.1085 63.3361 39.8645 63.2791 39.8182 63.0886C39.5619 62.0292 38.36 59.2891 32.7783 55.2154C32.7747 55.2119 32.7694 55.2101 32.7658 55.2065C32.513 55.0445 24.2873 49.8776 22.6136 47.4615C21.143 46.3167 17.3613 41.586 19.4373 35.3116C20.5536 31.0154 24.0825 27.0218 26.9241 25.7612C27.1681 25.6526 27.3853 25.9571 27.2019 26.1512C26.0143 27.4064 23.8439 30.1661 23.8849 33.5312C23.8885 33.7715 24.2018 33.8623 24.3336 33.6611C25.0012 32.6392 26.5253 30.7394 28.9841 30.0343C29.212 29.9685 29.3901 30.2391 29.2405 30.4225C28.1153 31.7988 25.5372 35.6357 26.3526 41.1444C27.2268 47.0538 30.7112 50.3921 33.5813 51.772C33.8305 51.8931 34.0602 51.569 33.859 51.3785C32.3528 49.9399 30.0453 46.7938 30.6827 41.3634C30.6827 41.3634 31.0228 38.2334 33.0988 36.12C33.2644 35.9526 33.1201 35.6713 32.8887 35.7087C32.4169 35.787 31.7438 35.99 30.9978 36.501C30.7806 36.6505 30.5135 36.4013 30.6506 36.1752C31.1207 35.3953 32.2495 34.2434 34.9629 33.3745C34.9629 33.3745 36.909 32.7033 37.8526 30.7804C37.9594 30.5649 37.7262 30.3406 37.5143 30.4581C37.0229 30.7323 36.195 31.0456 34.8365 31.2237C34.5837 31.2575 34.4537 30.9299 34.662 30.7821C36.3 29.6337 39.9625 26.9435 40.1013 25.7221C40.1013 25.7221 40.3595 25.0918 39.9251 24.1784C39.4906 23.265 37.5392 23.2365 37.0265 23.3131C36.5137 23.3897 35.3635 23.176 33.097 24.5149C32.951 24.6004 32.7623 24.5149 32.7338 24.3493C32.5771 23.4627 32.3741 21.0359 34.3843 19.3605C34.3843 19.3605 37.8775 16.3853 40.3577 19.5884C40.4752 19.7415 40.7138 19.7095 40.7815 19.5278C41.1322 18.5646 41.7643 16.0933 40.0355 13.9621C39.861 13.7467 40.1156 13.4529 40.3524 13.6007C42.6225 15.0179 45.9092 18.0251 42.2343 22.1718C42.188 22.2252 42.1649 22.2947 42.1738 22.3641C42.2325 22.8021 42.5637 24.401 44.3424 24.9529C44.5632 25.0223 44.5792 25.325 44.3638 25.4123C42.8895 26.0052 40.2082 27.7304 40.4254 32.413C40.4289 32.4878 40.3987 32.5608 40.3399 32.6107C39.7506 33.1092 36.5351 36.0826 37.5001 40.7153C37.5499 40.9575 37.8847 40.9824 37.9683 40.7509C38.3244 39.761 39.2912 38.3865 41.9067 38.6482C45.895 39.0488 47.1876 40.2578 52.8067 38.0073C52.8779 37.9788 52.9331 37.9182 52.9527 37.8434L53.5919 35.4826C53.6293 35.3472 53.5438 35.2084 53.4067 35.1799C52.5628 35.0107 49.8992 34.1872 49.2939 30.3966C49.2869 30.3531 49.2765 30.313 49.2939 30.2658C49.4203 29.9222 50.1164 28.2663 51.815 27.8497C52.0375 27.7945 52.2049 28.0527 52.066 28.2343C51.7972 28.5904 51.4998 29.1067 51.507 29.6604C51.5088 29.8545 51.726 29.9702 51.8862 29.8616C52.7711 29.2616 55.4275 27.807 58.189 29.6355C58.3867 29.7673 58.6377 29.5732 58.5558 29.3506C58.4205 28.9785 58.1908 28.5174 57.8134 28.1168C57.0478 27.3049 49.5894 22.0312 47.1288 20.8205C47.038 20.7759 46.9846 20.6798 46.9971 20.5765C47.0701 19.9356 47.2125 17.5462 45.7846 14.8096C45.6671 14.5835 45.9288 14.3467 46.1371 14.4945C47.0825 15.1639 48.6422 16.6168 49.6428 19.3712C49.6998 19.5278 49.8939 19.5795 50.0238 19.4744C50.9693 18.7035 54.1581 16.6186 54.6869 23.1564C54.6922 23.2276 54.7296 23.2935 54.7866 23.3363L55.7391 24.0217C55.8673 24.1143 56.0489 24.0609 56.1077 23.9149C56.5332 22.8555 57.7671 18.9777 55.0269 14.8559C51.8096 10.0166 48.7366 10.4706 48.7366 10.4706C48.7366 10.4706 48.8933 10.2374 49.2476 10.2071C49.4541 10.1893 49.7924 10.1822 49.3864 9.78516C48.587 9.00354 46.4914 7.64326 41.6414 7.74475C41.0129 7.76077 41.3299 7.97443 41.4491 8.13467C41.8284 8.63854 42.3892 9.65519 42.302 11.1793C42.2895 11.4036 42.0046 11.4926 41.8658 11.3164H41.864V11.3181Z" fill="white"/>
<path d="M11.7884 24.8159C11.4911 26.2652 11.0175 29.4611 12.0662 31.6119C12.0822 31.6439 12.0858 31.6778 12.0751 31.7116C11.9131 32.26 10.5332 37.0921 11.1617 41.4044C11.8294 45.9838 15.0182 51.6136 17.4396 53.7697C19.861 55.9259 22.2308 57.9111 25.1401 59.2785C25.1437 59.2785 25.149 59.282 25.1526 59.2838C25.4481 59.3942 36.0846 63.427 36.1451 72.4521C36.1451 72.6035 35.9422 72.6533 35.8727 72.5198C35.1143 71.0562 32.7836 66.9095 29.9349 65.3196C26.4505 63.3735 18.9103 60.6459 13.9535 55.4327C8.99667 50.2195 6.85478 41.9297 7.56696 36.4993C7.85184 31.2754 10.4282 26.4325 11.5285 24.709C11.614 24.5737 11.8223 24.6592 11.7902 24.8141H11.7884V24.8159Z" fill="white"/>
<path d="M7.28031 49.0537L8.77055 50.5742C8.77055 50.5742 7.56518 55.2248 9.4044 59.886C11.2436 64.5473 14.1778 68.7741 18.7198 71.224C18.7198 71.224 21.4385 72.538 20.4593 73.8787C20.4593 73.8787 19.9518 75.036 17.3862 73.3161C14.8206 71.5961 10.9765 69.107 8.402 64.2624C5.82745 59.4178 5.66365 51.703 7.27853 49.0555L7.28031 49.0537Z" fill="white"/>
<path d="M14.3559 61.5866C15.5132 64.0276 18.4972 68.5571 25.0012 69.6841C25.7081 69.807 26.2671 70.3482 26.3864 71.0551C26.7016 72.905 27.663 76.3003 28.5853 78.3639C29.8708 81.2429 31.8881 83.7551 32.8744 85.11C32.8851 85.1261 32.8958 85.1403 32.9047 85.1581C33.0382 85.4056 33.786 86.6946 34.808 86.2228C35.8888 85.7225 35.1089 84.0809 35.0947 84.0578C35.0804 84.0346 28.101 74.2172 28.434 69.8266C28.4411 69.7304 28.3912 69.6414 28.3022 69.6022C27.6862 69.3334 25.3075 68.2224 24.6113 66.7642C24.5864 66.7108 24.5419 66.668 24.4849 66.6484C23.7051 66.3778 17.9239 64.3125 14.8063 61.2643C14.582 61.0453 14.2205 61.3053 14.3541 61.5884L14.3559 61.5866Z" fill="white"/>
<path d="M56.2252 35.1909C56.2252 35.1909 57.6122 34.9043 58.5309 33.9446C58.5309 33.9446 58.6733 33.9001 58.773 34.0336C58.8727 34.1672 58.8371 37.0284 57.2703 39.2504C57.2703 39.2504 56.3623 38.9958 55.5629 38.118C55.5629 38.118 56.3035 36.3678 56.2252 35.1892V35.1909Z" fill="white"/>
<path d="M40.6818 43.6017C40.6818 43.6017 39.8022 42.7293 40.4699 41.7643C40.4699 41.7643 40.8723 40.8883 42.6901 41.4349C44.4652 41.969 47.3514 43.2243 52.0803 40.7797C52.5272 40.5482 53.0435 40.4645 53.5331 40.5767C53.7788 40.6319 54.0317 40.7387 54.2578 40.9293C54.2578 40.9293 55.4097 41.5898 53.3195 43.6017C53.0987 43.8136 52.8352 43.9667 52.5628 44.1074C50.6239 45.1205 44.1483 47.4226 40.6818 43.5999V43.6017Z" fill="white"/>
<path d="M44.2498 47.4836C44.4599 47.4889 45.0154 47.4676 45.5424 47.1115C45.6421 47.0438 45.7774 47.1079 45.7792 47.229C45.7935 48.1602 45.432 50.9697 40.3524 49.7911C40.2064 49.7572 40.1957 49.5525 40.3381 49.5044C41.3477 49.1661 43.5964 48.3418 44.1163 47.5584C44.1465 47.5121 44.1946 47.4836 44.248 47.4854L44.2498 47.4836Z" fill="white"/>
<path d="M47.5294 63.8992C48.6529 63.2832 52.8797 60.4505 51.6191 53.2716C51.5924 53.1203 51.6672 52.969 51.8061 52.9031L53.4423 52.1126C53.6097 52.0307 53.8109 52.1001 53.8963 52.2657C54.6584 53.7559 57.4662 60.6784 48.003 67.3533C47.768 67.5189 47.444 67.3355 47.4653 67.0488C47.5241 66.2512 47.5722 64.9853 47.371 64.3016C47.3247 64.1449 47.387 63.9793 47.5294 63.901V63.8992Z" fill="white"/>
<path d="M56.9837 50.036L59.0045 48.6223C59.1701 48.5066 59.398 48.5618 59.4923 48.7398C60.3861 50.4295 64.0218 58.3454 58.6609 66.4269C58.6609 66.4269 55.6145 70.773 51.4803 73.0057C47.419 75.1993 41.5435 80.8878 40.1957 83.7419C40.112 83.9182 40.0052 84.082 39.8592 84.212C39.5743 84.4683 38.7767 84.8565 38.1535 84.6678C38.1126 84.6553 38.0574 84.6143 38.02 84.5948C37.7921 84.4701 37.2134 83.9556 38.4366 81.8795C39.9001 79.394 42.1097 75.8562 48.9769 71.3481C55.8442 66.84 57.4929 61.9473 57.9629 59.3211C58.433 56.6949 58.1392 53.4135 56.8715 50.4437C56.8092 50.2977 56.8555 50.1286 56.9854 50.0378H56.9837V50.036Z" fill="white"/>
</g>
<defs>
<clipPath id="clip0_220_1817">
<rect width="65.1774" height="92" fill="white"/>
</clipPath>
</defs>
</svg>
