<svg width="168" height="75" viewBox="0 0 168 75" fill="none" xmlns="http://www.w3.org/2000/svg">
    <g clip-path="url(#clip0_801_5891)">
    <g filter="url(#filter0_bi_801_5891)">
    <path d="M15.083 12.9448C13.8842 5.86586 8.17972 0 1.00003 0H-7C-14.1797 0 -20 5.8203 -20 13V66C-20 73.1797 -14.1797 79 -7 79H175C182.18 79 188 73.1797 188 66V13C188 5.8203 182.18 0 175 0H167C159.82 0 154.116 5.86586 152.917 12.9448C147.091 47.3488 118.452 73.472 84 73.472C49.5482 73.472 20.9094 47.3488 15.083 12.9448Z" fill="white" fill-opacity="0.08"/>
    <path d="M-7 0.5H1.00003C7.88647 0.5 13.4231 6.13772 14.59 13.0282C20.4535 47.6512 49.283 73.972 84 73.972C118.717 73.972 147.546 47.6512 153.41 13.0282C154.577 6.13772 160.114 0.5 167 0.5H175C181.904 0.5 187.5 6.09644 187.5 13V66C187.5 72.9036 181.904 78.5 175 78.5H-7C-13.9036 78.5 -19.5 72.9036 -19.5 66V13C-19.5 6.09644 -13.9036 0.5 -7 0.5Z" stroke="white" stroke-opacity="0.1"/>
    </g>
    </g>
    <defs>
    <filter id="filter0_bi_801_5891" x="-40" y="-20" width="248" height="119" filterUnits="userSpaceOnUse" color-interpolation-filters="sRGB">
    <feFlood flood-opacity="0" result="BackgroundImageFix"/>
    <feGaussianBlur in="BackgroundImageFix" stdDeviation="10"/>
    <feComposite in2="SourceAlpha" operator="in" result="effect1_backgroundBlur_801_5891"/>
    <feBlend mode="normal" in="SourceGraphic" in2="effect1_backgroundBlur_801_5891" result="shape"/>
    <feColorMatrix in="SourceAlpha" type="matrix" values="0 0 0 0 0 0 0 0 0 0 0 0 0 0 0 0 0 0 127 0" result="hardAlpha"/>
    <feOffset/>
    <feGaussianBlur stdDeviation="5"/>
    <feComposite in2="hardAlpha" operator="arithmetic" k2="-1" k3="1"/>
    <feColorMatrix type="matrix" values="0 0 0 0 1 0 0 0 0 1 0 0 0 0 1 0 0 0 0.05 0"/>
    <feBlend mode="normal" in2="shape" result="effect2_innerShadow_801_5891"/>
    </filter>
    <clipPath id="clip0_801_5891">
    <rect width="168" height="75" fill="white"/>
    </clipPath>
    </defs>
</svg>
