<svg width="40" height="40" viewBox="0 0 40 40" fill="none" xmlns="http://www.w3.org/2000/svg">
<g clip-path="url(#clip0_604_3930)">
<path d="M39.5133 7.98875L37.8467 6.32208C37.2717 5.74708 36.3633 5.67041 35.7 6.14375L13.3017 22.1421L4.25832 16.1137C3.59665 15.6721 2.71832 15.7604 2.15499 16.3221L0.488322 17.9887C-0.133345 18.6087 -0.165011 19.6037 0.413322 20.2654L12.08 33.5987C12.3767 33.9387 12.8 34.1421 13.25 34.1654C13.2783 34.1654 13.3067 34.1671 13.3333 34.1671C13.755 34.1671 14.1617 34.0071 14.47 33.7188L39.4717 10.3854C39.8017 10.0771 39.9933 9.64875 40.0017 9.19541C40.0083 8.74375 39.8333 8.30875 39.5133 7.98875Z" fill="white"/>
</g>
<defs>
<clipPath id="clip0_604_3930">
<rect width="40.0019" height="40" fill="white"/>
</clipPath>
</defs>
</svg>
